G04 #@! TF.GenerationSoftware,KiCad,Pcbnew,9.0.2*
G04 #@! TF.CreationDate,2025-06-26T19:32:41+02:00*
G04 #@! TF.ProjectId,Macro Pad,4d616372-6f20-4506-9164-2e6b69636164,rev?*
G04 #@! TF.SameCoordinates,Original*
G04 #@! TF.FileFunction,Legend,Top*
G04 #@! TF.FilePolarity,Positive*
%FSLAX46Y46*%
G04 Gerber Fmt 4.6, Leading zero omitted, Abs format (unit mm)*
G04 Created by KiCad (PCBNEW 9.0.2) date 2025-06-26 19:32:41*
%MOMM*%
%LPD*%
G01*
G04 APERTURE LIST*
%ADD10C,0.203200*%
%ADD11C,0.127000*%
%ADD12C,0.150000*%
%ADD13C,0.146050*%
%ADD14C,0.200000*%
%ADD15C,0.250000*%
%ADD16C,1.520000*%
%ADD17O,2.600000X3.000000*%
%ADD18C,1.800000*%
%ADD19C,5.500000*%
%ADD20C,4.200000*%
%ADD21C,2.400000*%
%ADD22C,1.600000*%
%ADD23R,1.800000X1.570000*%
%ADD24R,1.400000X1.000000*%
%ADD25C,0.700000*%
%ADD26O,1.200000X1.800000*%
%ADD27O,1.100000X2.000000*%
G04 APERTURE END LIST*
D10*
X84524777Y-99525588D02*
X85540777Y-99525588D01*
X85540777Y-99525588D02*
X84815062Y-99864255D01*
X84815062Y-99864255D02*
X85540777Y-100202922D01*
X85540777Y-100202922D02*
X84524777Y-100202922D01*
X84524777Y-101122160D02*
X85056967Y-101122160D01*
X85056967Y-101122160D02*
X85153729Y-101073779D01*
X85153729Y-101073779D02*
X85202110Y-100977017D01*
X85202110Y-100977017D02*
X85202110Y-100783493D01*
X85202110Y-100783493D02*
X85153729Y-100686731D01*
X84573158Y-101122160D02*
X84524777Y-101025398D01*
X84524777Y-101025398D02*
X84524777Y-100783493D01*
X84524777Y-100783493D02*
X84573158Y-100686731D01*
X84573158Y-100686731D02*
X84669919Y-100638350D01*
X84669919Y-100638350D02*
X84766681Y-100638350D01*
X84766681Y-100638350D02*
X84863443Y-100686731D01*
X84863443Y-100686731D02*
X84911824Y-100783493D01*
X84911824Y-100783493D02*
X84911824Y-101025398D01*
X84911824Y-101025398D02*
X84960205Y-101122160D01*
X84573158Y-102041398D02*
X84524777Y-101944636D01*
X84524777Y-101944636D02*
X84524777Y-101751112D01*
X84524777Y-101751112D02*
X84573158Y-101654350D01*
X84573158Y-101654350D02*
X84621538Y-101605969D01*
X84621538Y-101605969D02*
X84718300Y-101557588D01*
X84718300Y-101557588D02*
X85008586Y-101557588D01*
X85008586Y-101557588D02*
X85105348Y-101605969D01*
X85105348Y-101605969D02*
X85153729Y-101654350D01*
X85153729Y-101654350D02*
X85202110Y-101751112D01*
X85202110Y-101751112D02*
X85202110Y-101944636D01*
X85202110Y-101944636D02*
X85153729Y-102041398D01*
X84524777Y-102476826D02*
X85202110Y-102476826D01*
X85008586Y-102476826D02*
X85105348Y-102525207D01*
X85105348Y-102525207D02*
X85153729Y-102573588D01*
X85153729Y-102573588D02*
X85202110Y-102670350D01*
X85202110Y-102670350D02*
X85202110Y-102767112D01*
X84524777Y-103250921D02*
X84573158Y-103154159D01*
X84573158Y-103154159D02*
X84621538Y-103105778D01*
X84621538Y-103105778D02*
X84718300Y-103057397D01*
X84718300Y-103057397D02*
X85008586Y-103057397D01*
X85008586Y-103057397D02*
X85105348Y-103105778D01*
X85105348Y-103105778D02*
X85153729Y-103154159D01*
X85153729Y-103154159D02*
X85202110Y-103250921D01*
X85202110Y-103250921D02*
X85202110Y-103396064D01*
X85202110Y-103396064D02*
X85153729Y-103492826D01*
X85153729Y-103492826D02*
X85105348Y-103541207D01*
X85105348Y-103541207D02*
X85008586Y-103589588D01*
X85008586Y-103589588D02*
X84718300Y-103589588D01*
X84718300Y-103589588D02*
X84621538Y-103541207D01*
X84621538Y-103541207D02*
X84573158Y-103492826D01*
X84573158Y-103492826D02*
X84524777Y-103396064D01*
X84524777Y-103396064D02*
X84524777Y-103250921D01*
X84524777Y-104799111D02*
X85540777Y-104799111D01*
X85540777Y-104799111D02*
X85540777Y-105186159D01*
X85540777Y-105186159D02*
X85492396Y-105282921D01*
X85492396Y-105282921D02*
X85444015Y-105331302D01*
X85444015Y-105331302D02*
X85347253Y-105379683D01*
X85347253Y-105379683D02*
X85202110Y-105379683D01*
X85202110Y-105379683D02*
X85105348Y-105331302D01*
X85105348Y-105331302D02*
X85056967Y-105282921D01*
X85056967Y-105282921D02*
X85008586Y-105186159D01*
X85008586Y-105186159D02*
X85008586Y-104799111D01*
X84524777Y-106250540D02*
X85056967Y-106250540D01*
X85056967Y-106250540D02*
X85153729Y-106202159D01*
X85153729Y-106202159D02*
X85202110Y-106105397D01*
X85202110Y-106105397D02*
X85202110Y-105911873D01*
X85202110Y-105911873D02*
X85153729Y-105815111D01*
X84573158Y-106250540D02*
X84524777Y-106153778D01*
X84524777Y-106153778D02*
X84524777Y-105911873D01*
X84524777Y-105911873D02*
X84573158Y-105815111D01*
X84573158Y-105815111D02*
X84669919Y-105766730D01*
X84669919Y-105766730D02*
X84766681Y-105766730D01*
X84766681Y-105766730D02*
X84863443Y-105815111D01*
X84863443Y-105815111D02*
X84911824Y-105911873D01*
X84911824Y-105911873D02*
X84911824Y-106153778D01*
X84911824Y-106153778D02*
X84960205Y-106250540D01*
X84524777Y-107169778D02*
X85540777Y-107169778D01*
X84573158Y-107169778D02*
X84524777Y-107073016D01*
X84524777Y-107073016D02*
X84524777Y-106879492D01*
X84524777Y-106879492D02*
X84573158Y-106782730D01*
X84573158Y-106782730D02*
X84621538Y-106734349D01*
X84621538Y-106734349D02*
X84718300Y-106685968D01*
X84718300Y-106685968D02*
X85008586Y-106685968D01*
X85008586Y-106685968D02*
X85105348Y-106734349D01*
X85105348Y-106734349D02*
X85153729Y-106782730D01*
X85153729Y-106782730D02*
X85202110Y-106879492D01*
X85202110Y-106879492D02*
X85202110Y-107073016D01*
X85202110Y-107073016D02*
X85153729Y-107169778D01*
X83062239Y-101928826D02*
X82384906Y-102170731D01*
X82384906Y-102170731D02*
X83062239Y-102412636D01*
X82384906Y-103331874D02*
X82384906Y-102751302D01*
X82384906Y-103041588D02*
X83400906Y-103041588D01*
X83400906Y-103041588D02*
X83255763Y-102944826D01*
X83255763Y-102944826D02*
X83159001Y-102848064D01*
X83159001Y-102848064D02*
X83110620Y-102751302D01*
X82481667Y-103767302D02*
X82433287Y-103815683D01*
X82433287Y-103815683D02*
X82384906Y-103767302D01*
X82384906Y-103767302D02*
X82433287Y-103718921D01*
X82433287Y-103718921D02*
X82481667Y-103767302D01*
X82481667Y-103767302D02*
X82384906Y-103767302D01*
X83400906Y-104444636D02*
X83400906Y-104541398D01*
X83400906Y-104541398D02*
X83352525Y-104638160D01*
X83352525Y-104638160D02*
X83304144Y-104686541D01*
X83304144Y-104686541D02*
X83207382Y-104734922D01*
X83207382Y-104734922D02*
X83013858Y-104783303D01*
X83013858Y-104783303D02*
X82771953Y-104783303D01*
X82771953Y-104783303D02*
X82578429Y-104734922D01*
X82578429Y-104734922D02*
X82481667Y-104686541D01*
X82481667Y-104686541D02*
X82433287Y-104638160D01*
X82433287Y-104638160D02*
X82384906Y-104541398D01*
X82384906Y-104541398D02*
X82384906Y-104444636D01*
X82384906Y-104444636D02*
X82433287Y-104347874D01*
X82433287Y-104347874D02*
X82481667Y-104299493D01*
X82481667Y-104299493D02*
X82578429Y-104251112D01*
X82578429Y-104251112D02*
X82771953Y-104202731D01*
X82771953Y-104202731D02*
X83013858Y-104202731D01*
X83013858Y-104202731D02*
X83207382Y-104251112D01*
X83207382Y-104251112D02*
X83304144Y-104299493D01*
X83304144Y-104299493D02*
X83352525Y-104347874D01*
X83352525Y-104347874D02*
X83400906Y-104444636D01*
X80702110Y-92751304D02*
X79879634Y-92751304D01*
X79879634Y-92751304D02*
X79782872Y-92702923D01*
X79782872Y-92702923D02*
X79734491Y-92654542D01*
X79734491Y-92654542D02*
X79686110Y-92557780D01*
X79686110Y-92557780D02*
X79686110Y-92412637D01*
X79686110Y-92412637D02*
X79734491Y-92315875D01*
X80073158Y-92751304D02*
X80024777Y-92654542D01*
X80024777Y-92654542D02*
X80024777Y-92461018D01*
X80024777Y-92461018D02*
X80073158Y-92364256D01*
X80073158Y-92364256D02*
X80121538Y-92315875D01*
X80121538Y-92315875D02*
X80218300Y-92267494D01*
X80218300Y-92267494D02*
X80508586Y-92267494D01*
X80508586Y-92267494D02*
X80605348Y-92315875D01*
X80605348Y-92315875D02*
X80653729Y-92364256D01*
X80653729Y-92364256D02*
X80702110Y-92461018D01*
X80702110Y-92461018D02*
X80702110Y-92654542D01*
X80702110Y-92654542D02*
X80653729Y-92751304D01*
X80024777Y-93235113D02*
X80702110Y-93235113D01*
X81040777Y-93235113D02*
X80992396Y-93186732D01*
X80992396Y-93186732D02*
X80944015Y-93235113D01*
X80944015Y-93235113D02*
X80992396Y-93283494D01*
X80992396Y-93283494D02*
X81040777Y-93235113D01*
X81040777Y-93235113D02*
X80944015Y-93235113D01*
X80702110Y-93573780D02*
X80702110Y-93960828D01*
X81040777Y-93718923D02*
X80169919Y-93718923D01*
X80169919Y-93718923D02*
X80073158Y-93767304D01*
X80073158Y-93767304D02*
X80024777Y-93864066D01*
X80024777Y-93864066D02*
X80024777Y-93960828D01*
X80024777Y-94299494D02*
X81040777Y-94299494D01*
X80024777Y-94734923D02*
X80556967Y-94734923D01*
X80556967Y-94734923D02*
X80653729Y-94686542D01*
X80653729Y-94686542D02*
X80702110Y-94589780D01*
X80702110Y-94589780D02*
X80702110Y-94444637D01*
X80702110Y-94444637D02*
X80653729Y-94347875D01*
X80653729Y-94347875D02*
X80605348Y-94299494D01*
X80702110Y-95654161D02*
X80024777Y-95654161D01*
X80702110Y-95218732D02*
X80169919Y-95218732D01*
X80169919Y-95218732D02*
X80073158Y-95267113D01*
X80073158Y-95267113D02*
X80024777Y-95363875D01*
X80024777Y-95363875D02*
X80024777Y-95509018D01*
X80024777Y-95509018D02*
X80073158Y-95605780D01*
X80073158Y-95605780D02*
X80121538Y-95654161D01*
X80024777Y-96137970D02*
X81040777Y-96137970D01*
X80653729Y-96137970D02*
X80702110Y-96234732D01*
X80702110Y-96234732D02*
X80702110Y-96428256D01*
X80702110Y-96428256D02*
X80653729Y-96525018D01*
X80653729Y-96525018D02*
X80605348Y-96573399D01*
X80605348Y-96573399D02*
X80508586Y-96621780D01*
X80508586Y-96621780D02*
X80218300Y-96621780D01*
X80218300Y-96621780D02*
X80121538Y-96573399D01*
X80121538Y-96573399D02*
X80073158Y-96525018D01*
X80073158Y-96525018D02*
X80024777Y-96428256D01*
X80024777Y-96428256D02*
X80024777Y-96234732D01*
X80024777Y-96234732D02*
X80073158Y-96137970D01*
X80121538Y-97057208D02*
X80073158Y-97105589D01*
X80073158Y-97105589D02*
X80024777Y-97057208D01*
X80024777Y-97057208D02*
X80073158Y-97008827D01*
X80073158Y-97008827D02*
X80121538Y-97057208D01*
X80121538Y-97057208D02*
X80024777Y-97057208D01*
X80073158Y-97976447D02*
X80024777Y-97879685D01*
X80024777Y-97879685D02*
X80024777Y-97686161D01*
X80024777Y-97686161D02*
X80073158Y-97589399D01*
X80073158Y-97589399D02*
X80121538Y-97541018D01*
X80121538Y-97541018D02*
X80218300Y-97492637D01*
X80218300Y-97492637D02*
X80508586Y-97492637D01*
X80508586Y-97492637D02*
X80605348Y-97541018D01*
X80605348Y-97541018D02*
X80653729Y-97589399D01*
X80653729Y-97589399D02*
X80702110Y-97686161D01*
X80702110Y-97686161D02*
X80702110Y-97879685D01*
X80702110Y-97879685D02*
X80653729Y-97976447D01*
X80024777Y-98557018D02*
X80073158Y-98460256D01*
X80073158Y-98460256D02*
X80121538Y-98411875D01*
X80121538Y-98411875D02*
X80218300Y-98363494D01*
X80218300Y-98363494D02*
X80508586Y-98363494D01*
X80508586Y-98363494D02*
X80605348Y-98411875D01*
X80605348Y-98411875D02*
X80653729Y-98460256D01*
X80653729Y-98460256D02*
X80702110Y-98557018D01*
X80702110Y-98557018D02*
X80702110Y-98702161D01*
X80702110Y-98702161D02*
X80653729Y-98798923D01*
X80653729Y-98798923D02*
X80605348Y-98847304D01*
X80605348Y-98847304D02*
X80508586Y-98895685D01*
X80508586Y-98895685D02*
X80218300Y-98895685D01*
X80218300Y-98895685D02*
X80121538Y-98847304D01*
X80121538Y-98847304D02*
X80073158Y-98798923D01*
X80073158Y-98798923D02*
X80024777Y-98702161D01*
X80024777Y-98702161D02*
X80024777Y-98557018D01*
X80024777Y-99331113D02*
X80702110Y-99331113D01*
X80605348Y-99331113D02*
X80653729Y-99379494D01*
X80653729Y-99379494D02*
X80702110Y-99476256D01*
X80702110Y-99476256D02*
X80702110Y-99621399D01*
X80702110Y-99621399D02*
X80653729Y-99718161D01*
X80653729Y-99718161D02*
X80556967Y-99766542D01*
X80556967Y-99766542D02*
X80024777Y-99766542D01*
X80556967Y-99766542D02*
X80653729Y-99814923D01*
X80653729Y-99814923D02*
X80702110Y-99911685D01*
X80702110Y-99911685D02*
X80702110Y-100056828D01*
X80702110Y-100056828D02*
X80653729Y-100153589D01*
X80653729Y-100153589D02*
X80556967Y-100201970D01*
X80556967Y-100201970D02*
X80024777Y-100201970D01*
X81089158Y-101411495D02*
X79782872Y-100540637D01*
X80024777Y-101750161D02*
X81040777Y-101750161D01*
X80411824Y-101846923D02*
X80024777Y-102137209D01*
X80702110Y-102137209D02*
X80315062Y-101750161D01*
X80702110Y-103008066D02*
X79879634Y-103008066D01*
X79879634Y-103008066D02*
X79782872Y-102959685D01*
X79782872Y-102959685D02*
X79734491Y-102911304D01*
X79734491Y-102911304D02*
X79686110Y-102814542D01*
X79686110Y-102814542D02*
X79686110Y-102669399D01*
X79686110Y-102669399D02*
X79734491Y-102572637D01*
X80073158Y-103008066D02*
X80024777Y-102911304D01*
X80024777Y-102911304D02*
X80024777Y-102717780D01*
X80024777Y-102717780D02*
X80073158Y-102621018D01*
X80073158Y-102621018D02*
X80121538Y-102572637D01*
X80121538Y-102572637D02*
X80218300Y-102524256D01*
X80218300Y-102524256D02*
X80508586Y-102524256D01*
X80508586Y-102524256D02*
X80605348Y-102572637D01*
X80605348Y-102572637D02*
X80653729Y-102621018D01*
X80653729Y-102621018D02*
X80702110Y-102717780D01*
X80702110Y-102717780D02*
X80702110Y-102911304D01*
X80702110Y-102911304D02*
X80653729Y-103008066D01*
X80024777Y-103927304D02*
X80556967Y-103927304D01*
X80556967Y-103927304D02*
X80653729Y-103878923D01*
X80653729Y-103878923D02*
X80702110Y-103782161D01*
X80702110Y-103782161D02*
X80702110Y-103588637D01*
X80702110Y-103588637D02*
X80653729Y-103491875D01*
X80073158Y-103927304D02*
X80024777Y-103830542D01*
X80024777Y-103830542D02*
X80024777Y-103588637D01*
X80024777Y-103588637D02*
X80073158Y-103491875D01*
X80073158Y-103491875D02*
X80169919Y-103443494D01*
X80169919Y-103443494D02*
X80266681Y-103443494D01*
X80266681Y-103443494D02*
X80363443Y-103491875D01*
X80363443Y-103491875D02*
X80411824Y-103588637D01*
X80411824Y-103588637D02*
X80411824Y-103830542D01*
X80411824Y-103830542D02*
X80460205Y-103927304D01*
X80024777Y-104556256D02*
X80073158Y-104459494D01*
X80073158Y-104459494D02*
X80169919Y-104411113D01*
X80169919Y-104411113D02*
X81040777Y-104411113D01*
X80024777Y-104943303D02*
X80702110Y-104943303D01*
X81040777Y-104943303D02*
X80992396Y-104894922D01*
X80992396Y-104894922D02*
X80944015Y-104943303D01*
X80944015Y-104943303D02*
X80992396Y-104991684D01*
X80992396Y-104991684D02*
X81040777Y-104943303D01*
X81040777Y-104943303D02*
X80944015Y-104943303D01*
X80702110Y-105427113D02*
X80024777Y-105427113D01*
X80605348Y-105427113D02*
X80653729Y-105475494D01*
X80653729Y-105475494D02*
X80702110Y-105572256D01*
X80702110Y-105572256D02*
X80702110Y-105717399D01*
X80702110Y-105717399D02*
X80653729Y-105814161D01*
X80653729Y-105814161D02*
X80556967Y-105862542D01*
X80556967Y-105862542D02*
X80024777Y-105862542D01*
X80073158Y-106733399D02*
X80024777Y-106636637D01*
X80024777Y-106636637D02*
X80024777Y-106443113D01*
X80024777Y-106443113D02*
X80073158Y-106346351D01*
X80073158Y-106346351D02*
X80169919Y-106297970D01*
X80169919Y-106297970D02*
X80556967Y-106297970D01*
X80556967Y-106297970D02*
X80653729Y-106346351D01*
X80653729Y-106346351D02*
X80702110Y-106443113D01*
X80702110Y-106443113D02*
X80702110Y-106636637D01*
X80702110Y-106636637D02*
X80653729Y-106733399D01*
X80653729Y-106733399D02*
X80556967Y-106781780D01*
X80556967Y-106781780D02*
X80460205Y-106781780D01*
X80460205Y-106781780D02*
X80363443Y-106297970D01*
X80073158Y-107652637D02*
X80024777Y-107555875D01*
X80024777Y-107555875D02*
X80024777Y-107362351D01*
X80024777Y-107362351D02*
X80073158Y-107265589D01*
X80073158Y-107265589D02*
X80121538Y-107217208D01*
X80121538Y-107217208D02*
X80218300Y-107168827D01*
X80218300Y-107168827D02*
X80508586Y-107168827D01*
X80508586Y-107168827D02*
X80605348Y-107217208D01*
X80605348Y-107217208D02*
X80653729Y-107265589D01*
X80653729Y-107265589D02*
X80702110Y-107362351D01*
X80702110Y-107362351D02*
X80702110Y-107555875D01*
X80702110Y-107555875D02*
X80653729Y-107652637D01*
X81089158Y-108813780D02*
X79782872Y-107942922D01*
X80024777Y-109152446D02*
X80702110Y-109152446D01*
X80605348Y-109152446D02*
X80653729Y-109200827D01*
X80653729Y-109200827D02*
X80702110Y-109297589D01*
X80702110Y-109297589D02*
X80702110Y-109442732D01*
X80702110Y-109442732D02*
X80653729Y-109539494D01*
X80653729Y-109539494D02*
X80556967Y-109587875D01*
X80556967Y-109587875D02*
X80024777Y-109587875D01*
X80556967Y-109587875D02*
X80653729Y-109636256D01*
X80653729Y-109636256D02*
X80702110Y-109733018D01*
X80702110Y-109733018D02*
X80702110Y-109878161D01*
X80702110Y-109878161D02*
X80653729Y-109974922D01*
X80653729Y-109974922D02*
X80556967Y-110023303D01*
X80556967Y-110023303D02*
X80024777Y-110023303D01*
X80024777Y-110942542D02*
X80556967Y-110942542D01*
X80556967Y-110942542D02*
X80653729Y-110894161D01*
X80653729Y-110894161D02*
X80702110Y-110797399D01*
X80702110Y-110797399D02*
X80702110Y-110603875D01*
X80702110Y-110603875D02*
X80653729Y-110507113D01*
X80073158Y-110942542D02*
X80024777Y-110845780D01*
X80024777Y-110845780D02*
X80024777Y-110603875D01*
X80024777Y-110603875D02*
X80073158Y-110507113D01*
X80073158Y-110507113D02*
X80169919Y-110458732D01*
X80169919Y-110458732D02*
X80266681Y-110458732D01*
X80266681Y-110458732D02*
X80363443Y-110507113D01*
X80363443Y-110507113D02*
X80411824Y-110603875D01*
X80411824Y-110603875D02*
X80411824Y-110845780D01*
X80411824Y-110845780D02*
X80460205Y-110942542D01*
X80073158Y-111861780D02*
X80024777Y-111765018D01*
X80024777Y-111765018D02*
X80024777Y-111571494D01*
X80024777Y-111571494D02*
X80073158Y-111474732D01*
X80073158Y-111474732D02*
X80121538Y-111426351D01*
X80121538Y-111426351D02*
X80218300Y-111377970D01*
X80218300Y-111377970D02*
X80508586Y-111377970D01*
X80508586Y-111377970D02*
X80605348Y-111426351D01*
X80605348Y-111426351D02*
X80653729Y-111474732D01*
X80653729Y-111474732D02*
X80702110Y-111571494D01*
X80702110Y-111571494D02*
X80702110Y-111765018D01*
X80702110Y-111765018D02*
X80653729Y-111861780D01*
X80024777Y-112297208D02*
X80702110Y-112297208D01*
X80508586Y-112297208D02*
X80605348Y-112345589D01*
X80605348Y-112345589D02*
X80653729Y-112393970D01*
X80653729Y-112393970D02*
X80702110Y-112490732D01*
X80702110Y-112490732D02*
X80702110Y-112587494D01*
X80024777Y-113071303D02*
X80073158Y-112974541D01*
X80073158Y-112974541D02*
X80121538Y-112926160D01*
X80121538Y-112926160D02*
X80218300Y-112877779D01*
X80218300Y-112877779D02*
X80508586Y-112877779D01*
X80508586Y-112877779D02*
X80605348Y-112926160D01*
X80605348Y-112926160D02*
X80653729Y-112974541D01*
X80653729Y-112974541D02*
X80702110Y-113071303D01*
X80702110Y-113071303D02*
X80702110Y-113216446D01*
X80702110Y-113216446D02*
X80653729Y-113313208D01*
X80653729Y-113313208D02*
X80605348Y-113361589D01*
X80605348Y-113361589D02*
X80508586Y-113409970D01*
X80508586Y-113409970D02*
X80218300Y-113409970D01*
X80218300Y-113409970D02*
X80121538Y-113361589D01*
X80121538Y-113361589D02*
X80073158Y-113313208D01*
X80073158Y-113313208D02*
X80024777Y-113216446D01*
X80024777Y-113216446D02*
X80024777Y-113071303D01*
X80411824Y-113845398D02*
X80411824Y-114619494D01*
X80702110Y-115103303D02*
X79686110Y-115103303D01*
X80653729Y-115103303D02*
X80702110Y-115200065D01*
X80702110Y-115200065D02*
X80702110Y-115393589D01*
X80702110Y-115393589D02*
X80653729Y-115490351D01*
X80653729Y-115490351D02*
X80605348Y-115538732D01*
X80605348Y-115538732D02*
X80508586Y-115587113D01*
X80508586Y-115587113D02*
X80218300Y-115587113D01*
X80218300Y-115587113D02*
X80121538Y-115538732D01*
X80121538Y-115538732D02*
X80073158Y-115490351D01*
X80073158Y-115490351D02*
X80024777Y-115393589D01*
X80024777Y-115393589D02*
X80024777Y-115200065D01*
X80024777Y-115200065D02*
X80073158Y-115103303D01*
X80024777Y-116457970D02*
X80556967Y-116457970D01*
X80556967Y-116457970D02*
X80653729Y-116409589D01*
X80653729Y-116409589D02*
X80702110Y-116312827D01*
X80702110Y-116312827D02*
X80702110Y-116119303D01*
X80702110Y-116119303D02*
X80653729Y-116022541D01*
X80073158Y-116457970D02*
X80024777Y-116361208D01*
X80024777Y-116361208D02*
X80024777Y-116119303D01*
X80024777Y-116119303D02*
X80073158Y-116022541D01*
X80073158Y-116022541D02*
X80169919Y-115974160D01*
X80169919Y-115974160D02*
X80266681Y-115974160D01*
X80266681Y-115974160D02*
X80363443Y-116022541D01*
X80363443Y-116022541D02*
X80411824Y-116119303D01*
X80411824Y-116119303D02*
X80411824Y-116361208D01*
X80411824Y-116361208D02*
X80460205Y-116457970D01*
X80024777Y-117377208D02*
X81040777Y-117377208D01*
X80073158Y-117377208D02*
X80024777Y-117280446D01*
X80024777Y-117280446D02*
X80024777Y-117086922D01*
X80024777Y-117086922D02*
X80073158Y-116990160D01*
X80073158Y-116990160D02*
X80121538Y-116941779D01*
X80121538Y-116941779D02*
X80218300Y-116893398D01*
X80218300Y-116893398D02*
X80508586Y-116893398D01*
X80508586Y-116893398D02*
X80605348Y-116941779D01*
X80605348Y-116941779D02*
X80653729Y-116990160D01*
X80653729Y-116990160D02*
X80702110Y-117086922D01*
X80702110Y-117086922D02*
X80702110Y-117280446D01*
X80702110Y-117280446D02*
X80653729Y-117377208D01*
X145384906Y-101525588D02*
X146400906Y-101525588D01*
X145384906Y-102106160D02*
X145965477Y-101670731D01*
X146400906Y-102106160D02*
X145820334Y-101525588D01*
X145384906Y-102541588D02*
X146062239Y-102541588D01*
X145868715Y-102541588D02*
X145965477Y-102589969D01*
X145965477Y-102589969D02*
X146013858Y-102638350D01*
X146013858Y-102638350D02*
X146062239Y-102735112D01*
X146062239Y-102735112D02*
X146062239Y-102831874D01*
X145384906Y-103170540D02*
X146062239Y-103170540D01*
X146400906Y-103170540D02*
X146352525Y-103122159D01*
X146352525Y-103122159D02*
X146304144Y-103170540D01*
X146304144Y-103170540D02*
X146352525Y-103218921D01*
X146352525Y-103218921D02*
X146400906Y-103170540D01*
X146400906Y-103170540D02*
X146304144Y-103170540D01*
X145433287Y-103605969D02*
X145384906Y-103702731D01*
X145384906Y-103702731D02*
X145384906Y-103896255D01*
X145384906Y-103896255D02*
X145433287Y-103993017D01*
X145433287Y-103993017D02*
X145530048Y-104041398D01*
X145530048Y-104041398D02*
X145578429Y-104041398D01*
X145578429Y-104041398D02*
X145675191Y-103993017D01*
X145675191Y-103993017D02*
X145723572Y-103896255D01*
X145723572Y-103896255D02*
X145723572Y-103751112D01*
X145723572Y-103751112D02*
X145771953Y-103654350D01*
X145771953Y-103654350D02*
X145868715Y-103605969D01*
X145868715Y-103605969D02*
X145917096Y-103605969D01*
X145917096Y-103605969D02*
X146013858Y-103654350D01*
X146013858Y-103654350D02*
X146062239Y-103751112D01*
X146062239Y-103751112D02*
X146062239Y-103896255D01*
X146062239Y-103896255D02*
X146013858Y-103993017D01*
X146062239Y-104331683D02*
X146062239Y-104718731D01*
X146400906Y-104476826D02*
X145530048Y-104476826D01*
X145530048Y-104476826D02*
X145433287Y-104525207D01*
X145433287Y-104525207D02*
X145384906Y-104621969D01*
X145384906Y-104621969D02*
X145384906Y-104718731D01*
X145384906Y-105057397D02*
X146062239Y-105057397D01*
X146400906Y-105057397D02*
X146352525Y-105009016D01*
X146352525Y-105009016D02*
X146304144Y-105057397D01*
X146304144Y-105057397D02*
X146352525Y-105105778D01*
X146352525Y-105105778D02*
X146400906Y-105057397D01*
X146400906Y-105057397D02*
X146304144Y-105057397D01*
X146062239Y-105541207D02*
X145191382Y-105541207D01*
X145191382Y-105541207D02*
X145094620Y-105492826D01*
X145094620Y-105492826D02*
X145046239Y-105396064D01*
X145046239Y-105396064D02*
X145046239Y-105347683D01*
X146400906Y-105541207D02*
X146352525Y-105492826D01*
X146352525Y-105492826D02*
X146304144Y-105541207D01*
X146304144Y-105541207D02*
X146352525Y-105589588D01*
X146352525Y-105589588D02*
X146400906Y-105541207D01*
X146400906Y-105541207D02*
X146304144Y-105541207D01*
X145384906Y-106460446D02*
X145917096Y-106460446D01*
X145917096Y-106460446D02*
X146013858Y-106412065D01*
X146013858Y-106412065D02*
X146062239Y-106315303D01*
X146062239Y-106315303D02*
X146062239Y-106121779D01*
X146062239Y-106121779D02*
X146013858Y-106025017D01*
X145433287Y-106460446D02*
X145384906Y-106363684D01*
X145384906Y-106363684D02*
X145384906Y-106121779D01*
X145384906Y-106121779D02*
X145433287Y-106025017D01*
X145433287Y-106025017D02*
X145530048Y-105976636D01*
X145530048Y-105976636D02*
X145626810Y-105976636D01*
X145626810Y-105976636D02*
X145723572Y-106025017D01*
X145723572Y-106025017D02*
X145771953Y-106121779D01*
X145771953Y-106121779D02*
X145771953Y-106363684D01*
X145771953Y-106363684D02*
X145820334Y-106460446D01*
X146062239Y-106944255D02*
X145384906Y-106944255D01*
X145965477Y-106944255D02*
X146013858Y-106992636D01*
X146013858Y-106992636D02*
X146062239Y-107089398D01*
X146062239Y-107089398D02*
X146062239Y-107234541D01*
X146062239Y-107234541D02*
X146013858Y-107331303D01*
X146013858Y-107331303D02*
X145917096Y-107379684D01*
X145917096Y-107379684D02*
X145384906Y-107379684D01*
X146352525Y-109169779D02*
X146400906Y-109073017D01*
X146400906Y-109073017D02*
X146400906Y-108927874D01*
X146400906Y-108927874D02*
X146352525Y-108782731D01*
X146352525Y-108782731D02*
X146255763Y-108685969D01*
X146255763Y-108685969D02*
X146159001Y-108637588D01*
X146159001Y-108637588D02*
X145965477Y-108589207D01*
X145965477Y-108589207D02*
X145820334Y-108589207D01*
X145820334Y-108589207D02*
X145626810Y-108637588D01*
X145626810Y-108637588D02*
X145530048Y-108685969D01*
X145530048Y-108685969D02*
X145433287Y-108782731D01*
X145433287Y-108782731D02*
X145384906Y-108927874D01*
X145384906Y-108927874D02*
X145384906Y-109024636D01*
X145384906Y-109024636D02*
X145433287Y-109169779D01*
X145433287Y-109169779D02*
X145481667Y-109218160D01*
X145481667Y-109218160D02*
X145820334Y-109218160D01*
X145820334Y-109218160D02*
X145820334Y-109024636D01*
X145384906Y-110089017D02*
X145917096Y-110089017D01*
X145917096Y-110089017D02*
X146013858Y-110040636D01*
X146013858Y-110040636D02*
X146062239Y-109943874D01*
X146062239Y-109943874D02*
X146062239Y-109750350D01*
X146062239Y-109750350D02*
X146013858Y-109653588D01*
X145433287Y-110089017D02*
X145384906Y-109992255D01*
X145384906Y-109992255D02*
X145384906Y-109750350D01*
X145384906Y-109750350D02*
X145433287Y-109653588D01*
X145433287Y-109653588D02*
X145530048Y-109605207D01*
X145530048Y-109605207D02*
X145626810Y-109605207D01*
X145626810Y-109605207D02*
X145723572Y-109653588D01*
X145723572Y-109653588D02*
X145771953Y-109750350D01*
X145771953Y-109750350D02*
X145771953Y-109992255D01*
X145771953Y-109992255D02*
X145820334Y-110089017D01*
X145384906Y-110717969D02*
X145433287Y-110621207D01*
X145433287Y-110621207D02*
X145530048Y-110572826D01*
X145530048Y-110572826D02*
X146400906Y-110572826D01*
X145384906Y-111105016D02*
X146062239Y-111105016D01*
X146400906Y-111105016D02*
X146352525Y-111056635D01*
X146352525Y-111056635D02*
X146304144Y-111105016D01*
X146304144Y-111105016D02*
X146352525Y-111153397D01*
X146352525Y-111153397D02*
X146400906Y-111105016D01*
X146400906Y-111105016D02*
X146304144Y-111105016D01*
X146062239Y-111588826D02*
X145384906Y-111588826D01*
X145965477Y-111588826D02*
X146013858Y-111637207D01*
X146013858Y-111637207D02*
X146062239Y-111733969D01*
X146062239Y-111733969D02*
X146062239Y-111879112D01*
X146062239Y-111879112D02*
X146013858Y-111975874D01*
X146013858Y-111975874D02*
X145917096Y-112024255D01*
X145917096Y-112024255D02*
X145384906Y-112024255D01*
X145433287Y-112895112D02*
X145384906Y-112798350D01*
X145384906Y-112798350D02*
X145384906Y-112604826D01*
X145384906Y-112604826D02*
X145433287Y-112508064D01*
X145433287Y-112508064D02*
X145530048Y-112459683D01*
X145530048Y-112459683D02*
X145917096Y-112459683D01*
X145917096Y-112459683D02*
X146013858Y-112508064D01*
X146013858Y-112508064D02*
X146062239Y-112604826D01*
X146062239Y-112604826D02*
X146062239Y-112798350D01*
X146062239Y-112798350D02*
X146013858Y-112895112D01*
X146013858Y-112895112D02*
X145917096Y-112943493D01*
X145917096Y-112943493D02*
X145820334Y-112943493D01*
X145820334Y-112943493D02*
X145723572Y-112459683D01*
X145433287Y-113814350D02*
X145384906Y-113717588D01*
X145384906Y-113717588D02*
X145384906Y-113524064D01*
X145384906Y-113524064D02*
X145433287Y-113427302D01*
X145433287Y-113427302D02*
X145481667Y-113378921D01*
X145481667Y-113378921D02*
X145578429Y-113330540D01*
X145578429Y-113330540D02*
X145868715Y-113330540D01*
X145868715Y-113330540D02*
X145965477Y-113378921D01*
X145965477Y-113378921D02*
X146013858Y-113427302D01*
X146013858Y-113427302D02*
X146062239Y-113524064D01*
X146062239Y-113524064D02*
X146062239Y-113717588D01*
X146062239Y-113717588D02*
X146013858Y-113814350D01*
X147384906Y-103025588D02*
X148400906Y-103025588D01*
X148400906Y-103025588D02*
X148400906Y-103267493D01*
X148400906Y-103267493D02*
X148352525Y-103412636D01*
X148352525Y-103412636D02*
X148255763Y-103509398D01*
X148255763Y-103509398D02*
X148159001Y-103557779D01*
X148159001Y-103557779D02*
X147965477Y-103606160D01*
X147965477Y-103606160D02*
X147820334Y-103606160D01*
X147820334Y-103606160D02*
X147626810Y-103557779D01*
X147626810Y-103557779D02*
X147530048Y-103509398D01*
X147530048Y-103509398D02*
X147433287Y-103412636D01*
X147433287Y-103412636D02*
X147384906Y-103267493D01*
X147384906Y-103267493D02*
X147384906Y-103025588D01*
X147433287Y-104428636D02*
X147384906Y-104331874D01*
X147384906Y-104331874D02*
X147384906Y-104138350D01*
X147384906Y-104138350D02*
X147433287Y-104041588D01*
X147433287Y-104041588D02*
X147530048Y-103993207D01*
X147530048Y-103993207D02*
X147917096Y-103993207D01*
X147917096Y-103993207D02*
X148013858Y-104041588D01*
X148013858Y-104041588D02*
X148062239Y-104138350D01*
X148062239Y-104138350D02*
X148062239Y-104331874D01*
X148062239Y-104331874D02*
X148013858Y-104428636D01*
X148013858Y-104428636D02*
X147917096Y-104477017D01*
X147917096Y-104477017D02*
X147820334Y-104477017D01*
X147820334Y-104477017D02*
X147723572Y-103993207D01*
X147433287Y-104864064D02*
X147384906Y-104960826D01*
X147384906Y-104960826D02*
X147384906Y-105154350D01*
X147384906Y-105154350D02*
X147433287Y-105251112D01*
X147433287Y-105251112D02*
X147530048Y-105299493D01*
X147530048Y-105299493D02*
X147578429Y-105299493D01*
X147578429Y-105299493D02*
X147675191Y-105251112D01*
X147675191Y-105251112D02*
X147723572Y-105154350D01*
X147723572Y-105154350D02*
X147723572Y-105009207D01*
X147723572Y-105009207D02*
X147771953Y-104912445D01*
X147771953Y-104912445D02*
X147868715Y-104864064D01*
X147868715Y-104864064D02*
X147917096Y-104864064D01*
X147917096Y-104864064D02*
X148013858Y-104912445D01*
X148013858Y-104912445D02*
X148062239Y-105009207D01*
X148062239Y-105009207D02*
X148062239Y-105154350D01*
X148062239Y-105154350D02*
X148013858Y-105251112D01*
X147384906Y-105734921D02*
X148062239Y-105734921D01*
X148400906Y-105734921D02*
X148352525Y-105686540D01*
X148352525Y-105686540D02*
X148304144Y-105734921D01*
X148304144Y-105734921D02*
X148352525Y-105783302D01*
X148352525Y-105783302D02*
X148400906Y-105734921D01*
X148400906Y-105734921D02*
X148304144Y-105734921D01*
X148062239Y-106654160D02*
X147239763Y-106654160D01*
X147239763Y-106654160D02*
X147143001Y-106605779D01*
X147143001Y-106605779D02*
X147094620Y-106557398D01*
X147094620Y-106557398D02*
X147046239Y-106460636D01*
X147046239Y-106460636D02*
X147046239Y-106315493D01*
X147046239Y-106315493D02*
X147094620Y-106218731D01*
X147433287Y-106654160D02*
X147384906Y-106557398D01*
X147384906Y-106557398D02*
X147384906Y-106363874D01*
X147384906Y-106363874D02*
X147433287Y-106267112D01*
X147433287Y-106267112D02*
X147481667Y-106218731D01*
X147481667Y-106218731D02*
X147578429Y-106170350D01*
X147578429Y-106170350D02*
X147868715Y-106170350D01*
X147868715Y-106170350D02*
X147965477Y-106218731D01*
X147965477Y-106218731D02*
X148013858Y-106267112D01*
X148013858Y-106267112D02*
X148062239Y-106363874D01*
X148062239Y-106363874D02*
X148062239Y-106557398D01*
X148062239Y-106557398D02*
X148013858Y-106654160D01*
X148062239Y-107137969D02*
X147384906Y-107137969D01*
X147965477Y-107137969D02*
X148013858Y-107186350D01*
X148013858Y-107186350D02*
X148062239Y-107283112D01*
X148062239Y-107283112D02*
X148062239Y-107428255D01*
X148062239Y-107428255D02*
X148013858Y-107525017D01*
X148013858Y-107525017D02*
X147917096Y-107573398D01*
X147917096Y-107573398D02*
X147384906Y-107573398D01*
X147433287Y-108444255D02*
X147384906Y-108347493D01*
X147384906Y-108347493D02*
X147384906Y-108153969D01*
X147384906Y-108153969D02*
X147433287Y-108057207D01*
X147433287Y-108057207D02*
X147530048Y-108008826D01*
X147530048Y-108008826D02*
X147917096Y-108008826D01*
X147917096Y-108008826D02*
X148013858Y-108057207D01*
X148013858Y-108057207D02*
X148062239Y-108153969D01*
X148062239Y-108153969D02*
X148062239Y-108347493D01*
X148062239Y-108347493D02*
X148013858Y-108444255D01*
X148013858Y-108444255D02*
X147917096Y-108492636D01*
X147917096Y-108492636D02*
X147820334Y-108492636D01*
X147820334Y-108492636D02*
X147723572Y-108008826D01*
X147384906Y-109363493D02*
X148400906Y-109363493D01*
X147433287Y-109363493D02*
X147384906Y-109266731D01*
X147384906Y-109266731D02*
X147384906Y-109073207D01*
X147384906Y-109073207D02*
X147433287Y-108976445D01*
X147433287Y-108976445D02*
X147481667Y-108928064D01*
X147481667Y-108928064D02*
X147578429Y-108879683D01*
X147578429Y-108879683D02*
X147868715Y-108879683D01*
X147868715Y-108879683D02*
X147965477Y-108928064D01*
X147965477Y-108928064D02*
X148013858Y-108976445D01*
X148013858Y-108976445D02*
X148062239Y-109073207D01*
X148062239Y-109073207D02*
X148062239Y-109266731D01*
X148062239Y-109266731D02*
X148013858Y-109363493D01*
X147384906Y-110621397D02*
X148400906Y-110621397D01*
X148013858Y-110621397D02*
X148062239Y-110718159D01*
X148062239Y-110718159D02*
X148062239Y-110911683D01*
X148062239Y-110911683D02*
X148013858Y-111008445D01*
X148013858Y-111008445D02*
X147965477Y-111056826D01*
X147965477Y-111056826D02*
X147868715Y-111105207D01*
X147868715Y-111105207D02*
X147578429Y-111105207D01*
X147578429Y-111105207D02*
X147481667Y-111056826D01*
X147481667Y-111056826D02*
X147433287Y-111008445D01*
X147433287Y-111008445D02*
X147384906Y-110911683D01*
X147384906Y-110911683D02*
X147384906Y-110718159D01*
X147384906Y-110718159D02*
X147433287Y-110621397D01*
X148062239Y-111443873D02*
X147384906Y-111685778D01*
X148062239Y-111927683D02*
X147384906Y-111685778D01*
X147384906Y-111685778D02*
X147143001Y-111589016D01*
X147143001Y-111589016D02*
X147094620Y-111540635D01*
X147094620Y-111540635D02*
X147046239Y-111443873D01*
X147481667Y-112314730D02*
X147433287Y-112363111D01*
X147433287Y-112363111D02*
X147384906Y-112314730D01*
X147384906Y-112314730D02*
X147433287Y-112266349D01*
X147433287Y-112266349D02*
X147481667Y-112314730D01*
X147481667Y-112314730D02*
X147384906Y-112314730D01*
X148013858Y-112314730D02*
X147965477Y-112363111D01*
X147965477Y-112363111D02*
X147917096Y-112314730D01*
X147917096Y-112314730D02*
X147965477Y-112266349D01*
X147965477Y-112266349D02*
X148013858Y-112314730D01*
X148013858Y-112314730D02*
X147917096Y-112314730D01*
D11*
X93197416Y-27956285D02*
X94019893Y-27956285D01*
X94019893Y-27956285D02*
X94116655Y-27919999D01*
X94116655Y-27919999D02*
X94165036Y-27883714D01*
X94165036Y-27883714D02*
X94213416Y-27811142D01*
X94213416Y-27811142D02*
X94213416Y-27665999D01*
X94213416Y-27665999D02*
X94165036Y-27593428D01*
X94165036Y-27593428D02*
X94116655Y-27557142D01*
X94116655Y-27557142D02*
X94019893Y-27520856D01*
X94019893Y-27520856D02*
X93197416Y-27520856D01*
X94165036Y-27194285D02*
X94213416Y-27085428D01*
X94213416Y-27085428D02*
X94213416Y-26903999D01*
X94213416Y-26903999D02*
X94165036Y-26831428D01*
X94165036Y-26831428D02*
X94116655Y-26795142D01*
X94116655Y-26795142D02*
X94019893Y-26758856D01*
X94019893Y-26758856D02*
X93923131Y-26758856D01*
X93923131Y-26758856D02*
X93826369Y-26795142D01*
X93826369Y-26795142D02*
X93777988Y-26831428D01*
X93777988Y-26831428D02*
X93729607Y-26903999D01*
X93729607Y-26903999D02*
X93681226Y-27049142D01*
X93681226Y-27049142D02*
X93632845Y-27121713D01*
X93632845Y-27121713D02*
X93584464Y-27157999D01*
X93584464Y-27157999D02*
X93487702Y-27194285D01*
X93487702Y-27194285D02*
X93390940Y-27194285D01*
X93390940Y-27194285D02*
X93294178Y-27157999D01*
X93294178Y-27157999D02*
X93245797Y-27121713D01*
X93245797Y-27121713D02*
X93197416Y-27049142D01*
X93197416Y-27049142D02*
X93197416Y-26867713D01*
X93197416Y-26867713D02*
X93245797Y-26758856D01*
X93681226Y-26432285D02*
X93681226Y-26178285D01*
X94213416Y-26069428D02*
X94213416Y-26432285D01*
X94213416Y-26432285D02*
X93197416Y-26432285D01*
X93197416Y-26432285D02*
X93197416Y-26069428D01*
X94213416Y-25307427D02*
X93729607Y-25561427D01*
X94213416Y-25742856D02*
X93197416Y-25742856D01*
X93197416Y-25742856D02*
X93197416Y-25452570D01*
X93197416Y-25452570D02*
X93245797Y-25379999D01*
X93245797Y-25379999D02*
X93294178Y-25343713D01*
X93294178Y-25343713D02*
X93390940Y-25307427D01*
X93390940Y-25307427D02*
X93536083Y-25307427D01*
X93536083Y-25307427D02*
X93632845Y-25343713D01*
X93632845Y-25343713D02*
X93681226Y-25379999D01*
X93681226Y-25379999D02*
X93729607Y-25452570D01*
X93729607Y-25452570D02*
X93729607Y-25742856D01*
X100713416Y-28409857D02*
X99697416Y-28409857D01*
X99697416Y-28409857D02*
X99697416Y-28119571D01*
X99697416Y-28119571D02*
X99745797Y-28047000D01*
X99745797Y-28047000D02*
X99794178Y-28010714D01*
X99794178Y-28010714D02*
X99890940Y-27974428D01*
X99890940Y-27974428D02*
X100036083Y-27974428D01*
X100036083Y-27974428D02*
X100132845Y-28010714D01*
X100132845Y-28010714D02*
X100181226Y-28047000D01*
X100181226Y-28047000D02*
X100229607Y-28119571D01*
X100229607Y-28119571D02*
X100229607Y-28409857D01*
X99697416Y-27502714D02*
X99697416Y-27357571D01*
X99697416Y-27357571D02*
X99745797Y-27285000D01*
X99745797Y-27285000D02*
X99842559Y-27212428D01*
X99842559Y-27212428D02*
X100036083Y-27176143D01*
X100036083Y-27176143D02*
X100374750Y-27176143D01*
X100374750Y-27176143D02*
X100568274Y-27212428D01*
X100568274Y-27212428D02*
X100665036Y-27285000D01*
X100665036Y-27285000D02*
X100713416Y-27357571D01*
X100713416Y-27357571D02*
X100713416Y-27502714D01*
X100713416Y-27502714D02*
X100665036Y-27575286D01*
X100665036Y-27575286D02*
X100568274Y-27647857D01*
X100568274Y-27647857D02*
X100374750Y-27684143D01*
X100374750Y-27684143D02*
X100036083Y-27684143D01*
X100036083Y-27684143D02*
X99842559Y-27647857D01*
X99842559Y-27647857D02*
X99745797Y-27575286D01*
X99745797Y-27575286D02*
X99697416Y-27502714D01*
X99697416Y-26922142D02*
X100713416Y-26740714D01*
X100713416Y-26740714D02*
X99987702Y-26595571D01*
X99987702Y-26595571D02*
X100713416Y-26450428D01*
X100713416Y-26450428D02*
X99697416Y-26269000D01*
X100181226Y-25978714D02*
X100181226Y-25724714D01*
X100713416Y-25615857D02*
X100713416Y-25978714D01*
X100713416Y-25978714D02*
X99697416Y-25978714D01*
X99697416Y-25978714D02*
X99697416Y-25615857D01*
X100713416Y-24853856D02*
X100229607Y-25107856D01*
X100713416Y-25289285D02*
X99697416Y-25289285D01*
X99697416Y-25289285D02*
X99697416Y-24998999D01*
X99697416Y-24998999D02*
X99745797Y-24926428D01*
X99745797Y-24926428D02*
X99794178Y-24890142D01*
X99794178Y-24890142D02*
X99890940Y-24853856D01*
X99890940Y-24853856D02*
X100036083Y-24853856D01*
X100036083Y-24853856D02*
X100132845Y-24890142D01*
X100132845Y-24890142D02*
X100181226Y-24926428D01*
X100181226Y-24926428D02*
X100229607Y-24998999D01*
X100229607Y-24998999D02*
X100229607Y-25289285D01*
D12*
X93650000Y-31173009D02*
X93850000Y-31173009D01*
X93935714Y-31696819D02*
X93650000Y-31696819D01*
X93650000Y-31696819D02*
X93650000Y-30696819D01*
X93650000Y-30696819D02*
X93935714Y-30696819D01*
X94192857Y-31696819D02*
X94192857Y-30696819D01*
X94192857Y-30696819D02*
X94535714Y-31696819D01*
X94535714Y-31696819D02*
X94535714Y-30696819D01*
X95164285Y-31601580D02*
X95135713Y-31649200D01*
X95135713Y-31649200D02*
X95049999Y-31696819D01*
X95049999Y-31696819D02*
X94992856Y-31696819D01*
X94992856Y-31696819D02*
X94907142Y-31649200D01*
X94907142Y-31649200D02*
X94849999Y-31553961D01*
X94849999Y-31553961D02*
X94821428Y-31458723D01*
X94821428Y-31458723D02*
X94792856Y-31268247D01*
X94792856Y-31268247D02*
X94792856Y-31125390D01*
X94792856Y-31125390D02*
X94821428Y-30934914D01*
X94821428Y-30934914D02*
X94849999Y-30839676D01*
X94849999Y-30839676D02*
X94907142Y-30744438D01*
X94907142Y-30744438D02*
X94992856Y-30696819D01*
X94992856Y-30696819D02*
X95049999Y-30696819D01*
X95049999Y-30696819D02*
X95135713Y-30744438D01*
X95135713Y-30744438D02*
X95164285Y-30792057D01*
X95392856Y-30792057D02*
X95421428Y-30744438D01*
X95421428Y-30744438D02*
X95478571Y-30696819D01*
X95478571Y-30696819D02*
X95621428Y-30696819D01*
X95621428Y-30696819D02*
X95678571Y-30744438D01*
X95678571Y-30744438D02*
X95707142Y-30792057D01*
X95707142Y-30792057D02*
X95735713Y-30887295D01*
X95735713Y-30887295D02*
X95735713Y-30982533D01*
X95735713Y-30982533D02*
X95707142Y-31125390D01*
X95707142Y-31125390D02*
X95364285Y-31696819D01*
X95364285Y-31696819D02*
X95735713Y-31696819D01*
X96107142Y-30696819D02*
X96164285Y-30696819D01*
X96164285Y-30696819D02*
X96221428Y-30744438D01*
X96221428Y-30744438D02*
X96250000Y-30792057D01*
X96250000Y-30792057D02*
X96278571Y-30887295D01*
X96278571Y-30887295D02*
X96307142Y-31077771D01*
X96307142Y-31077771D02*
X96307142Y-31315866D01*
X96307142Y-31315866D02*
X96278571Y-31506342D01*
X96278571Y-31506342D02*
X96250000Y-31601580D01*
X96250000Y-31601580D02*
X96221428Y-31649200D01*
X96221428Y-31649200D02*
X96164285Y-31696819D01*
X96164285Y-31696819D02*
X96107142Y-31696819D01*
X96107142Y-31696819D02*
X96050000Y-31649200D01*
X96050000Y-31649200D02*
X96021428Y-31601580D01*
X96021428Y-31601580D02*
X95992857Y-31506342D01*
X95992857Y-31506342D02*
X95964285Y-31315866D01*
X95964285Y-31315866D02*
X95964285Y-31077771D01*
X95964285Y-31077771D02*
X95992857Y-30887295D01*
X95992857Y-30887295D02*
X96021428Y-30792057D01*
X96021428Y-30792057D02*
X96050000Y-30744438D01*
X96050000Y-30744438D02*
X96107142Y-30696819D01*
X96878571Y-31696819D02*
X96535714Y-31696819D01*
X96707143Y-31696819D02*
X96707143Y-30696819D01*
X96707143Y-30696819D02*
X96650000Y-30839676D01*
X96650000Y-30839676D02*
X96592857Y-30934914D01*
X96592857Y-30934914D02*
X96535714Y-30982533D01*
X82221428Y-123904819D02*
X82221428Y-122904819D01*
X82221428Y-123381009D02*
X82564285Y-123381009D01*
X82564285Y-123904819D02*
X82564285Y-122904819D01*
X82821427Y-123000057D02*
X82849999Y-122952438D01*
X82849999Y-122952438D02*
X82907142Y-122904819D01*
X82907142Y-122904819D02*
X83049999Y-122904819D01*
X83049999Y-122904819D02*
X83107142Y-122952438D01*
X83107142Y-122952438D02*
X83135713Y-123000057D01*
X83135713Y-123000057D02*
X83164284Y-123095295D01*
X83164284Y-123095295D02*
X83164284Y-123190533D01*
X83164284Y-123190533D02*
X83135713Y-123333390D01*
X83135713Y-123333390D02*
X82792856Y-123904819D01*
X82792856Y-123904819D02*
X83164284Y-123904819D01*
X83535713Y-122904819D02*
X83592856Y-122904819D01*
X83592856Y-122904819D02*
X83649999Y-122952438D01*
X83649999Y-122952438D02*
X83678571Y-123000057D01*
X83678571Y-123000057D02*
X83707142Y-123095295D01*
X83707142Y-123095295D02*
X83735713Y-123285771D01*
X83735713Y-123285771D02*
X83735713Y-123523866D01*
X83735713Y-123523866D02*
X83707142Y-123714342D01*
X83707142Y-123714342D02*
X83678571Y-123809580D01*
X83678571Y-123809580D02*
X83649999Y-123857200D01*
X83649999Y-123857200D02*
X83592856Y-123904819D01*
X83592856Y-123904819D02*
X83535713Y-123904819D01*
X83535713Y-123904819D02*
X83478571Y-123857200D01*
X83478571Y-123857200D02*
X83449999Y-123809580D01*
X83449999Y-123809580D02*
X83421428Y-123714342D01*
X83421428Y-123714342D02*
X83392856Y-123523866D01*
X83392856Y-123523866D02*
X83392856Y-123285771D01*
X83392856Y-123285771D02*
X83421428Y-123095295D01*
X83421428Y-123095295D02*
X83449999Y-123000057D01*
X83449999Y-123000057D02*
X83478571Y-122952438D01*
X83478571Y-122952438D02*
X83535713Y-122904819D01*
X83935714Y-122904819D02*
X84307142Y-122904819D01*
X84307142Y-122904819D02*
X84107142Y-123285771D01*
X84107142Y-123285771D02*
X84192857Y-123285771D01*
X84192857Y-123285771D02*
X84250000Y-123333390D01*
X84250000Y-123333390D02*
X84278571Y-123381009D01*
X84278571Y-123381009D02*
X84307142Y-123476247D01*
X84307142Y-123476247D02*
X84307142Y-123714342D01*
X84307142Y-123714342D02*
X84278571Y-123809580D01*
X84278571Y-123809580D02*
X84250000Y-123857200D01*
X84250000Y-123857200D02*
X84192857Y-123904819D01*
X84192857Y-123904819D02*
X84021428Y-123904819D01*
X84021428Y-123904819D02*
X83964285Y-123857200D01*
X83964285Y-123857200D02*
X83935714Y-123809580D01*
X131978570Y-109437200D02*
X132064285Y-109484819D01*
X132064285Y-109484819D02*
X132207142Y-109484819D01*
X132207142Y-109484819D02*
X132264285Y-109437200D01*
X132264285Y-109437200D02*
X132292856Y-109389580D01*
X132292856Y-109389580D02*
X132321427Y-109294342D01*
X132321427Y-109294342D02*
X132321427Y-109199104D01*
X132321427Y-109199104D02*
X132292856Y-109103866D01*
X132292856Y-109103866D02*
X132264285Y-109056247D01*
X132264285Y-109056247D02*
X132207142Y-109008628D01*
X132207142Y-109008628D02*
X132092856Y-108961009D01*
X132092856Y-108961009D02*
X132035713Y-108913390D01*
X132035713Y-108913390D02*
X132007142Y-108865771D01*
X132007142Y-108865771D02*
X131978570Y-108770533D01*
X131978570Y-108770533D02*
X131978570Y-108675295D01*
X131978570Y-108675295D02*
X132007142Y-108580057D01*
X132007142Y-108580057D02*
X132035713Y-108532438D01*
X132035713Y-108532438D02*
X132092856Y-108484819D01*
X132092856Y-108484819D02*
X132235713Y-108484819D01*
X132235713Y-108484819D02*
X132321427Y-108532438D01*
X132521428Y-108484819D02*
X132664285Y-109484819D01*
X132664285Y-109484819D02*
X132778571Y-108770533D01*
X132778571Y-108770533D02*
X132892856Y-109484819D01*
X132892856Y-109484819D02*
X133035714Y-108484819D01*
X133235713Y-108580057D02*
X133264285Y-108532438D01*
X133264285Y-108532438D02*
X133321428Y-108484819D01*
X133321428Y-108484819D02*
X133464285Y-108484819D01*
X133464285Y-108484819D02*
X133521428Y-108532438D01*
X133521428Y-108532438D02*
X133549999Y-108580057D01*
X133549999Y-108580057D02*
X133578570Y-108675295D01*
X133578570Y-108675295D02*
X133578570Y-108770533D01*
X133578570Y-108770533D02*
X133549999Y-108913390D01*
X133549999Y-108913390D02*
X133207142Y-109484819D01*
X133207142Y-109484819D02*
X133578570Y-109484819D01*
X134149999Y-109484819D02*
X133807142Y-109484819D01*
X133978571Y-109484819D02*
X133978571Y-108484819D01*
X133978571Y-108484819D02*
X133921428Y-108627676D01*
X133921428Y-108627676D02*
X133864285Y-108722914D01*
X133864285Y-108722914D02*
X133807142Y-108770533D01*
X134521428Y-108484819D02*
X134578571Y-108484819D01*
X134578571Y-108484819D02*
X134635714Y-108532438D01*
X134635714Y-108532438D02*
X134664286Y-108580057D01*
X134664286Y-108580057D02*
X134692857Y-108675295D01*
X134692857Y-108675295D02*
X134721428Y-108865771D01*
X134721428Y-108865771D02*
X134721428Y-109103866D01*
X134721428Y-109103866D02*
X134692857Y-109294342D01*
X134692857Y-109294342D02*
X134664286Y-109389580D01*
X134664286Y-109389580D02*
X134635714Y-109437200D01*
X134635714Y-109437200D02*
X134578571Y-109484819D01*
X134578571Y-109484819D02*
X134521428Y-109484819D01*
X134521428Y-109484819D02*
X134464286Y-109437200D01*
X134464286Y-109437200D02*
X134435714Y-109389580D01*
X134435714Y-109389580D02*
X134407143Y-109294342D01*
X134407143Y-109294342D02*
X134378571Y-109103866D01*
X134378571Y-109103866D02*
X134378571Y-108865771D01*
X134378571Y-108865771D02*
X134407143Y-108675295D01*
X134407143Y-108675295D02*
X134435714Y-108580057D01*
X134435714Y-108580057D02*
X134464286Y-108532438D01*
X134464286Y-108532438D02*
X134521428Y-108484819D01*
X93878570Y-71337200D02*
X93964285Y-71384819D01*
X93964285Y-71384819D02*
X94107142Y-71384819D01*
X94107142Y-71384819D02*
X94164285Y-71337200D01*
X94164285Y-71337200D02*
X94192856Y-71289580D01*
X94192856Y-71289580D02*
X94221427Y-71194342D01*
X94221427Y-71194342D02*
X94221427Y-71099104D01*
X94221427Y-71099104D02*
X94192856Y-71003866D01*
X94192856Y-71003866D02*
X94164285Y-70956247D01*
X94164285Y-70956247D02*
X94107142Y-70908628D01*
X94107142Y-70908628D02*
X93992856Y-70861009D01*
X93992856Y-70861009D02*
X93935713Y-70813390D01*
X93935713Y-70813390D02*
X93907142Y-70765771D01*
X93907142Y-70765771D02*
X93878570Y-70670533D01*
X93878570Y-70670533D02*
X93878570Y-70575295D01*
X93878570Y-70575295D02*
X93907142Y-70480057D01*
X93907142Y-70480057D02*
X93935713Y-70432438D01*
X93935713Y-70432438D02*
X93992856Y-70384819D01*
X93992856Y-70384819D02*
X94135713Y-70384819D01*
X94135713Y-70384819D02*
X94221427Y-70432438D01*
X94421428Y-70384819D02*
X94564285Y-71384819D01*
X94564285Y-71384819D02*
X94678571Y-70670533D01*
X94678571Y-70670533D02*
X94792856Y-71384819D01*
X94792856Y-71384819D02*
X94935714Y-70384819D01*
X95135713Y-70480057D02*
X95164285Y-70432438D01*
X95164285Y-70432438D02*
X95221428Y-70384819D01*
X95221428Y-70384819D02*
X95364285Y-70384819D01*
X95364285Y-70384819D02*
X95421428Y-70432438D01*
X95421428Y-70432438D02*
X95449999Y-70480057D01*
X95449999Y-70480057D02*
X95478570Y-70575295D01*
X95478570Y-70575295D02*
X95478570Y-70670533D01*
X95478570Y-70670533D02*
X95449999Y-70813390D01*
X95449999Y-70813390D02*
X95107142Y-71384819D01*
X95107142Y-71384819D02*
X95478570Y-71384819D01*
X95849999Y-70384819D02*
X95907142Y-70384819D01*
X95907142Y-70384819D02*
X95964285Y-70432438D01*
X95964285Y-70432438D02*
X95992857Y-70480057D01*
X95992857Y-70480057D02*
X96021428Y-70575295D01*
X96021428Y-70575295D02*
X96049999Y-70765771D01*
X96049999Y-70765771D02*
X96049999Y-71003866D01*
X96049999Y-71003866D02*
X96021428Y-71194342D01*
X96021428Y-71194342D02*
X95992857Y-71289580D01*
X95992857Y-71289580D02*
X95964285Y-71337200D01*
X95964285Y-71337200D02*
X95907142Y-71384819D01*
X95907142Y-71384819D02*
X95849999Y-71384819D01*
X95849999Y-71384819D02*
X95792857Y-71337200D01*
X95792857Y-71337200D02*
X95764285Y-71289580D01*
X95764285Y-71289580D02*
X95735714Y-71194342D01*
X95735714Y-71194342D02*
X95707142Y-71003866D01*
X95707142Y-71003866D02*
X95707142Y-70765771D01*
X95707142Y-70765771D02*
X95735714Y-70575295D01*
X95735714Y-70575295D02*
X95764285Y-70480057D01*
X95764285Y-70480057D02*
X95792857Y-70432438D01*
X95792857Y-70432438D02*
X95849999Y-70384819D01*
X96278571Y-70480057D02*
X96307143Y-70432438D01*
X96307143Y-70432438D02*
X96364286Y-70384819D01*
X96364286Y-70384819D02*
X96507143Y-70384819D01*
X96507143Y-70384819D02*
X96564286Y-70432438D01*
X96564286Y-70432438D02*
X96592857Y-70480057D01*
X96592857Y-70480057D02*
X96621428Y-70575295D01*
X96621428Y-70575295D02*
X96621428Y-70670533D01*
X96621428Y-70670533D02*
X96592857Y-70813390D01*
X96592857Y-70813390D02*
X96250000Y-71384819D01*
X96250000Y-71384819D02*
X96621428Y-71384819D01*
D13*
X107566947Y-53605024D02*
X107678223Y-53605024D01*
X107678223Y-53605024D02*
X107733861Y-53652643D01*
X107733861Y-53652643D02*
X107789499Y-53747881D01*
X107789499Y-53747881D02*
X107817318Y-53938357D01*
X107817318Y-53938357D02*
X107817318Y-54271690D01*
X107817318Y-54271690D02*
X107789499Y-54462166D01*
X107789499Y-54462166D02*
X107733861Y-54557405D01*
X107733861Y-54557405D02*
X107678223Y-54605024D01*
X107678223Y-54605024D02*
X107566947Y-54605024D01*
X107566947Y-54605024D02*
X107511309Y-54557405D01*
X107511309Y-54557405D02*
X107455671Y-54462166D01*
X107455671Y-54462166D02*
X107427852Y-54271690D01*
X107427852Y-54271690D02*
X107427852Y-53938357D01*
X107427852Y-53938357D02*
X107455671Y-53747881D01*
X107455671Y-53747881D02*
X107511309Y-53652643D01*
X107511309Y-53652643D02*
X107566947Y-53605024D01*
X108345880Y-54605024D02*
X108067690Y-54605024D01*
X108067690Y-54605024D02*
X108067690Y-53605024D01*
X108540614Y-54081214D02*
X108735347Y-54081214D01*
X108818804Y-54605024D02*
X108540614Y-54605024D01*
X108540614Y-54605024D02*
X108540614Y-53605024D01*
X108540614Y-53605024D02*
X108818804Y-53605024D01*
X109069176Y-54605024D02*
X109069176Y-53605024D01*
X109069176Y-53605024D02*
X109208271Y-53605024D01*
X109208271Y-53605024D02*
X109291728Y-53652643D01*
X109291728Y-53652643D02*
X109347366Y-53747881D01*
X109347366Y-53747881D02*
X109375185Y-53843119D01*
X109375185Y-53843119D02*
X109403004Y-54033595D01*
X109403004Y-54033595D02*
X109403004Y-54176452D01*
X109403004Y-54176452D02*
X109375185Y-54366928D01*
X109375185Y-54366928D02*
X109347366Y-54462166D01*
X109347366Y-54462166D02*
X109291728Y-54557405D01*
X109291728Y-54557405D02*
X109208271Y-54605024D01*
X109208271Y-54605024D02*
X109069176Y-54605024D01*
X109625557Y-53700262D02*
X109653376Y-53652643D01*
X109653376Y-53652643D02*
X109709014Y-53605024D01*
X109709014Y-53605024D02*
X109848109Y-53605024D01*
X109848109Y-53605024D02*
X109903747Y-53652643D01*
X109903747Y-53652643D02*
X109931566Y-53700262D01*
X109931566Y-53700262D02*
X109959385Y-53795500D01*
X109959385Y-53795500D02*
X109959385Y-53890738D01*
X109959385Y-53890738D02*
X109931566Y-54033595D01*
X109931566Y-54033595D02*
X109597738Y-54605024D01*
X109597738Y-54605024D02*
X109959385Y-54605024D01*
X110321033Y-53605024D02*
X110376671Y-53605024D01*
X110376671Y-53605024D02*
X110432309Y-53652643D01*
X110432309Y-53652643D02*
X110460128Y-53700262D01*
X110460128Y-53700262D02*
X110487947Y-53795500D01*
X110487947Y-53795500D02*
X110515766Y-53985976D01*
X110515766Y-53985976D02*
X110515766Y-54224071D01*
X110515766Y-54224071D02*
X110487947Y-54414547D01*
X110487947Y-54414547D02*
X110460128Y-54509785D01*
X110460128Y-54509785D02*
X110432309Y-54557405D01*
X110432309Y-54557405D02*
X110376671Y-54605024D01*
X110376671Y-54605024D02*
X110321033Y-54605024D01*
X110321033Y-54605024D02*
X110265395Y-54557405D01*
X110265395Y-54557405D02*
X110237576Y-54509785D01*
X110237576Y-54509785D02*
X110209757Y-54414547D01*
X110209757Y-54414547D02*
X110181938Y-54224071D01*
X110181938Y-54224071D02*
X110181938Y-53985976D01*
X110181938Y-53985976D02*
X110209757Y-53795500D01*
X110209757Y-53795500D02*
X110237576Y-53700262D01*
X110237576Y-53700262D02*
X110265395Y-53652643D01*
X110265395Y-53652643D02*
X110321033Y-53605024D01*
X111072147Y-54605024D02*
X110738319Y-54605024D01*
X110905233Y-54605024D02*
X110905233Y-53605024D01*
X110905233Y-53605024D02*
X110849595Y-53747881D01*
X110849595Y-53747881D02*
X110793957Y-53843119D01*
X110793957Y-53843119D02*
X110738319Y-53890738D01*
D14*
X112088244Y-67758716D02*
X110928244Y-67758716D01*
X111508244Y-67758716D02*
X111508244Y-65728716D01*
X111508244Y-65728716D02*
X111314911Y-66018716D01*
X111314911Y-66018716D02*
X111121578Y-66212050D01*
X111121578Y-66212050D02*
X110928244Y-66308716D01*
D12*
X112700000Y-30919009D02*
X112900000Y-30919009D01*
X112985714Y-31442819D02*
X112700000Y-31442819D01*
X112700000Y-31442819D02*
X112700000Y-30442819D01*
X112700000Y-30442819D02*
X112985714Y-30442819D01*
X113242857Y-31442819D02*
X113242857Y-30442819D01*
X113242857Y-30442819D02*
X113585714Y-31442819D01*
X113585714Y-31442819D02*
X113585714Y-30442819D01*
X114214285Y-31347580D02*
X114185713Y-31395200D01*
X114185713Y-31395200D02*
X114099999Y-31442819D01*
X114099999Y-31442819D02*
X114042856Y-31442819D01*
X114042856Y-31442819D02*
X113957142Y-31395200D01*
X113957142Y-31395200D02*
X113899999Y-31299961D01*
X113899999Y-31299961D02*
X113871428Y-31204723D01*
X113871428Y-31204723D02*
X113842856Y-31014247D01*
X113842856Y-31014247D02*
X113842856Y-30871390D01*
X113842856Y-30871390D02*
X113871428Y-30680914D01*
X113871428Y-30680914D02*
X113899999Y-30585676D01*
X113899999Y-30585676D02*
X113957142Y-30490438D01*
X113957142Y-30490438D02*
X114042856Y-30442819D01*
X114042856Y-30442819D02*
X114099999Y-30442819D01*
X114099999Y-30442819D02*
X114185713Y-30490438D01*
X114185713Y-30490438D02*
X114214285Y-30538057D01*
X114442856Y-30538057D02*
X114471428Y-30490438D01*
X114471428Y-30490438D02*
X114528571Y-30442819D01*
X114528571Y-30442819D02*
X114671428Y-30442819D01*
X114671428Y-30442819D02*
X114728571Y-30490438D01*
X114728571Y-30490438D02*
X114757142Y-30538057D01*
X114757142Y-30538057D02*
X114785713Y-30633295D01*
X114785713Y-30633295D02*
X114785713Y-30728533D01*
X114785713Y-30728533D02*
X114757142Y-30871390D01*
X114757142Y-30871390D02*
X114414285Y-31442819D01*
X114414285Y-31442819D02*
X114785713Y-31442819D01*
X115157142Y-30442819D02*
X115214285Y-30442819D01*
X115214285Y-30442819D02*
X115271428Y-30490438D01*
X115271428Y-30490438D02*
X115300000Y-30538057D01*
X115300000Y-30538057D02*
X115328571Y-30633295D01*
X115328571Y-30633295D02*
X115357142Y-30823771D01*
X115357142Y-30823771D02*
X115357142Y-31061866D01*
X115357142Y-31061866D02*
X115328571Y-31252342D01*
X115328571Y-31252342D02*
X115300000Y-31347580D01*
X115300000Y-31347580D02*
X115271428Y-31395200D01*
X115271428Y-31395200D02*
X115214285Y-31442819D01*
X115214285Y-31442819D02*
X115157142Y-31442819D01*
X115157142Y-31442819D02*
X115100000Y-31395200D01*
X115100000Y-31395200D02*
X115071428Y-31347580D01*
X115071428Y-31347580D02*
X115042857Y-31252342D01*
X115042857Y-31252342D02*
X115014285Y-31061866D01*
X115014285Y-31061866D02*
X115014285Y-30823771D01*
X115014285Y-30823771D02*
X115042857Y-30633295D01*
X115042857Y-30633295D02*
X115071428Y-30538057D01*
X115071428Y-30538057D02*
X115100000Y-30490438D01*
X115100000Y-30490438D02*
X115157142Y-30442819D01*
X115585714Y-30538057D02*
X115614286Y-30490438D01*
X115614286Y-30490438D02*
X115671429Y-30442819D01*
X115671429Y-30442819D02*
X115814286Y-30442819D01*
X115814286Y-30442819D02*
X115871429Y-30490438D01*
X115871429Y-30490438D02*
X115900000Y-30538057D01*
X115900000Y-30538057D02*
X115928571Y-30633295D01*
X115928571Y-30633295D02*
X115928571Y-30728533D01*
X115928571Y-30728533D02*
X115900000Y-30871390D01*
X115900000Y-30871390D02*
X115557143Y-31442819D01*
X115557143Y-31442819D02*
X115928571Y-31442819D01*
X131750000Y-31427009D02*
X131950000Y-31427009D01*
X132035714Y-31950819D02*
X131750000Y-31950819D01*
X131750000Y-31950819D02*
X131750000Y-30950819D01*
X131750000Y-30950819D02*
X132035714Y-30950819D01*
X132292857Y-31950819D02*
X132292857Y-30950819D01*
X132292857Y-30950819D02*
X132635714Y-31950819D01*
X132635714Y-31950819D02*
X132635714Y-30950819D01*
X133264285Y-31855580D02*
X133235713Y-31903200D01*
X133235713Y-31903200D02*
X133149999Y-31950819D01*
X133149999Y-31950819D02*
X133092856Y-31950819D01*
X133092856Y-31950819D02*
X133007142Y-31903200D01*
X133007142Y-31903200D02*
X132949999Y-31807961D01*
X132949999Y-31807961D02*
X132921428Y-31712723D01*
X132921428Y-31712723D02*
X132892856Y-31522247D01*
X132892856Y-31522247D02*
X132892856Y-31379390D01*
X132892856Y-31379390D02*
X132921428Y-31188914D01*
X132921428Y-31188914D02*
X132949999Y-31093676D01*
X132949999Y-31093676D02*
X133007142Y-30998438D01*
X133007142Y-30998438D02*
X133092856Y-30950819D01*
X133092856Y-30950819D02*
X133149999Y-30950819D01*
X133149999Y-30950819D02*
X133235713Y-30998438D01*
X133235713Y-30998438D02*
X133264285Y-31046057D01*
X133492856Y-31046057D02*
X133521428Y-30998438D01*
X133521428Y-30998438D02*
X133578571Y-30950819D01*
X133578571Y-30950819D02*
X133721428Y-30950819D01*
X133721428Y-30950819D02*
X133778571Y-30998438D01*
X133778571Y-30998438D02*
X133807142Y-31046057D01*
X133807142Y-31046057D02*
X133835713Y-31141295D01*
X133835713Y-31141295D02*
X133835713Y-31236533D01*
X133835713Y-31236533D02*
X133807142Y-31379390D01*
X133807142Y-31379390D02*
X133464285Y-31950819D01*
X133464285Y-31950819D02*
X133835713Y-31950819D01*
X134207142Y-30950819D02*
X134264285Y-30950819D01*
X134264285Y-30950819D02*
X134321428Y-30998438D01*
X134321428Y-30998438D02*
X134350000Y-31046057D01*
X134350000Y-31046057D02*
X134378571Y-31141295D01*
X134378571Y-31141295D02*
X134407142Y-31331771D01*
X134407142Y-31331771D02*
X134407142Y-31569866D01*
X134407142Y-31569866D02*
X134378571Y-31760342D01*
X134378571Y-31760342D02*
X134350000Y-31855580D01*
X134350000Y-31855580D02*
X134321428Y-31903200D01*
X134321428Y-31903200D02*
X134264285Y-31950819D01*
X134264285Y-31950819D02*
X134207142Y-31950819D01*
X134207142Y-31950819D02*
X134150000Y-31903200D01*
X134150000Y-31903200D02*
X134121428Y-31855580D01*
X134121428Y-31855580D02*
X134092857Y-31760342D01*
X134092857Y-31760342D02*
X134064285Y-31569866D01*
X134064285Y-31569866D02*
X134064285Y-31331771D01*
X134064285Y-31331771D02*
X134092857Y-31141295D01*
X134092857Y-31141295D02*
X134121428Y-31046057D01*
X134121428Y-31046057D02*
X134150000Y-30998438D01*
X134150000Y-30998438D02*
X134207142Y-30950819D01*
X134607143Y-30950819D02*
X134978571Y-30950819D01*
X134978571Y-30950819D02*
X134778571Y-31331771D01*
X134778571Y-31331771D02*
X134864286Y-31331771D01*
X134864286Y-31331771D02*
X134921429Y-31379390D01*
X134921429Y-31379390D02*
X134950000Y-31427009D01*
X134950000Y-31427009D02*
X134978571Y-31522247D01*
X134978571Y-31522247D02*
X134978571Y-31760342D01*
X134978571Y-31760342D02*
X134950000Y-31855580D01*
X134950000Y-31855580D02*
X134921429Y-31903200D01*
X134921429Y-31903200D02*
X134864286Y-31950819D01*
X134864286Y-31950819D02*
X134692857Y-31950819D01*
X134692857Y-31950819D02*
X134635714Y-31903200D01*
X134635714Y-31903200D02*
X134607143Y-31855580D01*
X144701419Y-90258771D02*
X143701419Y-90258771D01*
X144177609Y-90258771D02*
X144177609Y-89915914D01*
X144701419Y-89915914D02*
X143701419Y-89915914D01*
X144701419Y-89315915D02*
X144701419Y-89658772D01*
X144701419Y-89487343D02*
X143701419Y-89487343D01*
X143701419Y-89487343D02*
X143844276Y-89544486D01*
X143844276Y-89544486D02*
X143939514Y-89601629D01*
X143939514Y-89601629D02*
X143987133Y-89658772D01*
X143701419Y-88944486D02*
X143701419Y-88887343D01*
X143701419Y-88887343D02*
X143749038Y-88830200D01*
X143749038Y-88830200D02*
X143796657Y-88801629D01*
X143796657Y-88801629D02*
X143891895Y-88773057D01*
X143891895Y-88773057D02*
X144082371Y-88744486D01*
X144082371Y-88744486D02*
X144320466Y-88744486D01*
X144320466Y-88744486D02*
X144510942Y-88773057D01*
X144510942Y-88773057D02*
X144606180Y-88801629D01*
X144606180Y-88801629D02*
X144653800Y-88830200D01*
X144653800Y-88830200D02*
X144701419Y-88887343D01*
X144701419Y-88887343D02*
X144701419Y-88944486D01*
X144701419Y-88944486D02*
X144653800Y-89001629D01*
X144653800Y-89001629D02*
X144606180Y-89030200D01*
X144606180Y-89030200D02*
X144510942Y-89058771D01*
X144510942Y-89058771D02*
X144320466Y-89087343D01*
X144320466Y-89087343D02*
X144082371Y-89087343D01*
X144082371Y-89087343D02*
X143891895Y-89058771D01*
X143891895Y-89058771D02*
X143796657Y-89030200D01*
X143796657Y-89030200D02*
X143749038Y-89001629D01*
X143749038Y-89001629D02*
X143701419Y-88944486D01*
X144701419Y-88173057D02*
X144701419Y-88515914D01*
X144701419Y-88344485D02*
X143701419Y-88344485D01*
X143701419Y-88344485D02*
X143844276Y-88401628D01*
X143844276Y-88401628D02*
X143939514Y-88458771D01*
X143939514Y-88458771D02*
X143987133Y-88515914D01*
X93878570Y-109437200D02*
X93964285Y-109484819D01*
X93964285Y-109484819D02*
X94107142Y-109484819D01*
X94107142Y-109484819D02*
X94164285Y-109437200D01*
X94164285Y-109437200D02*
X94192856Y-109389580D01*
X94192856Y-109389580D02*
X94221427Y-109294342D01*
X94221427Y-109294342D02*
X94221427Y-109199104D01*
X94221427Y-109199104D02*
X94192856Y-109103866D01*
X94192856Y-109103866D02*
X94164285Y-109056247D01*
X94164285Y-109056247D02*
X94107142Y-109008628D01*
X94107142Y-109008628D02*
X93992856Y-108961009D01*
X93992856Y-108961009D02*
X93935713Y-108913390D01*
X93935713Y-108913390D02*
X93907142Y-108865771D01*
X93907142Y-108865771D02*
X93878570Y-108770533D01*
X93878570Y-108770533D02*
X93878570Y-108675295D01*
X93878570Y-108675295D02*
X93907142Y-108580057D01*
X93907142Y-108580057D02*
X93935713Y-108532438D01*
X93935713Y-108532438D02*
X93992856Y-108484819D01*
X93992856Y-108484819D02*
X94135713Y-108484819D01*
X94135713Y-108484819D02*
X94221427Y-108532438D01*
X94421428Y-108484819D02*
X94564285Y-109484819D01*
X94564285Y-109484819D02*
X94678571Y-108770533D01*
X94678571Y-108770533D02*
X94792856Y-109484819D01*
X94792856Y-109484819D02*
X94935714Y-108484819D01*
X95135713Y-108580057D02*
X95164285Y-108532438D01*
X95164285Y-108532438D02*
X95221428Y-108484819D01*
X95221428Y-108484819D02*
X95364285Y-108484819D01*
X95364285Y-108484819D02*
X95421428Y-108532438D01*
X95421428Y-108532438D02*
X95449999Y-108580057D01*
X95449999Y-108580057D02*
X95478570Y-108675295D01*
X95478570Y-108675295D02*
X95478570Y-108770533D01*
X95478570Y-108770533D02*
X95449999Y-108913390D01*
X95449999Y-108913390D02*
X95107142Y-109484819D01*
X95107142Y-109484819D02*
X95478570Y-109484819D01*
X95849999Y-108484819D02*
X95907142Y-108484819D01*
X95907142Y-108484819D02*
X95964285Y-108532438D01*
X95964285Y-108532438D02*
X95992857Y-108580057D01*
X95992857Y-108580057D02*
X96021428Y-108675295D01*
X96021428Y-108675295D02*
X96049999Y-108865771D01*
X96049999Y-108865771D02*
X96049999Y-109103866D01*
X96049999Y-109103866D02*
X96021428Y-109294342D01*
X96021428Y-109294342D02*
X95992857Y-109389580D01*
X95992857Y-109389580D02*
X95964285Y-109437200D01*
X95964285Y-109437200D02*
X95907142Y-109484819D01*
X95907142Y-109484819D02*
X95849999Y-109484819D01*
X95849999Y-109484819D02*
X95792857Y-109437200D01*
X95792857Y-109437200D02*
X95764285Y-109389580D01*
X95764285Y-109389580D02*
X95735714Y-109294342D01*
X95735714Y-109294342D02*
X95707142Y-109103866D01*
X95707142Y-109103866D02*
X95707142Y-108865771D01*
X95707142Y-108865771D02*
X95735714Y-108675295D01*
X95735714Y-108675295D02*
X95764285Y-108580057D01*
X95764285Y-108580057D02*
X95792857Y-108532438D01*
X95792857Y-108532438D02*
X95849999Y-108484819D01*
X96392857Y-108913390D02*
X96335714Y-108865771D01*
X96335714Y-108865771D02*
X96307143Y-108818152D01*
X96307143Y-108818152D02*
X96278571Y-108722914D01*
X96278571Y-108722914D02*
X96278571Y-108675295D01*
X96278571Y-108675295D02*
X96307143Y-108580057D01*
X96307143Y-108580057D02*
X96335714Y-108532438D01*
X96335714Y-108532438D02*
X96392857Y-108484819D01*
X96392857Y-108484819D02*
X96507143Y-108484819D01*
X96507143Y-108484819D02*
X96564286Y-108532438D01*
X96564286Y-108532438D02*
X96592857Y-108580057D01*
X96592857Y-108580057D02*
X96621428Y-108675295D01*
X96621428Y-108675295D02*
X96621428Y-108722914D01*
X96621428Y-108722914D02*
X96592857Y-108818152D01*
X96592857Y-108818152D02*
X96564286Y-108865771D01*
X96564286Y-108865771D02*
X96507143Y-108913390D01*
X96507143Y-108913390D02*
X96392857Y-108913390D01*
X96392857Y-108913390D02*
X96335714Y-108961009D01*
X96335714Y-108961009D02*
X96307143Y-109008628D01*
X96307143Y-109008628D02*
X96278571Y-109103866D01*
X96278571Y-109103866D02*
X96278571Y-109294342D01*
X96278571Y-109294342D02*
X96307143Y-109389580D01*
X96307143Y-109389580D02*
X96335714Y-109437200D01*
X96335714Y-109437200D02*
X96392857Y-109484819D01*
X96392857Y-109484819D02*
X96507143Y-109484819D01*
X96507143Y-109484819D02*
X96564286Y-109437200D01*
X96564286Y-109437200D02*
X96592857Y-109389580D01*
X96592857Y-109389580D02*
X96621428Y-109294342D01*
X96621428Y-109294342D02*
X96621428Y-109103866D01*
X96621428Y-109103866D02*
X96592857Y-109008628D01*
X96592857Y-109008628D02*
X96564286Y-108961009D01*
X96564286Y-108961009D02*
X96507143Y-108913390D01*
X144221428Y-23904819D02*
X144221428Y-22904819D01*
X144221428Y-23381009D02*
X144564285Y-23381009D01*
X144564285Y-23904819D02*
X144564285Y-22904819D01*
X144821427Y-23000057D02*
X144849999Y-22952438D01*
X144849999Y-22952438D02*
X144907142Y-22904819D01*
X144907142Y-22904819D02*
X145049999Y-22904819D01*
X145049999Y-22904819D02*
X145107142Y-22952438D01*
X145107142Y-22952438D02*
X145135713Y-23000057D01*
X145135713Y-23000057D02*
X145164284Y-23095295D01*
X145164284Y-23095295D02*
X145164284Y-23190533D01*
X145164284Y-23190533D02*
X145135713Y-23333390D01*
X145135713Y-23333390D02*
X144792856Y-23904819D01*
X144792856Y-23904819D02*
X145164284Y-23904819D01*
X145535713Y-22904819D02*
X145592856Y-22904819D01*
X145592856Y-22904819D02*
X145649999Y-22952438D01*
X145649999Y-22952438D02*
X145678571Y-23000057D01*
X145678571Y-23000057D02*
X145707142Y-23095295D01*
X145707142Y-23095295D02*
X145735713Y-23285771D01*
X145735713Y-23285771D02*
X145735713Y-23523866D01*
X145735713Y-23523866D02*
X145707142Y-23714342D01*
X145707142Y-23714342D02*
X145678571Y-23809580D01*
X145678571Y-23809580D02*
X145649999Y-23857200D01*
X145649999Y-23857200D02*
X145592856Y-23904819D01*
X145592856Y-23904819D02*
X145535713Y-23904819D01*
X145535713Y-23904819D02*
X145478571Y-23857200D01*
X145478571Y-23857200D02*
X145449999Y-23809580D01*
X145449999Y-23809580D02*
X145421428Y-23714342D01*
X145421428Y-23714342D02*
X145392856Y-23523866D01*
X145392856Y-23523866D02*
X145392856Y-23285771D01*
X145392856Y-23285771D02*
X145421428Y-23095295D01*
X145421428Y-23095295D02*
X145449999Y-23000057D01*
X145449999Y-23000057D02*
X145478571Y-22952438D01*
X145478571Y-22952438D02*
X145535713Y-22904819D01*
X145964285Y-23000057D02*
X145992857Y-22952438D01*
X145992857Y-22952438D02*
X146050000Y-22904819D01*
X146050000Y-22904819D02*
X146192857Y-22904819D01*
X146192857Y-22904819D02*
X146250000Y-22952438D01*
X146250000Y-22952438D02*
X146278571Y-23000057D01*
X146278571Y-23000057D02*
X146307142Y-23095295D01*
X146307142Y-23095295D02*
X146307142Y-23190533D01*
X146307142Y-23190533D02*
X146278571Y-23333390D01*
X146278571Y-23333390D02*
X145935714Y-23904819D01*
X145935714Y-23904819D02*
X146307142Y-23904819D01*
X82221428Y-23904819D02*
X82221428Y-22904819D01*
X82221428Y-23381009D02*
X82564285Y-23381009D01*
X82564285Y-23904819D02*
X82564285Y-22904819D01*
X82821427Y-23000057D02*
X82849999Y-22952438D01*
X82849999Y-22952438D02*
X82907142Y-22904819D01*
X82907142Y-22904819D02*
X83049999Y-22904819D01*
X83049999Y-22904819D02*
X83107142Y-22952438D01*
X83107142Y-22952438D02*
X83135713Y-23000057D01*
X83135713Y-23000057D02*
X83164284Y-23095295D01*
X83164284Y-23095295D02*
X83164284Y-23190533D01*
X83164284Y-23190533D02*
X83135713Y-23333390D01*
X83135713Y-23333390D02*
X82792856Y-23904819D01*
X82792856Y-23904819D02*
X83164284Y-23904819D01*
X83535713Y-22904819D02*
X83592856Y-22904819D01*
X83592856Y-22904819D02*
X83649999Y-22952438D01*
X83649999Y-22952438D02*
X83678571Y-23000057D01*
X83678571Y-23000057D02*
X83707142Y-23095295D01*
X83707142Y-23095295D02*
X83735713Y-23285771D01*
X83735713Y-23285771D02*
X83735713Y-23523866D01*
X83735713Y-23523866D02*
X83707142Y-23714342D01*
X83707142Y-23714342D02*
X83678571Y-23809580D01*
X83678571Y-23809580D02*
X83649999Y-23857200D01*
X83649999Y-23857200D02*
X83592856Y-23904819D01*
X83592856Y-23904819D02*
X83535713Y-23904819D01*
X83535713Y-23904819D02*
X83478571Y-23857200D01*
X83478571Y-23857200D02*
X83449999Y-23809580D01*
X83449999Y-23809580D02*
X83421428Y-23714342D01*
X83421428Y-23714342D02*
X83392856Y-23523866D01*
X83392856Y-23523866D02*
X83392856Y-23285771D01*
X83392856Y-23285771D02*
X83421428Y-23095295D01*
X83421428Y-23095295D02*
X83449999Y-23000057D01*
X83449999Y-23000057D02*
X83478571Y-22952438D01*
X83478571Y-22952438D02*
X83535713Y-22904819D01*
X84307142Y-23904819D02*
X83964285Y-23904819D01*
X84135714Y-23904819D02*
X84135714Y-22904819D01*
X84135714Y-22904819D02*
X84078571Y-23047676D01*
X84078571Y-23047676D02*
X84021428Y-23142914D01*
X84021428Y-23142914D02*
X83964285Y-23190533D01*
X112928570Y-71337200D02*
X113014285Y-71384819D01*
X113014285Y-71384819D02*
X113157142Y-71384819D01*
X113157142Y-71384819D02*
X113214285Y-71337200D01*
X113214285Y-71337200D02*
X113242856Y-71289580D01*
X113242856Y-71289580D02*
X113271427Y-71194342D01*
X113271427Y-71194342D02*
X113271427Y-71099104D01*
X113271427Y-71099104D02*
X113242856Y-71003866D01*
X113242856Y-71003866D02*
X113214285Y-70956247D01*
X113214285Y-70956247D02*
X113157142Y-70908628D01*
X113157142Y-70908628D02*
X113042856Y-70861009D01*
X113042856Y-70861009D02*
X112985713Y-70813390D01*
X112985713Y-70813390D02*
X112957142Y-70765771D01*
X112957142Y-70765771D02*
X112928570Y-70670533D01*
X112928570Y-70670533D02*
X112928570Y-70575295D01*
X112928570Y-70575295D02*
X112957142Y-70480057D01*
X112957142Y-70480057D02*
X112985713Y-70432438D01*
X112985713Y-70432438D02*
X113042856Y-70384819D01*
X113042856Y-70384819D02*
X113185713Y-70384819D01*
X113185713Y-70384819D02*
X113271427Y-70432438D01*
X113471428Y-70384819D02*
X113614285Y-71384819D01*
X113614285Y-71384819D02*
X113728571Y-70670533D01*
X113728571Y-70670533D02*
X113842856Y-71384819D01*
X113842856Y-71384819D02*
X113985714Y-70384819D01*
X114185713Y-70480057D02*
X114214285Y-70432438D01*
X114214285Y-70432438D02*
X114271428Y-70384819D01*
X114271428Y-70384819D02*
X114414285Y-70384819D01*
X114414285Y-70384819D02*
X114471428Y-70432438D01*
X114471428Y-70432438D02*
X114499999Y-70480057D01*
X114499999Y-70480057D02*
X114528570Y-70575295D01*
X114528570Y-70575295D02*
X114528570Y-70670533D01*
X114528570Y-70670533D02*
X114499999Y-70813390D01*
X114499999Y-70813390D02*
X114157142Y-71384819D01*
X114157142Y-71384819D02*
X114528570Y-71384819D01*
X114899999Y-70384819D02*
X114957142Y-70384819D01*
X114957142Y-70384819D02*
X115014285Y-70432438D01*
X115014285Y-70432438D02*
X115042857Y-70480057D01*
X115042857Y-70480057D02*
X115071428Y-70575295D01*
X115071428Y-70575295D02*
X115099999Y-70765771D01*
X115099999Y-70765771D02*
X115099999Y-71003866D01*
X115099999Y-71003866D02*
X115071428Y-71194342D01*
X115071428Y-71194342D02*
X115042857Y-71289580D01*
X115042857Y-71289580D02*
X115014285Y-71337200D01*
X115014285Y-71337200D02*
X114957142Y-71384819D01*
X114957142Y-71384819D02*
X114899999Y-71384819D01*
X114899999Y-71384819D02*
X114842857Y-71337200D01*
X114842857Y-71337200D02*
X114814285Y-71289580D01*
X114814285Y-71289580D02*
X114785714Y-71194342D01*
X114785714Y-71194342D02*
X114757142Y-71003866D01*
X114757142Y-71003866D02*
X114757142Y-70765771D01*
X114757142Y-70765771D02*
X114785714Y-70575295D01*
X114785714Y-70575295D02*
X114814285Y-70480057D01*
X114814285Y-70480057D02*
X114842857Y-70432438D01*
X114842857Y-70432438D02*
X114899999Y-70384819D01*
X115300000Y-70384819D02*
X115671428Y-70384819D01*
X115671428Y-70384819D02*
X115471428Y-70765771D01*
X115471428Y-70765771D02*
X115557143Y-70765771D01*
X115557143Y-70765771D02*
X115614286Y-70813390D01*
X115614286Y-70813390D02*
X115642857Y-70861009D01*
X115642857Y-70861009D02*
X115671428Y-70956247D01*
X115671428Y-70956247D02*
X115671428Y-71194342D01*
X115671428Y-71194342D02*
X115642857Y-71289580D01*
X115642857Y-71289580D02*
X115614286Y-71337200D01*
X115614286Y-71337200D02*
X115557143Y-71384819D01*
X115557143Y-71384819D02*
X115385714Y-71384819D01*
X115385714Y-71384819D02*
X115328571Y-71337200D01*
X115328571Y-71337200D02*
X115300000Y-71289580D01*
X93878570Y-90387200D02*
X93964285Y-90434819D01*
X93964285Y-90434819D02*
X94107142Y-90434819D01*
X94107142Y-90434819D02*
X94164285Y-90387200D01*
X94164285Y-90387200D02*
X94192856Y-90339580D01*
X94192856Y-90339580D02*
X94221427Y-90244342D01*
X94221427Y-90244342D02*
X94221427Y-90149104D01*
X94221427Y-90149104D02*
X94192856Y-90053866D01*
X94192856Y-90053866D02*
X94164285Y-90006247D01*
X94164285Y-90006247D02*
X94107142Y-89958628D01*
X94107142Y-89958628D02*
X93992856Y-89911009D01*
X93992856Y-89911009D02*
X93935713Y-89863390D01*
X93935713Y-89863390D02*
X93907142Y-89815771D01*
X93907142Y-89815771D02*
X93878570Y-89720533D01*
X93878570Y-89720533D02*
X93878570Y-89625295D01*
X93878570Y-89625295D02*
X93907142Y-89530057D01*
X93907142Y-89530057D02*
X93935713Y-89482438D01*
X93935713Y-89482438D02*
X93992856Y-89434819D01*
X93992856Y-89434819D02*
X94135713Y-89434819D01*
X94135713Y-89434819D02*
X94221427Y-89482438D01*
X94421428Y-89434819D02*
X94564285Y-90434819D01*
X94564285Y-90434819D02*
X94678571Y-89720533D01*
X94678571Y-89720533D02*
X94792856Y-90434819D01*
X94792856Y-90434819D02*
X94935714Y-89434819D01*
X95135713Y-89530057D02*
X95164285Y-89482438D01*
X95164285Y-89482438D02*
X95221428Y-89434819D01*
X95221428Y-89434819D02*
X95364285Y-89434819D01*
X95364285Y-89434819D02*
X95421428Y-89482438D01*
X95421428Y-89482438D02*
X95449999Y-89530057D01*
X95449999Y-89530057D02*
X95478570Y-89625295D01*
X95478570Y-89625295D02*
X95478570Y-89720533D01*
X95478570Y-89720533D02*
X95449999Y-89863390D01*
X95449999Y-89863390D02*
X95107142Y-90434819D01*
X95107142Y-90434819D02*
X95478570Y-90434819D01*
X95849999Y-89434819D02*
X95907142Y-89434819D01*
X95907142Y-89434819D02*
X95964285Y-89482438D01*
X95964285Y-89482438D02*
X95992857Y-89530057D01*
X95992857Y-89530057D02*
X96021428Y-89625295D01*
X96021428Y-89625295D02*
X96049999Y-89815771D01*
X96049999Y-89815771D02*
X96049999Y-90053866D01*
X96049999Y-90053866D02*
X96021428Y-90244342D01*
X96021428Y-90244342D02*
X95992857Y-90339580D01*
X95992857Y-90339580D02*
X95964285Y-90387200D01*
X95964285Y-90387200D02*
X95907142Y-90434819D01*
X95907142Y-90434819D02*
X95849999Y-90434819D01*
X95849999Y-90434819D02*
X95792857Y-90387200D01*
X95792857Y-90387200D02*
X95764285Y-90339580D01*
X95764285Y-90339580D02*
X95735714Y-90244342D01*
X95735714Y-90244342D02*
X95707142Y-90053866D01*
X95707142Y-90053866D02*
X95707142Y-89815771D01*
X95707142Y-89815771D02*
X95735714Y-89625295D01*
X95735714Y-89625295D02*
X95764285Y-89530057D01*
X95764285Y-89530057D02*
X95792857Y-89482438D01*
X95792857Y-89482438D02*
X95849999Y-89434819D01*
X96592857Y-89434819D02*
X96307143Y-89434819D01*
X96307143Y-89434819D02*
X96278571Y-89911009D01*
X96278571Y-89911009D02*
X96307143Y-89863390D01*
X96307143Y-89863390D02*
X96364286Y-89815771D01*
X96364286Y-89815771D02*
X96507143Y-89815771D01*
X96507143Y-89815771D02*
X96564286Y-89863390D01*
X96564286Y-89863390D02*
X96592857Y-89911009D01*
X96592857Y-89911009D02*
X96621428Y-90006247D01*
X96621428Y-90006247D02*
X96621428Y-90244342D01*
X96621428Y-90244342D02*
X96592857Y-90339580D01*
X96592857Y-90339580D02*
X96564286Y-90387200D01*
X96564286Y-90387200D02*
X96507143Y-90434819D01*
X96507143Y-90434819D02*
X96364286Y-90434819D01*
X96364286Y-90434819D02*
X96307143Y-90387200D01*
X96307143Y-90387200D02*
X96278571Y-90339580D01*
X112928570Y-109437200D02*
X113014285Y-109484819D01*
X113014285Y-109484819D02*
X113157142Y-109484819D01*
X113157142Y-109484819D02*
X113214285Y-109437200D01*
X113214285Y-109437200D02*
X113242856Y-109389580D01*
X113242856Y-109389580D02*
X113271427Y-109294342D01*
X113271427Y-109294342D02*
X113271427Y-109199104D01*
X113271427Y-109199104D02*
X113242856Y-109103866D01*
X113242856Y-109103866D02*
X113214285Y-109056247D01*
X113214285Y-109056247D02*
X113157142Y-109008628D01*
X113157142Y-109008628D02*
X113042856Y-108961009D01*
X113042856Y-108961009D02*
X112985713Y-108913390D01*
X112985713Y-108913390D02*
X112957142Y-108865771D01*
X112957142Y-108865771D02*
X112928570Y-108770533D01*
X112928570Y-108770533D02*
X112928570Y-108675295D01*
X112928570Y-108675295D02*
X112957142Y-108580057D01*
X112957142Y-108580057D02*
X112985713Y-108532438D01*
X112985713Y-108532438D02*
X113042856Y-108484819D01*
X113042856Y-108484819D02*
X113185713Y-108484819D01*
X113185713Y-108484819D02*
X113271427Y-108532438D01*
X113471428Y-108484819D02*
X113614285Y-109484819D01*
X113614285Y-109484819D02*
X113728571Y-108770533D01*
X113728571Y-108770533D02*
X113842856Y-109484819D01*
X113842856Y-109484819D02*
X113985714Y-108484819D01*
X114185713Y-108580057D02*
X114214285Y-108532438D01*
X114214285Y-108532438D02*
X114271428Y-108484819D01*
X114271428Y-108484819D02*
X114414285Y-108484819D01*
X114414285Y-108484819D02*
X114471428Y-108532438D01*
X114471428Y-108532438D02*
X114499999Y-108580057D01*
X114499999Y-108580057D02*
X114528570Y-108675295D01*
X114528570Y-108675295D02*
X114528570Y-108770533D01*
X114528570Y-108770533D02*
X114499999Y-108913390D01*
X114499999Y-108913390D02*
X114157142Y-109484819D01*
X114157142Y-109484819D02*
X114528570Y-109484819D01*
X114899999Y-108484819D02*
X114957142Y-108484819D01*
X114957142Y-108484819D02*
X115014285Y-108532438D01*
X115014285Y-108532438D02*
X115042857Y-108580057D01*
X115042857Y-108580057D02*
X115071428Y-108675295D01*
X115071428Y-108675295D02*
X115099999Y-108865771D01*
X115099999Y-108865771D02*
X115099999Y-109103866D01*
X115099999Y-109103866D02*
X115071428Y-109294342D01*
X115071428Y-109294342D02*
X115042857Y-109389580D01*
X115042857Y-109389580D02*
X115014285Y-109437200D01*
X115014285Y-109437200D02*
X114957142Y-109484819D01*
X114957142Y-109484819D02*
X114899999Y-109484819D01*
X114899999Y-109484819D02*
X114842857Y-109437200D01*
X114842857Y-109437200D02*
X114814285Y-109389580D01*
X114814285Y-109389580D02*
X114785714Y-109294342D01*
X114785714Y-109294342D02*
X114757142Y-109103866D01*
X114757142Y-109103866D02*
X114757142Y-108865771D01*
X114757142Y-108865771D02*
X114785714Y-108675295D01*
X114785714Y-108675295D02*
X114814285Y-108580057D01*
X114814285Y-108580057D02*
X114842857Y-108532438D01*
X114842857Y-108532438D02*
X114899999Y-108484819D01*
X115385714Y-109484819D02*
X115500000Y-109484819D01*
X115500000Y-109484819D02*
X115557143Y-109437200D01*
X115557143Y-109437200D02*
X115585714Y-109389580D01*
X115585714Y-109389580D02*
X115642857Y-109246723D01*
X115642857Y-109246723D02*
X115671428Y-109056247D01*
X115671428Y-109056247D02*
X115671428Y-108675295D01*
X115671428Y-108675295D02*
X115642857Y-108580057D01*
X115642857Y-108580057D02*
X115614286Y-108532438D01*
X115614286Y-108532438D02*
X115557143Y-108484819D01*
X115557143Y-108484819D02*
X115442857Y-108484819D01*
X115442857Y-108484819D02*
X115385714Y-108532438D01*
X115385714Y-108532438D02*
X115357143Y-108580057D01*
X115357143Y-108580057D02*
X115328571Y-108675295D01*
X115328571Y-108675295D02*
X115328571Y-108913390D01*
X115328571Y-108913390D02*
X115357143Y-109008628D01*
X115357143Y-109008628D02*
X115385714Y-109056247D01*
X115385714Y-109056247D02*
X115442857Y-109103866D01*
X115442857Y-109103866D02*
X115557143Y-109103866D01*
X115557143Y-109103866D02*
X115614286Y-109056247D01*
X115614286Y-109056247D02*
X115642857Y-109008628D01*
X115642857Y-109008628D02*
X115671428Y-108913390D01*
X144221428Y-123904819D02*
X144221428Y-122904819D01*
X144221428Y-123381009D02*
X144564285Y-123381009D01*
X144564285Y-123904819D02*
X144564285Y-122904819D01*
X144821427Y-123000057D02*
X144849999Y-122952438D01*
X144849999Y-122952438D02*
X144907142Y-122904819D01*
X144907142Y-122904819D02*
X145049999Y-122904819D01*
X145049999Y-122904819D02*
X145107142Y-122952438D01*
X145107142Y-122952438D02*
X145135713Y-123000057D01*
X145135713Y-123000057D02*
X145164284Y-123095295D01*
X145164284Y-123095295D02*
X145164284Y-123190533D01*
X145164284Y-123190533D02*
X145135713Y-123333390D01*
X145135713Y-123333390D02*
X144792856Y-123904819D01*
X144792856Y-123904819D02*
X145164284Y-123904819D01*
X145535713Y-122904819D02*
X145592856Y-122904819D01*
X145592856Y-122904819D02*
X145649999Y-122952438D01*
X145649999Y-122952438D02*
X145678571Y-123000057D01*
X145678571Y-123000057D02*
X145707142Y-123095295D01*
X145707142Y-123095295D02*
X145735713Y-123285771D01*
X145735713Y-123285771D02*
X145735713Y-123523866D01*
X145735713Y-123523866D02*
X145707142Y-123714342D01*
X145707142Y-123714342D02*
X145678571Y-123809580D01*
X145678571Y-123809580D02*
X145649999Y-123857200D01*
X145649999Y-123857200D02*
X145592856Y-123904819D01*
X145592856Y-123904819D02*
X145535713Y-123904819D01*
X145535713Y-123904819D02*
X145478571Y-123857200D01*
X145478571Y-123857200D02*
X145449999Y-123809580D01*
X145449999Y-123809580D02*
X145421428Y-123714342D01*
X145421428Y-123714342D02*
X145392856Y-123523866D01*
X145392856Y-123523866D02*
X145392856Y-123285771D01*
X145392856Y-123285771D02*
X145421428Y-123095295D01*
X145421428Y-123095295D02*
X145449999Y-123000057D01*
X145449999Y-123000057D02*
X145478571Y-122952438D01*
X145478571Y-122952438D02*
X145535713Y-122904819D01*
X146250000Y-123238152D02*
X146250000Y-123904819D01*
X146107142Y-122857200D02*
X145964285Y-123571485D01*
X145964285Y-123571485D02*
X146335714Y-123571485D01*
X104975819Y-27912857D02*
X104975819Y-28198571D01*
X104975819Y-28198571D02*
X103975819Y-28198571D01*
X104452009Y-27712857D02*
X104452009Y-27512857D01*
X104975819Y-27427143D02*
X104975819Y-27712857D01*
X104975819Y-27712857D02*
X103975819Y-27712857D01*
X103975819Y-27712857D02*
X103975819Y-27427143D01*
X104975819Y-27170000D02*
X103975819Y-27170000D01*
X103975819Y-27170000D02*
X103975819Y-27027143D01*
X103975819Y-27027143D02*
X104023438Y-26941429D01*
X104023438Y-26941429D02*
X104118676Y-26884286D01*
X104118676Y-26884286D02*
X104213914Y-26855715D01*
X104213914Y-26855715D02*
X104404390Y-26827143D01*
X104404390Y-26827143D02*
X104547247Y-26827143D01*
X104547247Y-26827143D02*
X104737723Y-26855715D01*
X104737723Y-26855715D02*
X104832961Y-26884286D01*
X104832961Y-26884286D02*
X104928200Y-26941429D01*
X104928200Y-26941429D02*
X104975819Y-27027143D01*
X104975819Y-27027143D02*
X104975819Y-27170000D01*
X104975819Y-26255715D02*
X104975819Y-26598572D01*
X104975819Y-26427143D02*
X103975819Y-26427143D01*
X103975819Y-26427143D02*
X104118676Y-26484286D01*
X104118676Y-26484286D02*
X104213914Y-26541429D01*
X104213914Y-26541429D02*
X104261533Y-26598572D01*
X103975819Y-25884286D02*
X103975819Y-25827143D01*
X103975819Y-25827143D02*
X104023438Y-25770000D01*
X104023438Y-25770000D02*
X104071057Y-25741429D01*
X104071057Y-25741429D02*
X104166295Y-25712857D01*
X104166295Y-25712857D02*
X104356771Y-25684286D01*
X104356771Y-25684286D02*
X104594866Y-25684286D01*
X104594866Y-25684286D02*
X104785342Y-25712857D01*
X104785342Y-25712857D02*
X104880580Y-25741429D01*
X104880580Y-25741429D02*
X104928200Y-25770000D01*
X104928200Y-25770000D02*
X104975819Y-25827143D01*
X104975819Y-25827143D02*
X104975819Y-25884286D01*
X104975819Y-25884286D02*
X104928200Y-25941429D01*
X104928200Y-25941429D02*
X104880580Y-25970000D01*
X104880580Y-25970000D02*
X104785342Y-25998571D01*
X104785342Y-25998571D02*
X104594866Y-26027143D01*
X104594866Y-26027143D02*
X104356771Y-26027143D01*
X104356771Y-26027143D02*
X104166295Y-25998571D01*
X104166295Y-25998571D02*
X104071057Y-25970000D01*
X104071057Y-25970000D02*
X104023438Y-25941429D01*
X104023438Y-25941429D02*
X103975819Y-25884286D01*
X104975819Y-25112857D02*
X104975819Y-25455714D01*
X104975819Y-25284285D02*
X103975819Y-25284285D01*
X103975819Y-25284285D02*
X104118676Y-25341428D01*
X104118676Y-25341428D02*
X104213914Y-25398571D01*
X104213914Y-25398571D02*
X104261533Y-25455714D01*
X112928570Y-90387200D02*
X113014285Y-90434819D01*
X113014285Y-90434819D02*
X113157142Y-90434819D01*
X113157142Y-90434819D02*
X113214285Y-90387200D01*
X113214285Y-90387200D02*
X113242856Y-90339580D01*
X113242856Y-90339580D02*
X113271427Y-90244342D01*
X113271427Y-90244342D02*
X113271427Y-90149104D01*
X113271427Y-90149104D02*
X113242856Y-90053866D01*
X113242856Y-90053866D02*
X113214285Y-90006247D01*
X113214285Y-90006247D02*
X113157142Y-89958628D01*
X113157142Y-89958628D02*
X113042856Y-89911009D01*
X113042856Y-89911009D02*
X112985713Y-89863390D01*
X112985713Y-89863390D02*
X112957142Y-89815771D01*
X112957142Y-89815771D02*
X112928570Y-89720533D01*
X112928570Y-89720533D02*
X112928570Y-89625295D01*
X112928570Y-89625295D02*
X112957142Y-89530057D01*
X112957142Y-89530057D02*
X112985713Y-89482438D01*
X112985713Y-89482438D02*
X113042856Y-89434819D01*
X113042856Y-89434819D02*
X113185713Y-89434819D01*
X113185713Y-89434819D02*
X113271427Y-89482438D01*
X113471428Y-89434819D02*
X113614285Y-90434819D01*
X113614285Y-90434819D02*
X113728571Y-89720533D01*
X113728571Y-89720533D02*
X113842856Y-90434819D01*
X113842856Y-90434819D02*
X113985714Y-89434819D01*
X114185713Y-89530057D02*
X114214285Y-89482438D01*
X114214285Y-89482438D02*
X114271428Y-89434819D01*
X114271428Y-89434819D02*
X114414285Y-89434819D01*
X114414285Y-89434819D02*
X114471428Y-89482438D01*
X114471428Y-89482438D02*
X114499999Y-89530057D01*
X114499999Y-89530057D02*
X114528570Y-89625295D01*
X114528570Y-89625295D02*
X114528570Y-89720533D01*
X114528570Y-89720533D02*
X114499999Y-89863390D01*
X114499999Y-89863390D02*
X114157142Y-90434819D01*
X114157142Y-90434819D02*
X114528570Y-90434819D01*
X114899999Y-89434819D02*
X114957142Y-89434819D01*
X114957142Y-89434819D02*
X115014285Y-89482438D01*
X115014285Y-89482438D02*
X115042857Y-89530057D01*
X115042857Y-89530057D02*
X115071428Y-89625295D01*
X115071428Y-89625295D02*
X115099999Y-89815771D01*
X115099999Y-89815771D02*
X115099999Y-90053866D01*
X115099999Y-90053866D02*
X115071428Y-90244342D01*
X115071428Y-90244342D02*
X115042857Y-90339580D01*
X115042857Y-90339580D02*
X115014285Y-90387200D01*
X115014285Y-90387200D02*
X114957142Y-90434819D01*
X114957142Y-90434819D02*
X114899999Y-90434819D01*
X114899999Y-90434819D02*
X114842857Y-90387200D01*
X114842857Y-90387200D02*
X114814285Y-90339580D01*
X114814285Y-90339580D02*
X114785714Y-90244342D01*
X114785714Y-90244342D02*
X114757142Y-90053866D01*
X114757142Y-90053866D02*
X114757142Y-89815771D01*
X114757142Y-89815771D02*
X114785714Y-89625295D01*
X114785714Y-89625295D02*
X114814285Y-89530057D01*
X114814285Y-89530057D02*
X114842857Y-89482438D01*
X114842857Y-89482438D02*
X114899999Y-89434819D01*
X115614286Y-89434819D02*
X115500000Y-89434819D01*
X115500000Y-89434819D02*
X115442857Y-89482438D01*
X115442857Y-89482438D02*
X115414286Y-89530057D01*
X115414286Y-89530057D02*
X115357143Y-89672914D01*
X115357143Y-89672914D02*
X115328571Y-89863390D01*
X115328571Y-89863390D02*
X115328571Y-90244342D01*
X115328571Y-90244342D02*
X115357143Y-90339580D01*
X115357143Y-90339580D02*
X115385714Y-90387200D01*
X115385714Y-90387200D02*
X115442857Y-90434819D01*
X115442857Y-90434819D02*
X115557143Y-90434819D01*
X115557143Y-90434819D02*
X115614286Y-90387200D01*
X115614286Y-90387200D02*
X115642857Y-90339580D01*
X115642857Y-90339580D02*
X115671428Y-90244342D01*
X115671428Y-90244342D02*
X115671428Y-90006247D01*
X115671428Y-90006247D02*
X115642857Y-89911009D01*
X115642857Y-89911009D02*
X115614286Y-89863390D01*
X115614286Y-89863390D02*
X115557143Y-89815771D01*
X115557143Y-89815771D02*
X115442857Y-89815771D01*
X115442857Y-89815771D02*
X115385714Y-89863390D01*
X115385714Y-89863390D02*
X115357143Y-89911009D01*
X115357143Y-89911009D02*
X115328571Y-90006247D01*
X93878570Y-52287200D02*
X93964285Y-52334819D01*
X93964285Y-52334819D02*
X94107142Y-52334819D01*
X94107142Y-52334819D02*
X94164285Y-52287200D01*
X94164285Y-52287200D02*
X94192856Y-52239580D01*
X94192856Y-52239580D02*
X94221427Y-52144342D01*
X94221427Y-52144342D02*
X94221427Y-52049104D01*
X94221427Y-52049104D02*
X94192856Y-51953866D01*
X94192856Y-51953866D02*
X94164285Y-51906247D01*
X94164285Y-51906247D02*
X94107142Y-51858628D01*
X94107142Y-51858628D02*
X93992856Y-51811009D01*
X93992856Y-51811009D02*
X93935713Y-51763390D01*
X93935713Y-51763390D02*
X93907142Y-51715771D01*
X93907142Y-51715771D02*
X93878570Y-51620533D01*
X93878570Y-51620533D02*
X93878570Y-51525295D01*
X93878570Y-51525295D02*
X93907142Y-51430057D01*
X93907142Y-51430057D02*
X93935713Y-51382438D01*
X93935713Y-51382438D02*
X93992856Y-51334819D01*
X93992856Y-51334819D02*
X94135713Y-51334819D01*
X94135713Y-51334819D02*
X94221427Y-51382438D01*
X94421428Y-51334819D02*
X94564285Y-52334819D01*
X94564285Y-52334819D02*
X94678571Y-51620533D01*
X94678571Y-51620533D02*
X94792856Y-52334819D01*
X94792856Y-52334819D02*
X94935714Y-51334819D01*
X95135713Y-51430057D02*
X95164285Y-51382438D01*
X95164285Y-51382438D02*
X95221428Y-51334819D01*
X95221428Y-51334819D02*
X95364285Y-51334819D01*
X95364285Y-51334819D02*
X95421428Y-51382438D01*
X95421428Y-51382438D02*
X95449999Y-51430057D01*
X95449999Y-51430057D02*
X95478570Y-51525295D01*
X95478570Y-51525295D02*
X95478570Y-51620533D01*
X95478570Y-51620533D02*
X95449999Y-51763390D01*
X95449999Y-51763390D02*
X95107142Y-52334819D01*
X95107142Y-52334819D02*
X95478570Y-52334819D01*
X95849999Y-51334819D02*
X95907142Y-51334819D01*
X95907142Y-51334819D02*
X95964285Y-51382438D01*
X95964285Y-51382438D02*
X95992857Y-51430057D01*
X95992857Y-51430057D02*
X96021428Y-51525295D01*
X96021428Y-51525295D02*
X96049999Y-51715771D01*
X96049999Y-51715771D02*
X96049999Y-51953866D01*
X96049999Y-51953866D02*
X96021428Y-52144342D01*
X96021428Y-52144342D02*
X95992857Y-52239580D01*
X95992857Y-52239580D02*
X95964285Y-52287200D01*
X95964285Y-52287200D02*
X95907142Y-52334819D01*
X95907142Y-52334819D02*
X95849999Y-52334819D01*
X95849999Y-52334819D02*
X95792857Y-52287200D01*
X95792857Y-52287200D02*
X95764285Y-52239580D01*
X95764285Y-52239580D02*
X95735714Y-52144342D01*
X95735714Y-52144342D02*
X95707142Y-51953866D01*
X95707142Y-51953866D02*
X95707142Y-51715771D01*
X95707142Y-51715771D02*
X95735714Y-51525295D01*
X95735714Y-51525295D02*
X95764285Y-51430057D01*
X95764285Y-51430057D02*
X95792857Y-51382438D01*
X95792857Y-51382438D02*
X95849999Y-51334819D01*
X96621428Y-52334819D02*
X96278571Y-52334819D01*
X96450000Y-52334819D02*
X96450000Y-51334819D01*
X96450000Y-51334819D02*
X96392857Y-51477676D01*
X96392857Y-51477676D02*
X96335714Y-51572914D01*
X96335714Y-51572914D02*
X96278571Y-51620533D01*
X131978570Y-90387200D02*
X132064285Y-90434819D01*
X132064285Y-90434819D02*
X132207142Y-90434819D01*
X132207142Y-90434819D02*
X132264285Y-90387200D01*
X132264285Y-90387200D02*
X132292856Y-90339580D01*
X132292856Y-90339580D02*
X132321427Y-90244342D01*
X132321427Y-90244342D02*
X132321427Y-90149104D01*
X132321427Y-90149104D02*
X132292856Y-90053866D01*
X132292856Y-90053866D02*
X132264285Y-90006247D01*
X132264285Y-90006247D02*
X132207142Y-89958628D01*
X132207142Y-89958628D02*
X132092856Y-89911009D01*
X132092856Y-89911009D02*
X132035713Y-89863390D01*
X132035713Y-89863390D02*
X132007142Y-89815771D01*
X132007142Y-89815771D02*
X131978570Y-89720533D01*
X131978570Y-89720533D02*
X131978570Y-89625295D01*
X131978570Y-89625295D02*
X132007142Y-89530057D01*
X132007142Y-89530057D02*
X132035713Y-89482438D01*
X132035713Y-89482438D02*
X132092856Y-89434819D01*
X132092856Y-89434819D02*
X132235713Y-89434819D01*
X132235713Y-89434819D02*
X132321427Y-89482438D01*
X132521428Y-89434819D02*
X132664285Y-90434819D01*
X132664285Y-90434819D02*
X132778571Y-89720533D01*
X132778571Y-89720533D02*
X132892856Y-90434819D01*
X132892856Y-90434819D02*
X133035714Y-89434819D01*
X133235713Y-89530057D02*
X133264285Y-89482438D01*
X133264285Y-89482438D02*
X133321428Y-89434819D01*
X133321428Y-89434819D02*
X133464285Y-89434819D01*
X133464285Y-89434819D02*
X133521428Y-89482438D01*
X133521428Y-89482438D02*
X133549999Y-89530057D01*
X133549999Y-89530057D02*
X133578570Y-89625295D01*
X133578570Y-89625295D02*
X133578570Y-89720533D01*
X133578570Y-89720533D02*
X133549999Y-89863390D01*
X133549999Y-89863390D02*
X133207142Y-90434819D01*
X133207142Y-90434819D02*
X133578570Y-90434819D01*
X133949999Y-89434819D02*
X134007142Y-89434819D01*
X134007142Y-89434819D02*
X134064285Y-89482438D01*
X134064285Y-89482438D02*
X134092857Y-89530057D01*
X134092857Y-89530057D02*
X134121428Y-89625295D01*
X134121428Y-89625295D02*
X134149999Y-89815771D01*
X134149999Y-89815771D02*
X134149999Y-90053866D01*
X134149999Y-90053866D02*
X134121428Y-90244342D01*
X134121428Y-90244342D02*
X134092857Y-90339580D01*
X134092857Y-90339580D02*
X134064285Y-90387200D01*
X134064285Y-90387200D02*
X134007142Y-90434819D01*
X134007142Y-90434819D02*
X133949999Y-90434819D01*
X133949999Y-90434819D02*
X133892857Y-90387200D01*
X133892857Y-90387200D02*
X133864285Y-90339580D01*
X133864285Y-90339580D02*
X133835714Y-90244342D01*
X133835714Y-90244342D02*
X133807142Y-90053866D01*
X133807142Y-90053866D02*
X133807142Y-89815771D01*
X133807142Y-89815771D02*
X133835714Y-89625295D01*
X133835714Y-89625295D02*
X133864285Y-89530057D01*
X133864285Y-89530057D02*
X133892857Y-89482438D01*
X133892857Y-89482438D02*
X133949999Y-89434819D01*
X134350000Y-89434819D02*
X134750000Y-89434819D01*
X134750000Y-89434819D02*
X134492857Y-90434819D01*
X131978570Y-71337200D02*
X132064285Y-71384819D01*
X132064285Y-71384819D02*
X132207142Y-71384819D01*
X132207142Y-71384819D02*
X132264285Y-71337200D01*
X132264285Y-71337200D02*
X132292856Y-71289580D01*
X132292856Y-71289580D02*
X132321427Y-71194342D01*
X132321427Y-71194342D02*
X132321427Y-71099104D01*
X132321427Y-71099104D02*
X132292856Y-71003866D01*
X132292856Y-71003866D02*
X132264285Y-70956247D01*
X132264285Y-70956247D02*
X132207142Y-70908628D01*
X132207142Y-70908628D02*
X132092856Y-70861009D01*
X132092856Y-70861009D02*
X132035713Y-70813390D01*
X132035713Y-70813390D02*
X132007142Y-70765771D01*
X132007142Y-70765771D02*
X131978570Y-70670533D01*
X131978570Y-70670533D02*
X131978570Y-70575295D01*
X131978570Y-70575295D02*
X132007142Y-70480057D01*
X132007142Y-70480057D02*
X132035713Y-70432438D01*
X132035713Y-70432438D02*
X132092856Y-70384819D01*
X132092856Y-70384819D02*
X132235713Y-70384819D01*
X132235713Y-70384819D02*
X132321427Y-70432438D01*
X132521428Y-70384819D02*
X132664285Y-71384819D01*
X132664285Y-71384819D02*
X132778571Y-70670533D01*
X132778571Y-70670533D02*
X132892856Y-71384819D01*
X132892856Y-71384819D02*
X133035714Y-70384819D01*
X133235713Y-70480057D02*
X133264285Y-70432438D01*
X133264285Y-70432438D02*
X133321428Y-70384819D01*
X133321428Y-70384819D02*
X133464285Y-70384819D01*
X133464285Y-70384819D02*
X133521428Y-70432438D01*
X133521428Y-70432438D02*
X133549999Y-70480057D01*
X133549999Y-70480057D02*
X133578570Y-70575295D01*
X133578570Y-70575295D02*
X133578570Y-70670533D01*
X133578570Y-70670533D02*
X133549999Y-70813390D01*
X133549999Y-70813390D02*
X133207142Y-71384819D01*
X133207142Y-71384819D02*
X133578570Y-71384819D01*
X133949999Y-70384819D02*
X134007142Y-70384819D01*
X134007142Y-70384819D02*
X134064285Y-70432438D01*
X134064285Y-70432438D02*
X134092857Y-70480057D01*
X134092857Y-70480057D02*
X134121428Y-70575295D01*
X134121428Y-70575295D02*
X134149999Y-70765771D01*
X134149999Y-70765771D02*
X134149999Y-71003866D01*
X134149999Y-71003866D02*
X134121428Y-71194342D01*
X134121428Y-71194342D02*
X134092857Y-71289580D01*
X134092857Y-71289580D02*
X134064285Y-71337200D01*
X134064285Y-71337200D02*
X134007142Y-71384819D01*
X134007142Y-71384819D02*
X133949999Y-71384819D01*
X133949999Y-71384819D02*
X133892857Y-71337200D01*
X133892857Y-71337200D02*
X133864285Y-71289580D01*
X133864285Y-71289580D02*
X133835714Y-71194342D01*
X133835714Y-71194342D02*
X133807142Y-71003866D01*
X133807142Y-71003866D02*
X133807142Y-70765771D01*
X133807142Y-70765771D02*
X133835714Y-70575295D01*
X133835714Y-70575295D02*
X133864285Y-70480057D01*
X133864285Y-70480057D02*
X133892857Y-70432438D01*
X133892857Y-70432438D02*
X133949999Y-70384819D01*
X134664286Y-70718152D02*
X134664286Y-71384819D01*
X134521428Y-70337200D02*
X134378571Y-71051485D01*
X134378571Y-71051485D02*
X134750000Y-71051485D01*
X98117819Y-27912857D02*
X98117819Y-28198571D01*
X98117819Y-28198571D02*
X97117819Y-28198571D01*
X97594009Y-27712857D02*
X97594009Y-27512857D01*
X98117819Y-27427143D02*
X98117819Y-27712857D01*
X98117819Y-27712857D02*
X97117819Y-27712857D01*
X97117819Y-27712857D02*
X97117819Y-27427143D01*
X98117819Y-27170000D02*
X97117819Y-27170000D01*
X97117819Y-27170000D02*
X97117819Y-27027143D01*
X97117819Y-27027143D02*
X97165438Y-26941429D01*
X97165438Y-26941429D02*
X97260676Y-26884286D01*
X97260676Y-26884286D02*
X97355914Y-26855715D01*
X97355914Y-26855715D02*
X97546390Y-26827143D01*
X97546390Y-26827143D02*
X97689247Y-26827143D01*
X97689247Y-26827143D02*
X97879723Y-26855715D01*
X97879723Y-26855715D02*
X97974961Y-26884286D01*
X97974961Y-26884286D02*
X98070200Y-26941429D01*
X98070200Y-26941429D02*
X98117819Y-27027143D01*
X98117819Y-27027143D02*
X98117819Y-27170000D01*
X98117819Y-26255715D02*
X98117819Y-26598572D01*
X98117819Y-26427143D02*
X97117819Y-26427143D01*
X97117819Y-26427143D02*
X97260676Y-26484286D01*
X97260676Y-26484286D02*
X97355914Y-26541429D01*
X97355914Y-26541429D02*
X97403533Y-26598572D01*
X97117819Y-25884286D02*
X97117819Y-25827143D01*
X97117819Y-25827143D02*
X97165438Y-25770000D01*
X97165438Y-25770000D02*
X97213057Y-25741429D01*
X97213057Y-25741429D02*
X97308295Y-25712857D01*
X97308295Y-25712857D02*
X97498771Y-25684286D01*
X97498771Y-25684286D02*
X97736866Y-25684286D01*
X97736866Y-25684286D02*
X97927342Y-25712857D01*
X97927342Y-25712857D02*
X98022580Y-25741429D01*
X98022580Y-25741429D02*
X98070200Y-25770000D01*
X98070200Y-25770000D02*
X98117819Y-25827143D01*
X98117819Y-25827143D02*
X98117819Y-25884286D01*
X98117819Y-25884286D02*
X98070200Y-25941429D01*
X98070200Y-25941429D02*
X98022580Y-25970000D01*
X98022580Y-25970000D02*
X97927342Y-25998571D01*
X97927342Y-25998571D02*
X97736866Y-26027143D01*
X97736866Y-26027143D02*
X97498771Y-26027143D01*
X97498771Y-26027143D02*
X97308295Y-25998571D01*
X97308295Y-25998571D02*
X97213057Y-25970000D01*
X97213057Y-25970000D02*
X97165438Y-25941429D01*
X97165438Y-25941429D02*
X97117819Y-25884286D01*
X97213057Y-25455714D02*
X97165438Y-25427142D01*
X97165438Y-25427142D02*
X97117819Y-25370000D01*
X97117819Y-25370000D02*
X97117819Y-25227142D01*
X97117819Y-25227142D02*
X97165438Y-25170000D01*
X97165438Y-25170000D02*
X97213057Y-25141428D01*
X97213057Y-25141428D02*
X97308295Y-25112857D01*
X97308295Y-25112857D02*
X97403533Y-25112857D01*
X97403533Y-25112857D02*
X97546390Y-25141428D01*
X97546390Y-25141428D02*
X98117819Y-25484285D01*
X98117819Y-25484285D02*
X98117819Y-25112857D01*
D15*
G04 #@! TO.C,ENC201*
X89000000Y-32950000D02*
X89000000Y-38020000D01*
X89000000Y-32950000D02*
X91760000Y-32950000D01*
X89000000Y-41280000D02*
X89000000Y-46350000D01*
X89000000Y-46350000D02*
X91910000Y-46350000D01*
X91690000Y-41680000D02*
X98810000Y-41680000D01*
X93510000Y-46350000D02*
X94450000Y-46350000D01*
X93660000Y-32950000D02*
X96840000Y-32950000D01*
X96050000Y-46350000D02*
X96990000Y-46350000D01*
X98590000Y-46350000D02*
X101500000Y-46350000D01*
X98740000Y-32950000D02*
X101500000Y-32950000D01*
X101500000Y-32950000D02*
X101500000Y-38020000D01*
X101500000Y-41280000D02*
X101500000Y-46350000D01*
X90800000Y-34060000D02*
G75*
G02*
X89540000Y-34060000I-630000J0D01*
G01*
X89540000Y-34060000D02*
G75*
G02*
X90800000Y-34060000I630000J0D01*
G01*
X90800000Y-45240000D02*
G75*
G02*
X89540000Y-45240000I-630000J0D01*
G01*
X89540000Y-45240000D02*
G75*
G02*
X90800000Y-45240000I630000J0D01*
G01*
X98300000Y-39650000D02*
G75*
G02*
X92200000Y-39650000I-3050000J0D01*
G01*
X92200000Y-39650000D02*
G75*
G02*
X98300000Y-39650000I3050000J0D01*
G01*
X99300000Y-39650000D02*
G75*
G02*
X91200000Y-39650000I-4050000J0D01*
G01*
X91200000Y-39650000D02*
G75*
G02*
X99300000Y-39650000I4050000J0D01*
G01*
X100960000Y-34060000D02*
G75*
G02*
X99700000Y-34060000I-630000J0D01*
G01*
X99700000Y-34060000D02*
G75*
G02*
X100960000Y-34060000I630000J0D01*
G01*
X100960000Y-45240000D02*
G75*
G02*
X99700000Y-45240000I-630000J0D01*
G01*
X99700000Y-45240000D02*
G75*
G02*
X100960000Y-45240000I630000J0D01*
G01*
G04 #@! TO.C,SW210*
X126180000Y-110310000D02*
X126180000Y-125910000D01*
X126180000Y-110310000D02*
X141790000Y-110310000D01*
X126180000Y-125910000D02*
X141790000Y-125910000D01*
X141790000Y-110310000D02*
X141790000Y-125910000D01*
G04 #@! TO.C,SW202*
X88080000Y-72210000D02*
X88080000Y-87810000D01*
X88080000Y-72210000D02*
X103690000Y-72210000D01*
X88080000Y-87810000D02*
X103690000Y-87810000D01*
X103690000Y-72210000D02*
X103690000Y-87810000D01*
G04 #@! TO.C,OLED201*
X107250000Y-55150000D02*
X145250000Y-55150000D01*
X107250000Y-67150000D02*
X107250000Y-55150000D01*
X145250000Y-55150000D02*
X145250000Y-67150000D01*
X145250000Y-67150000D02*
X107250000Y-67150000D01*
G04 #@! TO.C,ENC202*
X108050000Y-32950000D02*
X108050000Y-38020000D01*
X108050000Y-32950000D02*
X110810000Y-32950000D01*
X108050000Y-41280000D02*
X108050000Y-46350000D01*
X108050000Y-46350000D02*
X110960000Y-46350000D01*
X110740000Y-41680000D02*
X117860000Y-41680000D01*
X112560000Y-46350000D02*
X113500000Y-46350000D01*
X112710000Y-32950000D02*
X115890000Y-32950000D01*
X115100000Y-46350000D02*
X116040000Y-46350000D01*
X117640000Y-46350000D02*
X120550000Y-46350000D01*
X117790000Y-32950000D02*
X120550000Y-32950000D01*
X120550000Y-32950000D02*
X120550000Y-38020000D01*
X120550000Y-41280000D02*
X120550000Y-46350000D01*
X109850000Y-34060000D02*
G75*
G02*
X108590000Y-34060000I-630000J0D01*
G01*
X108590000Y-34060000D02*
G75*
G02*
X109850000Y-34060000I630000J0D01*
G01*
X109850000Y-45240000D02*
G75*
G02*
X108590000Y-45240000I-630000J0D01*
G01*
X108590000Y-45240000D02*
G75*
G02*
X109850000Y-45240000I630000J0D01*
G01*
X117350000Y-39650000D02*
G75*
G02*
X111250000Y-39650000I-3050000J0D01*
G01*
X111250000Y-39650000D02*
G75*
G02*
X117350000Y-39650000I3050000J0D01*
G01*
X118350000Y-39650000D02*
G75*
G02*
X110250000Y-39650000I-4050000J0D01*
G01*
X110250000Y-39650000D02*
G75*
G02*
X118350000Y-39650000I4050000J0D01*
G01*
X120010000Y-34060000D02*
G75*
G02*
X118750000Y-34060000I-630000J0D01*
G01*
X118750000Y-34060000D02*
G75*
G02*
X120010000Y-34060000I630000J0D01*
G01*
X120010000Y-45240000D02*
G75*
G02*
X118750000Y-45240000I-630000J0D01*
G01*
X118750000Y-45240000D02*
G75*
G02*
X120010000Y-45240000I630000J0D01*
G01*
G04 #@! TO.C,ENC203*
X127100000Y-32950000D02*
X127100000Y-38020000D01*
X127100000Y-32950000D02*
X129860000Y-32950000D01*
X127100000Y-41280000D02*
X127100000Y-46350000D01*
X127100000Y-46350000D02*
X130010000Y-46350000D01*
X129790000Y-41680000D02*
X136910000Y-41680000D01*
X131610000Y-46350000D02*
X132550000Y-46350000D01*
X131760000Y-32950000D02*
X134940000Y-32950000D01*
X134150000Y-46350000D02*
X135090000Y-46350000D01*
X136690000Y-46350000D02*
X139600000Y-46350000D01*
X136840000Y-32950000D02*
X139600000Y-32950000D01*
X139600000Y-32950000D02*
X139600000Y-38020000D01*
X139600000Y-41280000D02*
X139600000Y-46350000D01*
X128900000Y-34060000D02*
G75*
G02*
X127640000Y-34060000I-630000J0D01*
G01*
X127640000Y-34060000D02*
G75*
G02*
X128900000Y-34060000I630000J0D01*
G01*
X128900000Y-45240000D02*
G75*
G02*
X127640000Y-45240000I-630000J0D01*
G01*
X127640000Y-45240000D02*
G75*
G02*
X128900000Y-45240000I630000J0D01*
G01*
X136400000Y-39650000D02*
G75*
G02*
X130300000Y-39650000I-3050000J0D01*
G01*
X130300000Y-39650000D02*
G75*
G02*
X136400000Y-39650000I3050000J0D01*
G01*
X137400000Y-39650000D02*
G75*
G02*
X129300000Y-39650000I-4050000J0D01*
G01*
X129300000Y-39650000D02*
G75*
G02*
X137400000Y-39650000I4050000J0D01*
G01*
X139060000Y-34060000D02*
G75*
G02*
X137800000Y-34060000I-630000J0D01*
G01*
X137800000Y-34060000D02*
G75*
G02*
X139060000Y-34060000I630000J0D01*
G01*
X139060000Y-45240000D02*
G75*
G02*
X137800000Y-45240000I-630000J0D01*
G01*
X137800000Y-45240000D02*
G75*
G02*
X139060000Y-45240000I630000J0D01*
G01*
D14*
G04 #@! TO.C,H101*
X145135600Y-85547200D02*
X145135600Y-91257200D01*
X145135600Y-91257200D02*
X145135600Y-93167200D01*
X145135600Y-93167200D02*
X147675600Y-93167200D01*
X147675600Y-85547200D02*
X145135600Y-85547200D01*
X147675600Y-93167200D02*
X147675600Y-85547200D01*
D15*
G04 #@! TO.C,SW208*
X88080000Y-110310000D02*
X88080000Y-125910000D01*
X88080000Y-110310000D02*
X103690000Y-110310000D01*
X88080000Y-125910000D02*
X103690000Y-125910000D01*
X103690000Y-110310000D02*
X103690000Y-125910000D01*
G04 #@! TO.C,SW203*
X107130000Y-72210000D02*
X107130000Y-87810000D01*
X107130000Y-72210000D02*
X122740000Y-72210000D01*
X107130000Y-87810000D02*
X122740000Y-87810000D01*
X122740000Y-72210000D02*
X122740000Y-87810000D01*
G04 #@! TO.C,SW205*
X88080000Y-91260000D02*
X88080000Y-106860000D01*
X88080000Y-91260000D02*
X103690000Y-91260000D01*
X88080000Y-106860000D02*
X103690000Y-106860000D01*
X103690000Y-91260000D02*
X103690000Y-106860000D01*
G04 #@! TO.C,SW209*
X107130000Y-110310000D02*
X107130000Y-125910000D01*
X107130000Y-110310000D02*
X122740000Y-110310000D01*
X107130000Y-125910000D02*
X122740000Y-125910000D01*
X122740000Y-110310000D02*
X122740000Y-125910000D01*
G04 #@! TO.C,LED101*
X101576000Y-24860000D02*
X101986000Y-24450000D01*
X101576000Y-26330000D02*
X101576000Y-24860000D01*
X101596000Y-27120000D02*
X101596000Y-28670000D01*
X101596000Y-28670000D02*
X103636000Y-28670000D01*
X101986000Y-24450000D02*
X103256000Y-24450000D01*
X102516000Y-26470000D02*
X102116000Y-26870000D01*
X102616000Y-26370000D02*
X102516000Y-26470000D01*
X102716000Y-26470000D02*
X102616000Y-26370000D01*
X103116000Y-26870000D02*
X102116000Y-26870000D01*
X103116000Y-26870000D02*
X102716000Y-26470000D01*
X103256000Y-24450000D02*
X103636000Y-24830000D01*
X103636000Y-24830000D02*
X103636000Y-26350000D01*
X103636000Y-28670000D02*
X103636000Y-27120000D01*
G04 #@! TO.C,SW206*
X107130000Y-91260000D02*
X107130000Y-106860000D01*
X107130000Y-91260000D02*
X122740000Y-91260000D01*
X107130000Y-106860000D02*
X122740000Y-106860000D01*
X122740000Y-91260000D02*
X122740000Y-106860000D01*
G04 #@! TO.C,SW201*
X88080000Y-53160000D02*
X88080000Y-68760000D01*
X88080000Y-53160000D02*
X103690000Y-53160000D01*
X88080000Y-68760000D02*
X103690000Y-68760000D01*
X103690000Y-53160000D02*
X103690000Y-68760000D01*
G04 #@! TO.C,SW207*
X126180000Y-91260000D02*
X126180000Y-106860000D01*
X126180000Y-91260000D02*
X141790000Y-91260000D01*
X126180000Y-106860000D02*
X141790000Y-106860000D01*
X141790000Y-91260000D02*
X141790000Y-106860000D01*
G04 #@! TO.C,SW204*
X126180000Y-72210000D02*
X126180000Y-87810000D01*
X126180000Y-72210000D02*
X141790000Y-72210000D01*
X126180000Y-87810000D02*
X141790000Y-87810000D01*
X141790000Y-72210000D02*
X141790000Y-87810000D01*
G04 #@! TO.C,LED102*
X94718000Y-24860000D02*
X95128000Y-24450000D01*
X94718000Y-26330000D02*
X94718000Y-24860000D01*
X94738000Y-27120000D02*
X94738000Y-28670000D01*
X94738000Y-28670000D02*
X96778000Y-28670000D01*
X95128000Y-24450000D02*
X96398000Y-24450000D01*
X95658000Y-26470000D02*
X95258000Y-26870000D01*
X95758000Y-26370000D02*
X95658000Y-26470000D01*
X95858000Y-26470000D02*
X95758000Y-26370000D01*
X96258000Y-26870000D02*
X95258000Y-26870000D01*
X96258000Y-26870000D02*
X95858000Y-26470000D01*
X96398000Y-24450000D02*
X96778000Y-24830000D01*
X96778000Y-24830000D02*
X96778000Y-26350000D01*
X96778000Y-28670000D02*
X96778000Y-27120000D01*
G04 #@! TD*
%LPC*%
D16*
G04 #@! TO.C,ENC201*
X92710000Y-32650000D03*
X97790000Y-32650000D03*
D17*
X100950000Y-39650000D03*
X89550000Y-39650000D03*
D18*
X92710000Y-47150000D03*
X97790000Y-47150000D03*
X95250000Y-47150000D03*
G04 #@! TD*
D19*
G04 #@! TO.C,H203*
X83250000Y-127150000D03*
G04 #@! TD*
D20*
G04 #@! TO.C,SW210*
X133980000Y-118110000D03*
D21*
X130180000Y-115570000D03*
X136520000Y-113030000D03*
G04 #@! TD*
D20*
G04 #@! TO.C,SW202*
X95880000Y-80010000D03*
D21*
X92080000Y-77470000D03*
X98420000Y-74930000D03*
G04 #@! TD*
D22*
G04 #@! TO.C,OLED201*
X108750000Y-64960000D03*
X108750000Y-62420000D03*
X108750000Y-59880000D03*
X108750000Y-57340000D03*
G04 #@! TD*
D16*
G04 #@! TO.C,ENC202*
X111760000Y-32650000D03*
X116840000Y-32650000D03*
D17*
X120000000Y-39650000D03*
X108600000Y-39650000D03*
D18*
X111760000Y-47150000D03*
X116840000Y-47150000D03*
X114300000Y-47150000D03*
G04 #@! TD*
D16*
G04 #@! TO.C,ENC203*
X130810000Y-32650000D03*
X135890000Y-32650000D03*
D17*
X139050000Y-39650000D03*
X127650000Y-39650000D03*
D18*
X130810000Y-47150000D03*
X135890000Y-47150000D03*
X133350000Y-47150000D03*
G04 #@! TD*
D23*
G04 #@! TO.C,H101*
X146405600Y-91897200D03*
D18*
X146405600Y-89357200D03*
X146405600Y-86817200D03*
G04 #@! TD*
D20*
G04 #@! TO.C,SW208*
X95880000Y-118110000D03*
D21*
X92080000Y-115570000D03*
X98420000Y-113030000D03*
G04 #@! TD*
D19*
G04 #@! TO.C,H202*
X145250000Y-27150000D03*
G04 #@! TD*
G04 #@! TO.C,H201*
X83250000Y-27150000D03*
G04 #@! TD*
D20*
G04 #@! TO.C,SW203*
X114930000Y-80010000D03*
D21*
X111130000Y-77470000D03*
X117470000Y-74930000D03*
G04 #@! TD*
D20*
G04 #@! TO.C,SW205*
X95880000Y-99060000D03*
D21*
X92080000Y-96520000D03*
X98420000Y-93980000D03*
G04 #@! TD*
D20*
G04 #@! TO.C,SW209*
X114930000Y-118110000D03*
D21*
X111130000Y-115570000D03*
X117470000Y-113030000D03*
G04 #@! TD*
D19*
G04 #@! TO.C,H204*
X145250000Y-127150000D03*
G04 #@! TD*
D24*
G04 #@! TO.C,LED101*
X102616000Y-27720000D03*
X102616000Y-25620000D03*
G04 #@! TD*
D20*
G04 #@! TO.C,SW206*
X114930000Y-99060000D03*
D21*
X111130000Y-96520000D03*
X117470000Y-93980000D03*
G04 #@! TD*
D20*
G04 #@! TO.C,SW201*
X95880000Y-60960000D03*
D21*
X92080000Y-58420000D03*
X98420000Y-55880000D03*
G04 #@! TD*
D20*
G04 #@! TO.C,SW207*
X133980000Y-99060000D03*
D21*
X130180000Y-96520000D03*
X136520000Y-93980000D03*
G04 #@! TD*
D20*
G04 #@! TO.C,SW204*
X133980000Y-80010000D03*
D21*
X130180000Y-77470000D03*
X136520000Y-74930000D03*
G04 #@! TD*
D24*
G04 #@! TO.C,LED102*
X95758000Y-27720000D03*
X95758000Y-25620000D03*
G04 #@! TD*
D25*
G04 #@! TO.C,USB101*
X112172000Y-27450000D03*
X117952000Y-27450000D03*
D26*
X110742000Y-23770000D03*
D27*
X110742000Y-27980000D03*
D26*
X119382000Y-23770000D03*
D27*
X119382000Y-27980000D03*
G04 #@! TD*
%LPD*%
M02*
