G04 #@! TF.GenerationSoftware,KiCad,Pcbnew,9.0.2*
G04 #@! TF.CreationDate,2025-06-26T19:32:42+02:00*
G04 #@! TF.ProjectId,Macro Pad,4d616372-6f20-4506-9164-2e6b69636164,rev?*
G04 #@! TF.SameCoordinates,Original*
G04 #@! TF.FileFunction,Paste,Bot*
G04 #@! TF.FilePolarity,Positive*
%FSLAX46Y46*%
G04 Gerber Fmt 4.6, Leading zero omitted, Abs format (unit mm)*
G04 Created by KiCad (PCBNEW 9.0.2) date 2025-06-26 19:32:42*
%MOMM*%
%LPD*%
G01*
G04 APERTURE LIST*
%ADD10R,0.800000X0.900000*%
%ADD11R,0.860000X0.810000*%
%ADD12R,0.900000X0.800000*%
%ADD13R,0.200000X1.100000*%
%ADD14R,1.100000X0.200000*%
%ADD15R,3.100000X3.100000*%
%ADD16R,0.750000X1.000000*%
%ADD17R,0.910000X0.870000*%
%ADD18R,0.810000X0.860000*%
%ADD19R,1.100000X2.500000*%
%ADD20R,3.600000X2.340000*%
%ADD21O,2.250000X0.630000*%
%ADD22R,1.000000X0.750000*%
%ADD23R,1.200000X1.400000*%
%ADD24R,0.550000X1.100000*%
%ADD25R,0.300000X1.100000*%
G04 APERTURE END LIST*
D10*
G04 #@! TO.C,C119*
X123026400Y-53898800D03*
X121626400Y-53898800D03*
G04 #@! TD*
D11*
G04 #@! TO.C,R209*
X130810000Y-49288000D03*
X130810000Y-50788000D03*
G04 #@! TD*
D12*
G04 #@! TO.C,C117*
X107442000Y-26667000D03*
X107442000Y-28067000D03*
G04 #@! TD*
G04 #@! TO.C,C201*
X95250000Y-45150000D03*
X95250000Y-43750000D03*
G04 #@! TD*
G04 #@! TO.C,C206*
X122174000Y-47306000D03*
X122174000Y-48706000D03*
G04 #@! TD*
D10*
G04 #@! TO.C,C109*
X145300000Y-49778000D03*
X146700000Y-49778000D03*
G04 #@! TD*
D13*
G04 #@! TO.C,U102*
X139760000Y-62319600D03*
X139360000Y-62319600D03*
X138960000Y-62319600D03*
X138560000Y-62319600D03*
X138160000Y-62319600D03*
X137760000Y-62319600D03*
X137360000Y-62319600D03*
X136960000Y-62319600D03*
X136560000Y-62319600D03*
X136160000Y-62319600D03*
X135760000Y-62319600D03*
X135360000Y-62319600D03*
X134960000Y-62319600D03*
X134560000Y-62319600D03*
D14*
X133610000Y-61369600D03*
X133610000Y-60969600D03*
X133610000Y-60569600D03*
X133610000Y-60169600D03*
X133610000Y-59769600D03*
X133610000Y-59369600D03*
X133610000Y-58969600D03*
X133610000Y-58569600D03*
X133610000Y-58169600D03*
X133610000Y-57769600D03*
X133610000Y-57369600D03*
X133610000Y-56969600D03*
X133610000Y-56569600D03*
X133610000Y-56169600D03*
D13*
X134560000Y-55219600D03*
X134960000Y-55219600D03*
X135360000Y-55219600D03*
X135760000Y-55219600D03*
X136160000Y-55219600D03*
X136560000Y-55219600D03*
X136960000Y-55219600D03*
X137360000Y-55219600D03*
X137760000Y-55219600D03*
X138160000Y-55219600D03*
X138560000Y-55219600D03*
X138960000Y-55219600D03*
X139360000Y-55219600D03*
X139760000Y-55219600D03*
D14*
X140710000Y-56169600D03*
X140710000Y-56569600D03*
X140710000Y-56969600D03*
X140710000Y-57369600D03*
X140710000Y-57769600D03*
X140710000Y-58169600D03*
X140710000Y-58569600D03*
X140710000Y-58969600D03*
X140710000Y-59369600D03*
X140710000Y-59769600D03*
X140710000Y-60169600D03*
X140710000Y-60569600D03*
X140710000Y-60969600D03*
X140710000Y-61369600D03*
D15*
X137160000Y-58769600D03*
G04 #@! TD*
D10*
G04 #@! TO.C,C107*
X145796000Y-58674000D03*
X144396000Y-58674000D03*
G04 #@! TD*
D16*
G04 #@! TO.C,D208*
X105250000Y-115320000D03*
X105250000Y-112980000D03*
G04 #@! TD*
D17*
G04 #@! TO.C,D103*
X123037600Y-35539200D03*
X123037600Y-34239200D03*
G04 #@! TD*
D18*
G04 #@! TO.C,R108*
X121220800Y-61315600D03*
X122720800Y-61315600D03*
G04 #@! TD*
D10*
G04 #@! TO.C,C114*
X128535200Y-66268600D03*
X129935200Y-66268600D03*
G04 #@! TD*
D19*
G04 #@! TO.C,U101*
X89574400Y-66724000D03*
X87274400Y-66724000D03*
X84974400Y-66724000D03*
D20*
X87274400Y-60784000D03*
G04 #@! TD*
D12*
G04 #@! TO.C,C121*
X88138000Y-30796000D03*
X88138000Y-32196000D03*
G04 #@! TD*
D18*
G04 #@! TO.C,R105*
X145846800Y-53035200D03*
X144346800Y-53035200D03*
G04 #@! TD*
D10*
G04 #@! TO.C,C202*
X86549000Y-45212000D03*
X87949000Y-45212000D03*
G04 #@! TD*
D16*
G04 #@! TO.C,D206*
X124250000Y-96320000D03*
X124250000Y-93980000D03*
G04 #@! TD*
D11*
G04 #@! TO.C,R210*
X135890000Y-45200000D03*
X135890000Y-43700000D03*
G04 #@! TD*
G04 #@! TO.C,R111*
X86614000Y-30746000D03*
X86614000Y-32246000D03*
G04 #@! TD*
D18*
G04 #@! TO.C,R106*
X115112800Y-33883600D03*
X113612800Y-33883600D03*
G04 #@! TD*
D21*
G04 #@! TO.C,U103*
X137591200Y-83281600D03*
X137591200Y-84561600D03*
X137591200Y-85821600D03*
X137591200Y-87091600D03*
X130531200Y-87091600D03*
X130531200Y-85821600D03*
X130531200Y-84561600D03*
X130531200Y-83281600D03*
G04 #@! TD*
D10*
G04 #@! TO.C,C208*
X124522000Y-45212000D03*
X125922000Y-45212000D03*
G04 #@! TD*
D11*
G04 #@! TO.C,R110*
X141478000Y-42684000D03*
X141478000Y-44184000D03*
G04 #@! TD*
D18*
G04 #@! TO.C,R104*
X145846800Y-54356000D03*
X144346800Y-54356000D03*
G04 #@! TD*
D22*
G04 #@! TO.C,SW102*
X86868000Y-36758000D03*
X80868000Y-36758000D03*
X86868000Y-40458000D03*
X80868000Y-40458000D03*
G04 #@! TD*
D11*
G04 #@! TO.C,R102*
X105664000Y-33782000D03*
X105664000Y-35282000D03*
G04 #@! TD*
D12*
G04 #@! TO.C,C207*
X133350000Y-45150000D03*
X133350000Y-43750000D03*
G04 #@! TD*
D11*
G04 #@! TO.C,R201*
X92710000Y-48907000D03*
X92710000Y-50407000D03*
G04 #@! TD*
G04 #@! TO.C,R205*
X111760000Y-49034000D03*
X111760000Y-50534000D03*
G04 #@! TD*
D10*
G04 #@! TO.C,C112*
X125041200Y-53848000D03*
X126441200Y-53848000D03*
G04 #@! TD*
G04 #@! TO.C,C103*
X145796000Y-64250000D03*
X144396000Y-64250000D03*
G04 #@! TD*
D16*
G04 #@! TO.C,D212*
X116840000Y-36984000D03*
X116840000Y-34644000D03*
G04 #@! TD*
G04 #@! TO.C,D213*
X135890000Y-37138000D03*
X135890000Y-34798000D03*
G04 #@! TD*
G04 #@! TO.C,D204*
X143250000Y-77320000D03*
X143250000Y-74980000D03*
G04 #@! TD*
D10*
G04 #@! TO.C,C113*
X121270800Y-62839600D03*
X122670800Y-62839600D03*
G04 #@! TD*
D18*
G04 #@! TO.C,R101*
X129985200Y-67919600D03*
X128485200Y-67919600D03*
G04 #@! TD*
D16*
G04 #@! TO.C,D209*
X124250000Y-115320000D03*
X124250000Y-112980000D03*
G04 #@! TD*
D12*
G04 #@! TO.C,C203*
X103886000Y-46544000D03*
X103886000Y-47944000D03*
G04 #@! TD*
D18*
G04 #@! TO.C,R207*
X108724000Y-45212000D03*
X110224000Y-45212000D03*
G04 #@! TD*
D16*
G04 #@! TO.C,D211*
X97790000Y-36857000D03*
X97790000Y-34517000D03*
G04 #@! TD*
D23*
G04 #@! TO.C,U104*
X123061400Y-56825400D03*
X123061400Y-59025400D03*
X121361400Y-59025400D03*
X121361400Y-56825400D03*
G04 #@! TD*
D12*
G04 #@! TO.C,C204*
X114300000Y-45404000D03*
X114300000Y-44004000D03*
G04 #@! TD*
D10*
G04 #@! TO.C,C106*
X129935200Y-71221600D03*
X128535200Y-71221600D03*
G04 #@! TD*
D17*
G04 #@! TO.C,D101*
X121158000Y-27036000D03*
X121158000Y-28336000D03*
G04 #@! TD*
D12*
G04 #@! TO.C,C101*
X119786400Y-66232000D03*
X119786400Y-64832000D03*
G04 #@! TD*
D17*
G04 #@! TO.C,D104*
X125526800Y-35539200D03*
X125526800Y-34239200D03*
G04 #@! TD*
D11*
G04 #@! TO.C,R103*
X104140000Y-33794000D03*
X104140000Y-35294000D03*
G04 #@! TD*
D17*
G04 #@! TO.C,D102*
X109093000Y-26782000D03*
X109093000Y-28082000D03*
G04 #@! TD*
D10*
G04 #@! TO.C,C104*
X122642400Y-70231000D03*
X124042400Y-70231000D03*
G04 #@! TD*
D18*
G04 #@! TO.C,R107*
X121182000Y-25273000D03*
X122682000Y-25273000D03*
G04 #@! TD*
D16*
G04 #@! TO.C,D207*
X143250000Y-96320000D03*
X143250000Y-93980000D03*
G04 #@! TD*
G04 #@! TO.C,D203*
X124250000Y-77320000D03*
X124250000Y-74980000D03*
G04 #@! TD*
D11*
G04 #@! TO.C,R206*
X116840000Y-45492800D03*
X116840000Y-43992800D03*
G04 #@! TD*
D10*
G04 #@! TO.C,C205*
X105472000Y-45212000D03*
X106872000Y-45212000D03*
G04 #@! TD*
G04 #@! TO.C,C115*
X145893465Y-67250000D03*
X144493465Y-67250000D03*
G04 #@! TD*
G04 #@! TO.C,C105*
X129935200Y-69443600D03*
X128535200Y-69443600D03*
G04 #@! TD*
D12*
G04 #@! TO.C,C111*
X87377000Y-70488000D03*
X87377000Y-69088000D03*
G04 #@! TD*
D16*
G04 #@! TO.C,D210*
X143250000Y-115320000D03*
X143250000Y-112980000D03*
G04 #@! TD*
D11*
G04 #@! TO.C,R202*
X97790000Y-45200000D03*
X97790000Y-43700000D03*
G04 #@! TD*
D16*
G04 #@! TO.C,D205*
X105250000Y-96320000D03*
X105250000Y-93980000D03*
G04 #@! TD*
D18*
G04 #@! TO.C,R109*
X83070000Y-42926000D03*
X84570000Y-42926000D03*
G04 #@! TD*
D12*
G04 #@! TO.C,C116*
X124206000Y-26986000D03*
X124206000Y-28386000D03*
G04 #@! TD*
D18*
G04 #@! TO.C,R211*
X127774000Y-45212000D03*
X129274000Y-45212000D03*
G04 #@! TD*
D11*
G04 #@! TO.C,R208*
X120396000Y-48756000D03*
X120396000Y-47256000D03*
G04 #@! TD*
D16*
G04 #@! TO.C,D202*
X105250000Y-77320000D03*
X105250000Y-74980000D03*
G04 #@! TD*
D12*
G04 #@! TO.C,C209*
X141478000Y-47306000D03*
X141478000Y-48706000D03*
G04 #@! TD*
D10*
G04 #@! TO.C,C102*
X145796000Y-61500000D03*
X144396000Y-61500000D03*
G04 #@! TD*
G04 #@! TO.C,C108*
X145350000Y-48000000D03*
X146750000Y-48000000D03*
G04 #@! TD*
D12*
G04 #@! TO.C,C110*
X84964000Y-70488000D03*
X84964000Y-69088000D03*
G04 #@! TD*
G04 #@! TO.C,C118*
X80467200Y-61558400D03*
X80467200Y-60158400D03*
G04 #@! TD*
D10*
G04 #@! TO.C,C120*
X117794000Y-59385200D03*
X116394000Y-59385200D03*
G04 #@! TD*
D11*
G04 #@! TO.C,R212*
X139827000Y-48756000D03*
X139827000Y-47256000D03*
G04 #@! TD*
D24*
G04 #@! TO.C,USB101*
X111862000Y-28530000D03*
X112662000Y-28530000D03*
D25*
X113312000Y-28530000D03*
X113812000Y-28530000D03*
X114312000Y-28530000D03*
X114812000Y-28530000D03*
X115312000Y-28530000D03*
X115812000Y-28530000D03*
X116312000Y-28530000D03*
X116812000Y-28530000D03*
D24*
X117462000Y-28530000D03*
X118262000Y-28530000D03*
G04 #@! TD*
D11*
G04 #@! TO.C,R204*
X102108000Y-47994000D03*
X102108000Y-46494000D03*
G04 #@! TD*
D22*
G04 #@! TO.C,SW101*
X147526000Y-36758000D03*
X141526000Y-36758000D03*
X147526000Y-40458000D03*
X141526000Y-40458000D03*
G04 #@! TD*
D16*
G04 #@! TO.C,D201*
X105250000Y-58320000D03*
X105250000Y-55980000D03*
G04 #@! TD*
D18*
G04 #@! TO.C,R203*
X89674000Y-45212000D03*
X91174000Y-45212000D03*
G04 #@! TD*
M02*
