M48
; DRILL file {KiCad 9.0.2} date 2025-06-26T19:32:42+0200
; FORMAT={-:-/ absolute / metric / decimal}
; #@! TF.CreationDate,2025-06-26T19:32:42+02:00
; #@! TF.GenerationSoftware,Kicad,Pcbnew,9.0.2
; #@! TF.FileFunction,Plated,1,4,PTH
FMAT,2
METRIC
; #@! TA.AperFunction,Plated,PTH,ViaDrill
T1C0.305
; #@! TA.AperFunction,Plated,PTH,ComponentDrill
T2C0.600
; #@! TA.AperFunction,Plated,PTH,ComponentDrill
T3C0.700
; #@! TA.AperFunction,Plated,PTH,ComponentDrill
T4C0.914
; #@! TA.AperFunction,Plated,PTH,ComponentDrill
T5C1.000
; #@! TA.AperFunction,Plated,PTH,ComponentDrill
T6C1.200
; #@! TA.AperFunction,Plated,PTH,ComponentDrill
T7C1.600
; #@! TA.AperFunction,Plated,PTH,ComponentDrill
T8C1.800
; #@! TA.AperFunction,Plated,PTH,ComponentDrill
T9C3.200
; #@! TA.AperFunction,Plated,PTH,ComponentDrill
T10C4.200
%
G90
G05
T1
X80.474Y-62.776
X80.874Y-35.662
X84.938Y-71.78
X86.0Y-42.75
X86.563Y-47.092
X86.919Y-35.662
X87.376Y-71.78
X88.144Y-29.675
X89.052Y-32.614
X89.56Y-68.936
X92.75Y-51.75
X94.0Y-52.75
X95.25Y-42.469
X95.758Y-24.282
X95.86Y-29.312
X97.79Y-39.065
X97.79Y-42.418
X102.616Y-24.435
X102.667Y-35.509
X102.718Y-29.413
X102.75Y-38.0
X103.75Y-36.427
X103.937Y-45.364
X104.191Y-93.929
X104.292Y-74.93
X104.394Y-113.03
X104.445Y-55.88
X104.5Y-65.5
X105.207Y-60.147
X105.461Y-46.431
X106.477Y-29.413
X107.036Y-49.124
X107.5Y-25.804
X108.052Y-49.53
X108.661Y-54.153
X108.75Y-42.5
X109.0Y-25.804
X109.25Y-23.25
X110.033Y-50.8
X110.058Y-63.068
X110.185Y-57.302
X110.719Y-29.489
X111.633Y-26.137
X111.75Y-29.5
X112.0Y-42.5
X112.319Y-72.949
X113.182Y-51.257
X113.5Y-35.0
X114.306Y-42.781
X115.25Y-32.25
X115.265Y-59.385
X116.75Y-30.0
X116.896Y-42.781
X117.007Y-31.447
X117.51Y-30.0
X117.602Y-66.192
X118.0Y-62.84
X118.5Y-29.25
X118.5Y-48.0
X118.75Y-26.75
X119.5Y-43.75
X119.634Y-75.286
X119.786Y-63.703
X119.99Y-56.794
X120.599Y-76.86
X120.75Y-23.0
X120.75Y-30.0
X121.056Y-74.727
X121.25Y-43.75
X121.5Y-64.75
X121.615Y-52.781
X121.92Y-76.708
X122.123Y-35.56
X122.682Y-72.39
X123.139Y-49.479
X123.495Y-60.858
X123.495Y-113.03
X123.5Y-47.25
X123.698Y-118.313
X123.749Y-62.84
X124.358Y-59.03
X124.409Y-56.896
X124.5Y-46.75
X124.866Y-49.581
X125.019Y-52.781
X125.019Y-70.206
X125.171Y-116.484
X125.832Y-84.023
X126.187Y-73.357
X126.594Y-35.509
X127.102Y-72.801
X127.356Y-66.243
X127.711Y-58.369
X127.711Y-71.12
X127.813Y-72.244
X128.473Y-74.471
X128.524Y-58.42
X128.575Y-89.713
X129.337Y-58.369
X129.794Y-60.147
X129.997Y-70.307
X130.097Y-58.369
X130.2Y-79.197
X130.251Y-80.874
X130.302Y-75.086
X130.857Y-58.369
X130.861Y-69.393
X130.912Y-66.243
X130.912Y-67.92
X131.115Y-59.792
X131.536Y-58.711
X131.674Y-89.306
X131.775Y-51.105
X132.486Y-83.312
X132.994Y-50.391
X133.35Y-42.672
X133.35Y-77.368
X133.807Y-109.118
X134.874Y-66.396
X135.128Y-53.696
X135.577Y-65.839
X135.89Y-42.723
X136.144Y-57.658
X136.144Y-59.944
X136.491Y-66.746
X137.262Y-66.697
X137.747Y-68.019
X137.773Y-67.259
X138.176Y-57.658
X138.176Y-59.944
X138.806Y-53.13
X139.04Y-49.835
X139.344Y-68.377
X139.499Y-80.483
X139.548Y-52.776
X139.802Y-83.312
X139.802Y-84.633
X139.802Y-85.852
X139.852Y-87.071
X140.0Y-71.5
X140.005Y-63.094
X140.098Y-75.411
X140.157Y-53.442
X140.852Y-75.507
X141.135Y-76.264
X141.526Y-35.512
X142.037Y-115.367
X142.138Y-94.031
X142.179Y-54.779
X142.342Y-58.412
X142.443Y-42.672
X142.494Y-47.295
X142.633Y-52.819
X142.748Y-52.067
X142.98Y-54.779
X143.227Y-58.294
X143.285Y-56.25
X143.662Y-73.406
X143.793Y-57.728
X144.0Y-71.427
X144.0Y-74.75
X144.25Y-48.75
X144.25Y-49.75
X144.374Y-62.332
X144.374Y-64.77
X144.374Y-65.43
X144.5Y-72.75
X144.55Y-57.657
X144.78Y-45.669
X145.44Y-71.984
X145.5Y-69.75
X146.609Y-35.966
X146.75Y-57.099
X146.759Y-64.25
X146.759Y-67.25
X146.863Y-58.674
X146.863Y-61.214
X147.016Y-56.0
X147.321Y-59.28
X148.234Y-89.357
T3
X112.172Y-27.45
X117.952Y-27.45
T4
X92.71Y-32.65
X97.79Y-32.65
X111.76Y-32.65
X116.84Y-32.65
X130.81Y-32.65
X135.89Y-32.65
T5
X108.75Y-57.34
X108.75Y-59.88
X108.75Y-62.42
X108.75Y-64.96
T6
X92.71Y-47.15
X95.25Y-47.15
X97.79Y-47.15
X111.76Y-47.15
X114.3Y-47.15
X116.84Y-47.15
X130.81Y-47.15
X133.35Y-47.15
X135.89Y-47.15
X146.406Y-86.817
X146.406Y-89.357
X146.406Y-91.897
T7
X92.08Y-58.42
X92.08Y-77.47
X92.08Y-96.52
X92.08Y-115.57
X98.42Y-55.88
X98.42Y-74.93
X98.42Y-93.98
X98.42Y-113.03
X111.13Y-77.47
X111.13Y-96.52
X111.13Y-115.57
X117.47Y-74.93
X117.47Y-93.98
X117.47Y-113.03
X130.18Y-77.47
X130.18Y-96.52
X130.18Y-115.57
X136.52Y-74.93
X136.52Y-93.98
X136.52Y-113.03
T9
X83.25Y-27.15
X83.25Y-127.15
X145.25Y-27.15
X145.25Y-127.15
T10
X95.88Y-60.96
X95.88Y-80.01
X95.88Y-99.06
X95.88Y-118.11
X114.93Y-80.01
X114.93Y-99.06
X114.93Y-118.11
X133.98Y-80.01
X133.98Y-99.06
X133.98Y-118.11
T2
G00X110.742Y-23.47
M15
G01X110.742Y-24.07
M16
G05
G00X110.742Y-27.53
M15
G01X110.742Y-28.43
M16
G05
G00X119.382Y-23.47
M15
G01X119.382Y-24.07
M16
G05
G00X119.382Y-27.53
M15
G01X119.382Y-28.43
M16
G05
T8
G00X89.55Y-39.75
M15
G01X89.55Y-39.55
M16
G05
G00X100.95Y-39.45
M15
G01X100.95Y-39.85
M16
G05
G00X108.6Y-39.75
M15
G01X108.6Y-39.55
M16
G05
G00X120.0Y-39.45
M15
G01X120.0Y-39.85
M16
G05
G00X127.65Y-39.75
M15
G01X127.65Y-39.55
M16
G05
G00X139.05Y-39.45
M15
G01X139.05Y-39.85
M16
G05
M30
