G04 #@! TF.GenerationSoftware,KiCad,Pcbnew,9.0.2*
G04 #@! TF.CreationDate,2025-06-26T19:32:41+02:00*
G04 #@! TF.ProjectId,Macro Pad,4d616372-6f20-4506-9164-2e6b69636164,rev?*
G04 #@! TF.SameCoordinates,Original*
G04 #@! TF.FileFunction,Copper,L4,Bot*
G04 #@! TF.FilePolarity,Positive*
%FSLAX46Y46*%
G04 Gerber Fmt 4.6, Leading zero omitted, Abs format (unit mm)*
G04 Created by KiCad (PCBNEW 9.0.2) date 2025-06-26 19:32:41*
%MOMM*%
%LPD*%
G01*
G04 APERTURE LIST*
G04 #@! TA.AperFunction,ComponentPad*
%ADD10C,1.520000*%
G04 #@! TD*
G04 #@! TA.AperFunction,ComponentPad*
%ADD11O,2.600000X3.000000*%
G04 #@! TD*
G04 #@! TA.AperFunction,ComponentPad*
%ADD12C,1.800000*%
G04 #@! TD*
G04 #@! TA.AperFunction,ComponentPad*
%ADD13C,5.500000*%
G04 #@! TD*
G04 #@! TA.AperFunction,ComponentPad*
%ADD14C,4.200000*%
G04 #@! TD*
G04 #@! TA.AperFunction,ComponentPad*
%ADD15C,2.400000*%
G04 #@! TD*
G04 #@! TA.AperFunction,ComponentPad*
%ADD16C,1.600000*%
G04 #@! TD*
G04 #@! TA.AperFunction,ComponentPad*
%ADD17R,1.800000X1.570000*%
G04 #@! TD*
G04 #@! TA.AperFunction,SMDPad,CuDef*
%ADD18R,0.800000X0.900000*%
G04 #@! TD*
G04 #@! TA.AperFunction,SMDPad,CuDef*
%ADD19R,0.860000X0.810000*%
G04 #@! TD*
G04 #@! TA.AperFunction,SMDPad,CuDef*
%ADD20R,0.900000X0.800000*%
G04 #@! TD*
G04 #@! TA.AperFunction,SMDPad,CuDef*
%ADD21R,0.200000X1.100000*%
G04 #@! TD*
G04 #@! TA.AperFunction,SMDPad,CuDef*
%ADD22R,1.100000X0.200000*%
G04 #@! TD*
G04 #@! TA.AperFunction,SMDPad,CuDef*
%ADD23R,3.100000X3.100000*%
G04 #@! TD*
G04 #@! TA.AperFunction,SMDPad,CuDef*
%ADD24R,0.750000X1.000000*%
G04 #@! TD*
G04 #@! TA.AperFunction,SMDPad,CuDef*
%ADD25R,0.910000X0.870000*%
G04 #@! TD*
G04 #@! TA.AperFunction,SMDPad,CuDef*
%ADD26R,0.810000X0.860000*%
G04 #@! TD*
G04 #@! TA.AperFunction,SMDPad,CuDef*
%ADD27R,1.100000X2.500000*%
G04 #@! TD*
G04 #@! TA.AperFunction,SMDPad,CuDef*
%ADD28R,3.600000X2.340000*%
G04 #@! TD*
G04 #@! TA.AperFunction,SMDPad,CuDef*
%ADD29O,2.250000X0.630000*%
G04 #@! TD*
G04 #@! TA.AperFunction,SMDPad,CuDef*
%ADD30R,1.000000X0.750000*%
G04 #@! TD*
G04 #@! TA.AperFunction,SMDPad,CuDef*
%ADD31R,1.200000X1.400000*%
G04 #@! TD*
G04 #@! TA.AperFunction,ComponentPad*
%ADD32C,0.700000*%
G04 #@! TD*
G04 #@! TA.AperFunction,SMDPad,CuDef*
%ADD33R,0.550000X1.100000*%
G04 #@! TD*
G04 #@! TA.AperFunction,SMDPad,CuDef*
%ADD34R,0.300000X1.100000*%
G04 #@! TD*
G04 #@! TA.AperFunction,ComponentPad*
%ADD35O,1.200000X1.800000*%
G04 #@! TD*
G04 #@! TA.AperFunction,ComponentPad*
%ADD36O,1.100000X2.000000*%
G04 #@! TD*
G04 #@! TA.AperFunction,ViaPad*
%ADD37C,0.610000*%
G04 #@! TD*
G04 #@! TA.AperFunction,Conductor*
%ADD38C,0.205740*%
G04 #@! TD*
G04 #@! TA.AperFunction,Conductor*
%ADD39C,0.510000*%
G04 #@! TD*
G04 #@! TA.AperFunction,Conductor*
%ADD40C,0.152400*%
G04 #@! TD*
G04 #@! TA.AperFunction,Conductor*
%ADD41C,0.206000*%
G04 #@! TD*
G04 #@! TA.AperFunction,Conductor*
%ADD42C,0.150000*%
G04 #@! TD*
G04 #@! TA.AperFunction,Conductor*
%ADD43C,0.762000*%
G04 #@! TD*
G04 #@! TA.AperFunction,Conductor*
%ADD44C,0.508000*%
G04 #@! TD*
G04 #@! TA.AperFunction,Conductor*
%ADD45C,0.155000*%
G04 #@! TD*
G04 APERTURE END LIST*
D10*
G04 #@! TO.P,ENC201,1,1*
G04 #@! TO.N,COL0*
X92710000Y-32650000D03*
G04 #@! TO.P,ENC201,2,2*
G04 #@! TO.N,/Keyboard/ENC1_SW*
X97790000Y-32650000D03*
D11*
G04 #@! TO.P,ENC201,3,3*
G04 #@! TO.N,GND*
X100950000Y-39650000D03*
G04 #@! TO.P,ENC201,4,4*
X89550000Y-39650000D03*
D12*
G04 #@! TO.P,ENC201,A,A*
G04 #@! TO.N,Net-(ENC201-PadA)*
X92710000Y-47150000D03*
G04 #@! TO.P,ENC201,B,B*
G04 #@! TO.N,Net-(ENC201-PadB)*
X97790000Y-47150000D03*
G04 #@! TO.P,ENC201,C,C*
G04 #@! TO.N,GND*
X95250000Y-47150000D03*
G04 #@! TD*
D13*
G04 #@! TO.P,H203,1,1*
G04 #@! TO.N,GND*
X83250000Y-127150000D03*
G04 #@! TD*
D14*
G04 #@! TO.P,SW210,*
G04 #@! TO.N,*
X133980000Y-118110000D03*
D15*
G04 #@! TO.P,SW210,1,1*
G04 #@! TO.N,COL2*
X130180000Y-115570000D03*
G04 #@! TO.P,SW210,2,2*
G04 #@! TO.N,Net-(D210-A)*
X136520000Y-113030000D03*
G04 #@! TD*
D14*
G04 #@! TO.P,SW202,*
G04 #@! TO.N,*
X95880000Y-80010000D03*
D15*
G04 #@! TO.P,SW202,1,1*
G04 #@! TO.N,COL0*
X92080000Y-77470000D03*
G04 #@! TO.P,SW202,2,2*
G04 #@! TO.N,Net-(D202-A)*
X98420000Y-74930000D03*
G04 #@! TD*
D16*
G04 #@! TO.P,OLED201,1,GND*
G04 #@! TO.N,GND*
X108750000Y-64960000D03*
G04 #@! TO.P,OLED201,2,VCC*
G04 #@! TO.N,+3V3*
X108750000Y-62420000D03*
G04 #@! TO.P,OLED201,3,SCL*
G04 #@! TO.N,OLED_SCL*
X108750000Y-59880000D03*
G04 #@! TO.P,OLED201,4,SDA*
G04 #@! TO.N,OLED_SDA*
X108750000Y-57340000D03*
G04 #@! TD*
D10*
G04 #@! TO.P,ENC202,1,1*
G04 #@! TO.N,COL1*
X111760000Y-32650000D03*
G04 #@! TO.P,ENC202,2,2*
G04 #@! TO.N,/Keyboard/ENC2_SW*
X116840000Y-32650000D03*
D11*
G04 #@! TO.P,ENC202,3,3*
G04 #@! TO.N,GND*
X120000000Y-39650000D03*
G04 #@! TO.P,ENC202,4,4*
X108600000Y-39650000D03*
D12*
G04 #@! TO.P,ENC202,A,A*
G04 #@! TO.N,Net-(ENC202-PadA)*
X111760000Y-47150000D03*
G04 #@! TO.P,ENC202,B,B*
G04 #@! TO.N,Net-(ENC202-PadB)*
X116840000Y-47150000D03*
G04 #@! TO.P,ENC202,C,C*
G04 #@! TO.N,GND*
X114300000Y-47150000D03*
G04 #@! TD*
D10*
G04 #@! TO.P,ENC203,1,1*
G04 #@! TO.N,COL2*
X130810000Y-32650000D03*
G04 #@! TO.P,ENC203,2,2*
G04 #@! TO.N,/Keyboard/ENC3_SW*
X135890000Y-32650000D03*
D11*
G04 #@! TO.P,ENC203,3,3*
G04 #@! TO.N,GND*
X139050000Y-39650000D03*
G04 #@! TO.P,ENC203,4,4*
X127650000Y-39650000D03*
D12*
G04 #@! TO.P,ENC203,A,A*
G04 #@! TO.N,Net-(ENC203-PadA)*
X130810000Y-47150000D03*
G04 #@! TO.P,ENC203,B,B*
G04 #@! TO.N,Net-(ENC203-PadB)*
X135890000Y-47150000D03*
G04 #@! TO.P,ENC203,C,C*
G04 #@! TO.N,GND*
X133350000Y-47150000D03*
G04 #@! TD*
D17*
G04 #@! TO.P,H101,1,1*
G04 #@! TO.N,/SWCLK*
X146405600Y-91897200D03*
D12*
G04 #@! TO.P,H101,2,2*
G04 #@! TO.N,GND*
X146405600Y-89357200D03*
G04 #@! TO.P,H101,3,3*
G04 #@! TO.N,/SWDIO*
X146405600Y-86817200D03*
G04 #@! TD*
D14*
G04 #@! TO.P,SW208,*
G04 #@! TO.N,*
X95880000Y-118110000D03*
D15*
G04 #@! TO.P,SW208,1,1*
G04 #@! TO.N,COL0*
X92080000Y-115570000D03*
G04 #@! TO.P,SW208,2,2*
G04 #@! TO.N,Net-(D208-A)*
X98420000Y-113030000D03*
G04 #@! TD*
D13*
G04 #@! TO.P,H202,1,1*
G04 #@! TO.N,GND*
X145250000Y-27150000D03*
G04 #@! TD*
G04 #@! TO.P,H201,1,1*
G04 #@! TO.N,GND*
X83250000Y-27150000D03*
G04 #@! TD*
D14*
G04 #@! TO.P,SW203,*
G04 #@! TO.N,*
X114930000Y-80010000D03*
D15*
G04 #@! TO.P,SW203,1,1*
G04 #@! TO.N,COL1*
X111130000Y-77470000D03*
G04 #@! TO.P,SW203,2,2*
G04 #@! TO.N,Net-(D203-A)*
X117470000Y-74930000D03*
G04 #@! TD*
D14*
G04 #@! TO.P,SW205,*
G04 #@! TO.N,*
X95880000Y-99060000D03*
D15*
G04 #@! TO.P,SW205,1,1*
G04 #@! TO.N,COL0*
X92080000Y-96520000D03*
G04 #@! TO.P,SW205,2,2*
G04 #@! TO.N,Net-(D205-A)*
X98420000Y-93980000D03*
G04 #@! TD*
D14*
G04 #@! TO.P,SW209,*
G04 #@! TO.N,*
X114930000Y-118110000D03*
D15*
G04 #@! TO.P,SW209,1,1*
G04 #@! TO.N,COL1*
X111130000Y-115570000D03*
G04 #@! TO.P,SW209,2,2*
G04 #@! TO.N,Net-(D209-A)*
X117470000Y-113030000D03*
G04 #@! TD*
D13*
G04 #@! TO.P,H204,1,1*
G04 #@! TO.N,GND*
X145250000Y-127150000D03*
G04 #@! TD*
D14*
G04 #@! TO.P,SW206,*
G04 #@! TO.N,*
X114930000Y-99060000D03*
D15*
G04 #@! TO.P,SW206,1,1*
G04 #@! TO.N,COL1*
X111130000Y-96520000D03*
G04 #@! TO.P,SW206,2,2*
G04 #@! TO.N,Net-(D206-A)*
X117470000Y-93980000D03*
G04 #@! TD*
D14*
G04 #@! TO.P,SW201,*
G04 #@! TO.N,*
X95880000Y-60960000D03*
D15*
G04 #@! TO.P,SW201,1,1*
G04 #@! TO.N,COL0*
X92080000Y-58420000D03*
G04 #@! TO.P,SW201,2,2*
G04 #@! TO.N,Net-(D201-A)*
X98420000Y-55880000D03*
G04 #@! TD*
D14*
G04 #@! TO.P,SW207,*
G04 #@! TO.N,*
X133980000Y-99060000D03*
D15*
G04 #@! TO.P,SW207,1,1*
G04 #@! TO.N,COL2*
X130180000Y-96520000D03*
G04 #@! TO.P,SW207,2,2*
G04 #@! TO.N,Net-(D207-A)*
X136520000Y-93980000D03*
G04 #@! TD*
D14*
G04 #@! TO.P,SW204,*
G04 #@! TO.N,*
X133980000Y-80010000D03*
D15*
G04 #@! TO.P,SW204,1,1*
G04 #@! TO.N,COL2*
X130180000Y-77470000D03*
G04 #@! TO.P,SW204,2,2*
G04 #@! TO.N,Net-(D204-A)*
X136520000Y-74930000D03*
G04 #@! TD*
D18*
G04 #@! TO.P,C119,1,1*
G04 #@! TO.N,/XIN*
X123026400Y-53898800D03*
G04 #@! TO.P,C119,2,2*
G04 #@! TO.N,GND*
X121626400Y-53898800D03*
G04 #@! TD*
D19*
G04 #@! TO.P,R209,1,1*
G04 #@! TO.N,Net-(ENC203-PadA)*
X130810000Y-49288000D03*
G04 #@! TO.P,R209,2,2*
G04 #@! TO.N,+3V3*
X130810000Y-50788000D03*
G04 #@! TD*
D20*
G04 #@! TO.P,C117,1,1*
G04 #@! TO.N,GND*
X107442000Y-26667000D03*
G04 #@! TO.P,C117,2,2*
G04 #@! TO.N,+5V_USB*
X107442000Y-28067000D03*
G04 #@! TD*
G04 #@! TO.P,C201,1,1*
G04 #@! TO.N,GND*
X95250000Y-45150000D03*
G04 #@! TO.P,C201,2,2*
G04 #@! TO.N,+3V3*
X95250000Y-43750000D03*
G04 #@! TD*
G04 #@! TO.P,C206,1,1*
G04 #@! TO.N,GND*
X122174000Y-47306000D03*
G04 #@! TO.P,C206,2,2*
G04 #@! TO.N,ENC2_B*
X122174000Y-48706000D03*
G04 #@! TD*
D18*
G04 #@! TO.P,C109,1,1*
G04 #@! TO.N,GND*
X145300000Y-49778000D03*
G04 #@! TO.P,C109,2,2*
G04 #@! TO.N,/+1V1*
X146700000Y-49778000D03*
G04 #@! TD*
D21*
G04 #@! TO.P,U102,1,IOVDD*
G04 #@! TO.N,+3V3*
X139760000Y-62319600D03*
G04 #@! TO.P,U102,2,GPIO0*
G04 #@! TO.N,COL0*
X139360000Y-62319600D03*
G04 #@! TO.P,U102,3,GPIO1*
G04 #@! TO.N,COL1*
X138960000Y-62319600D03*
G04 #@! TO.P,U102,4,GPIO2*
G04 #@! TO.N,COL2*
X138560000Y-62319600D03*
G04 #@! TO.P,U102,5,GPIO3*
G04 #@! TO.N,ROW0*
X138160000Y-62319600D03*
G04 #@! TO.P,U102,6,GPIO4*
G04 #@! TO.N,ROW1*
X137760000Y-62319600D03*
G04 #@! TO.P,U102,7,GPIO5*
G04 #@! TO.N,ROW2*
X137360000Y-62319600D03*
G04 #@! TO.P,U102,8,GPIO6*
G04 #@! TO.N,ROW3*
X136960000Y-62319600D03*
G04 #@! TO.P,U102,9,GPIO7*
G04 #@! TO.N,ROW4*
X136560000Y-62319600D03*
G04 #@! TO.P,U102,10,IOVDD*
G04 #@! TO.N,+3V3*
X136160000Y-62319600D03*
G04 #@! TO.P,U102,11,GPIO8*
G04 #@! TO.N,ENC1_A*
X135760000Y-62319600D03*
G04 #@! TO.P,U102,12,GPIO9*
G04 #@! TO.N,ENC1_B*
X135360000Y-62319600D03*
G04 #@! TO.P,U102,13,GPIO10*
G04 #@! TO.N,ENC2_A*
X134960000Y-62319600D03*
G04 #@! TO.P,U102,14,GPIO11*
G04 #@! TO.N,ENC2_B*
X134560000Y-62319600D03*
D22*
G04 #@! TO.P,U102,15,GPIO12*
G04 #@! TO.N,ENC3_A*
X133610000Y-61369600D03*
G04 #@! TO.P,U102,16,GPIO13*
G04 #@! TO.N,ENC3_B*
X133610000Y-60969600D03*
G04 #@! TO.P,U102,17,GPIO14*
G04 #@! TO.N,unconnected-(U102-GPIO14-Pad17)*
X133610000Y-60569600D03*
G04 #@! TO.P,U102,18,GPIO15*
G04 #@! TO.N,unconnected-(U102-GPIO15-Pad18)*
X133610000Y-60169600D03*
G04 #@! TO.P,U102,19,TESTEN*
G04 #@! TO.N,GND*
X133610000Y-59769600D03*
G04 #@! TO.P,U102,20,XIN*
G04 #@! TO.N,/XIN*
X133610000Y-59369600D03*
G04 #@! TO.P,U102,21,XOUT*
G04 #@! TO.N,/XOUT*
X133610000Y-58969600D03*
G04 #@! TO.P,U102,22,IOVDD*
G04 #@! TO.N,+3V3*
X133610000Y-58569600D03*
G04 #@! TO.P,U102,23,DVDD*
G04 #@! TO.N,/+1V1*
X133610000Y-58169600D03*
G04 #@! TO.P,U102,24,SWCLK*
G04 #@! TO.N,/SWCLK*
X133610000Y-57769600D03*
G04 #@! TO.P,U102,25,SWD*
G04 #@! TO.N,/SWDIO*
X133610000Y-57369600D03*
G04 #@! TO.P,U102,26,RUN*
G04 #@! TO.N,/RESET_N*
X133610000Y-56969600D03*
G04 #@! TO.P,U102,27,GPIO16*
G04 #@! TO.N,OLED_SDA*
X133610000Y-56569600D03*
G04 #@! TO.P,U102,28,GPIO17*
G04 #@! TO.N,OLED_SCL*
X133610000Y-56169600D03*
D21*
G04 #@! TO.P,U102,29,GPIO18*
G04 #@! TO.N,unconnected-(U102-GPIO18-Pad29)*
X134560000Y-55219600D03*
G04 #@! TO.P,U102,30,GPIO19*
G04 #@! TO.N,unconnected-(U102-GPIO19-Pad30)*
X134960000Y-55219600D03*
G04 #@! TO.P,U102,31,GPIO20*
G04 #@! TO.N,unconnected-(U102-GPIO20-Pad31)*
X135360000Y-55219600D03*
G04 #@! TO.P,U102,32,GPIO21*
G04 #@! TO.N,unconnected-(U102-GPIO21-Pad32)*
X135760000Y-55219600D03*
G04 #@! TO.P,U102,33,IOVDD*
G04 #@! TO.N,+3V3*
X136160000Y-55219600D03*
G04 #@! TO.P,U102,34,GPIO22*
G04 #@! TO.N,unconnected-(U102-GPIO22-Pad34)*
X136560000Y-55219600D03*
G04 #@! TO.P,U102,35,GPIO23*
G04 #@! TO.N,unconnected-(U102-GPIO23-Pad35)*
X136960000Y-55219600D03*
G04 #@! TO.P,U102,36,GPIO24*
G04 #@! TO.N,unconnected-(U102-GPIO24-Pad36)*
X137360000Y-55219600D03*
G04 #@! TO.P,U102,37,GPIO25*
G04 #@! TO.N,/USER_LED1*
X137760000Y-55219600D03*
G04 #@! TO.P,U102,38,GPIO26_ADC0*
G04 #@! TO.N,unconnected-(U102-GPIO26_ADC0-Pad38)*
X138160000Y-55219600D03*
G04 #@! TO.P,U102,39,GPIO27_ADC1*
G04 #@! TO.N,unconnected-(U102-GPIO27_ADC1-Pad39)*
X138560000Y-55219600D03*
G04 #@! TO.P,U102,40,GPIO28_ADC2*
G04 #@! TO.N,unconnected-(U102-GPIO28_ADC2-Pad40)*
X138960000Y-55219600D03*
G04 #@! TO.P,U102,41,GPIO29_ADC3*
G04 #@! TO.N,unconnected-(U102-GPIO29_ADC3-Pad41)*
X139360000Y-55219600D03*
G04 #@! TO.P,U102,42,IOVDD*
G04 #@! TO.N,+3V3*
X139760000Y-55219600D03*
D22*
G04 #@! TO.P,U102,43,ADC_AVDD*
G04 #@! TO.N,/+3V3_A*
X140710000Y-56169600D03*
G04 #@! TO.P,U102,44,VREG_IN*
G04 #@! TO.N,+3V3*
X140710000Y-56569600D03*
G04 #@! TO.P,U102,45,VREG_VOUT*
G04 #@! TO.N,/+1V1*
X140710000Y-56969600D03*
G04 #@! TO.P,U102,46,USB_DM*
G04 #@! TO.N,/USB_N*
X140710000Y-57369600D03*
G04 #@! TO.P,U102,47,USB_DP*
G04 #@! TO.N,/USB_P*
X140710000Y-57769600D03*
G04 #@! TO.P,U102,48,USB_VDD*
G04 #@! TO.N,+3V3*
X140710000Y-58169600D03*
G04 #@! TO.P,U102,49,IOVDD*
X140710000Y-58569600D03*
G04 #@! TO.P,U102,50,DVDD*
G04 #@! TO.N,/+1V1*
X140710000Y-58969600D03*
G04 #@! TO.P,U102,51,QSPI_SD3*
G04 #@! TO.N,/QSPI_SD3*
X140710000Y-59369600D03*
G04 #@! TO.P,U102,52,QSPI_SCLK*
G04 #@! TO.N,/QSPI_SCLK*
X140710000Y-59769600D03*
G04 #@! TO.P,U102,53,QSPI_SD0*
G04 #@! TO.N,/QSPI_SD0*
X140710000Y-60169600D03*
G04 #@! TO.P,U102,54,QSPI_SD2*
G04 #@! TO.N,/QSPI_SD2*
X140710000Y-60569600D03*
G04 #@! TO.P,U102,55,QSPI_SD1*
G04 #@! TO.N,/QSPI_SD1*
X140710000Y-60969600D03*
G04 #@! TO.P,U102,56,QSPI_SS*
G04 #@! TO.N,/QSPI_SS*
X140710000Y-61369600D03*
D23*
G04 #@! TO.P,U102,57,GND*
G04 #@! TO.N,GND*
X137160000Y-58769600D03*
G04 #@! TD*
D18*
G04 #@! TO.P,C107,1,1*
G04 #@! TO.N,GND*
X145796000Y-58674000D03*
G04 #@! TO.P,C107,2,2*
G04 #@! TO.N,/+1V1*
X144396000Y-58674000D03*
G04 #@! TD*
D24*
G04 #@! TO.P,D208,1,K*
G04 #@! TO.N,ROW3*
X105250000Y-115320000D03*
G04 #@! TO.P,D208,2,A*
G04 #@! TO.N,Net-(D208-A)*
X105250000Y-112980000D03*
G04 #@! TD*
D25*
G04 #@! TO.P,D103,1,K*
G04 #@! TO.N,GND*
X123037600Y-35539200D03*
G04 #@! TO.P,D103,2,A*
G04 #@! TO.N,/CON_USB_N*
X123037600Y-34239200D03*
G04 #@! TD*
D26*
G04 #@! TO.P,R108,1,1*
G04 #@! TO.N,Net-(C120-Pad1)*
X121220800Y-61315600D03*
G04 #@! TO.P,R108,2,2*
G04 #@! TO.N,/XOUT*
X122720800Y-61315600D03*
G04 #@! TD*
D18*
G04 #@! TO.P,C114,1,1*
G04 #@! TO.N,GND*
X128535200Y-66268600D03*
G04 #@! TO.P,C114,2,2*
G04 #@! TO.N,+3V3*
X129935200Y-66268600D03*
G04 #@! TD*
D27*
G04 #@! TO.P,U101,1,ADJ/GND*
G04 #@! TO.N,GND*
X89574400Y-66724000D03*
G04 #@! TO.P,U101,2,VO*
G04 #@! TO.N,+3V3*
X87274400Y-66724000D03*
G04 #@! TO.P,U101,3,VI*
G04 #@! TO.N,+5V_USB*
X84974400Y-66724000D03*
D28*
G04 #@! TO.P,U101,4,TAB*
G04 #@! TO.N,+3V3*
X87274400Y-60784000D03*
G04 #@! TD*
D20*
G04 #@! TO.P,C121,1,1*
G04 #@! TO.N,GND*
X88138000Y-30796000D03*
G04 #@! TO.P,C121,2,2*
G04 #@! TO.N,/RESET_N*
X88138000Y-32196000D03*
G04 #@! TD*
D26*
G04 #@! TO.P,R105,1,1*
G04 #@! TO.N,/CON_USB_P*
X145846800Y-53035200D03*
G04 #@! TO.P,R105,2,2*
G04 #@! TO.N,/USB_P*
X144346800Y-53035200D03*
G04 #@! TD*
D18*
G04 #@! TO.P,C202,1,1*
G04 #@! TO.N,GND*
X86549000Y-45212000D03*
G04 #@! TO.P,C202,2,2*
G04 #@! TO.N,ENC1_A*
X87949000Y-45212000D03*
G04 #@! TD*
D24*
G04 #@! TO.P,D206,1,K*
G04 #@! TO.N,ROW2*
X124250000Y-96320000D03*
G04 #@! TO.P,D206,2,A*
G04 #@! TO.N,Net-(D206-A)*
X124250000Y-93980000D03*
G04 #@! TD*
D19*
G04 #@! TO.P,R210,1,1*
G04 #@! TO.N,Net-(ENC203-PadB)*
X135890000Y-45200000D03*
G04 #@! TO.P,R210,2,2*
G04 #@! TO.N,+3V3*
X135890000Y-43700000D03*
G04 #@! TD*
G04 #@! TO.P,R111,1,1*
G04 #@! TO.N,Net-(SW102-C)*
X86614000Y-30746000D03*
G04 #@! TO.P,R111,2,2*
G04 #@! TO.N,/RESET_N*
X86614000Y-32246000D03*
G04 #@! TD*
D26*
G04 #@! TO.P,R106,1,1*
G04 #@! TO.N,Net-(USB101-CC2)*
X115112800Y-33883600D03*
G04 #@! TO.P,R106,2,2*
G04 #@! TO.N,GND*
X113612800Y-33883600D03*
G04 #@! TD*
D29*
G04 #@! TO.P,U103,1,~{CS}*
G04 #@! TO.N,/QSPI_SS*
X137591200Y-83281600D03*
G04 #@! TO.P,U103,2,DO*
G04 #@! TO.N,/QSPI_SD1*
X137591200Y-84561600D03*
G04 #@! TO.P,U103,3,IO2*
G04 #@! TO.N,/QSPI_SD2*
X137591200Y-85821600D03*
G04 #@! TO.P,U103,4,GND*
G04 #@! TO.N,GND*
X137591200Y-87091600D03*
G04 #@! TO.P,U103,5,DI*
G04 #@! TO.N,/QSPI_SD0*
X130531200Y-87091600D03*
G04 #@! TO.P,U103,6,CLK*
G04 #@! TO.N,/QSPI_SCLK*
X130531200Y-85821600D03*
G04 #@! TO.P,U103,7,IO3*
G04 #@! TO.N,/QSPI_SD3*
X130531200Y-84561600D03*
G04 #@! TO.P,U103,8,VCC*
G04 #@! TO.N,+3V3*
X130531200Y-83281600D03*
G04 #@! TD*
D18*
G04 #@! TO.P,C208,1,1*
G04 #@! TO.N,GND*
X124522000Y-45212000D03*
G04 #@! TO.P,C208,2,2*
G04 #@! TO.N,ENC3_A*
X125922000Y-45212000D03*
G04 #@! TD*
D19*
G04 #@! TO.P,R110,1,1*
G04 #@! TO.N,+3V3*
X141478000Y-42684000D03*
G04 #@! TO.P,R110,2,2*
G04 #@! TO.N,/QSPI_SS*
X141478000Y-44184000D03*
G04 #@! TD*
D26*
G04 #@! TO.P,R104,1,1*
G04 #@! TO.N,/CON_USB_N*
X145846800Y-54356000D03*
G04 #@! TO.P,R104,2,2*
G04 #@! TO.N,/USB_N*
X144346800Y-54356000D03*
G04 #@! TD*
D30*
G04 #@! TO.P,SW102,1,A*
G04 #@! TO.N,GND*
X86868000Y-36758000D03*
G04 #@! TO.P,SW102,2,B*
X80868000Y-36758000D03*
G04 #@! TO.P,SW102,3,C*
G04 #@! TO.N,Net-(SW102-C)*
X86868000Y-40458000D03*
G04 #@! TO.P,SW102,4,D*
X80868000Y-40458000D03*
G04 #@! TD*
D19*
G04 #@! TO.P,R102,1,1*
G04 #@! TO.N,Net-(LED101-A)*
X105664000Y-33782000D03*
G04 #@! TO.P,R102,2,2*
G04 #@! TO.N,+3V3*
X105664000Y-35282000D03*
G04 #@! TD*
D20*
G04 #@! TO.P,C207,1,1*
G04 #@! TO.N,GND*
X133350000Y-45150000D03*
G04 #@! TO.P,C207,2,2*
G04 #@! TO.N,+3V3*
X133350000Y-43750000D03*
G04 #@! TD*
D19*
G04 #@! TO.P,R201,1,1*
G04 #@! TO.N,Net-(ENC201-PadA)*
X92710000Y-48907000D03*
G04 #@! TO.P,R201,2,2*
G04 #@! TO.N,+3V3*
X92710000Y-50407000D03*
G04 #@! TD*
G04 #@! TO.P,R205,1,1*
G04 #@! TO.N,Net-(ENC202-PadA)*
X111760000Y-49034000D03*
G04 #@! TO.P,R205,2,2*
G04 #@! TO.N,+3V3*
X111760000Y-50534000D03*
G04 #@! TD*
D18*
G04 #@! TO.P,C112,1,1*
G04 #@! TO.N,GND*
X125041200Y-53848000D03*
G04 #@! TO.P,C112,2,2*
G04 #@! TO.N,+3V3*
X126441200Y-53848000D03*
G04 #@! TD*
G04 #@! TO.P,C103,1,1*
G04 #@! TO.N,GND*
X145796000Y-64250000D03*
G04 #@! TO.P,C103,2,2*
G04 #@! TO.N,+3V3*
X144396000Y-64250000D03*
G04 #@! TD*
D24*
G04 #@! TO.P,D212,1,K*
G04 #@! TO.N,ROW4*
X116840000Y-36984000D03*
G04 #@! TO.P,D212,2,A*
G04 #@! TO.N,/Keyboard/ENC2_SW*
X116840000Y-34644000D03*
G04 #@! TD*
G04 #@! TO.P,D213,1,K*
G04 #@! TO.N,ROW4*
X135890000Y-37138000D03*
G04 #@! TO.P,D213,2,A*
G04 #@! TO.N,/Keyboard/ENC3_SW*
X135890000Y-34798000D03*
G04 #@! TD*
G04 #@! TO.P,D204,1,K*
G04 #@! TO.N,ROW1*
X143250000Y-77320000D03*
G04 #@! TO.P,D204,2,A*
G04 #@! TO.N,Net-(D204-A)*
X143250000Y-74980000D03*
G04 #@! TD*
D18*
G04 #@! TO.P,C113,1,1*
G04 #@! TO.N,GND*
X121270800Y-62839600D03*
G04 #@! TO.P,C113,2,2*
G04 #@! TO.N,+3V3*
X122670800Y-62839600D03*
G04 #@! TD*
D26*
G04 #@! TO.P,R101,1,1*
G04 #@! TO.N,+3V3*
X129985200Y-67919600D03*
G04 #@! TO.P,R101,2,2*
G04 #@! TO.N,/+3V3_A*
X128485200Y-67919600D03*
G04 #@! TD*
D24*
G04 #@! TO.P,D209,1,K*
G04 #@! TO.N,ROW3*
X124250000Y-115320000D03*
G04 #@! TO.P,D209,2,A*
G04 #@! TO.N,Net-(D209-A)*
X124250000Y-112980000D03*
G04 #@! TD*
D20*
G04 #@! TO.P,C203,1,1*
G04 #@! TO.N,GND*
X103886000Y-46544000D03*
G04 #@! TO.P,C203,2,2*
G04 #@! TO.N,ENC1_B*
X103886000Y-47944000D03*
G04 #@! TD*
D26*
G04 #@! TO.P,R207,1,1*
G04 #@! TO.N,ENC2_A*
X108724000Y-45212000D03*
G04 #@! TO.P,R207,2,2*
G04 #@! TO.N,Net-(ENC202-PadA)*
X110224000Y-45212000D03*
G04 #@! TD*
D24*
G04 #@! TO.P,D211,1,K*
G04 #@! TO.N,ROW4*
X97790000Y-36857000D03*
G04 #@! TO.P,D211,2,A*
G04 #@! TO.N,/Keyboard/ENC1_SW*
X97790000Y-34517000D03*
G04 #@! TD*
D31*
G04 #@! TO.P,U104,1,1*
G04 #@! TO.N,/XIN*
X123061400Y-56825400D03*
G04 #@! TO.P,U104,2,GND*
G04 #@! TO.N,GND*
X123061400Y-59025400D03*
G04 #@! TO.P,U104,3,3*
G04 #@! TO.N,Net-(C120-Pad1)*
X121361400Y-59025400D03*
G04 #@! TO.P,U104,4,GND*
G04 #@! TO.N,GND*
X121361400Y-56825400D03*
G04 #@! TD*
D20*
G04 #@! TO.P,C204,1,1*
G04 #@! TO.N,GND*
X114300000Y-45404000D03*
G04 #@! TO.P,C204,2,2*
G04 #@! TO.N,+3V3*
X114300000Y-44004000D03*
G04 #@! TD*
D18*
G04 #@! TO.P,C106,1,1*
G04 #@! TO.N,GND*
X129935200Y-71221600D03*
G04 #@! TO.P,C106,2,2*
G04 #@! TO.N,+3V3*
X128535200Y-71221600D03*
G04 #@! TD*
D25*
G04 #@! TO.P,D101,1,K*
G04 #@! TO.N,GND*
X121158000Y-27036000D03*
G04 #@! TO.P,D101,2,A*
G04 #@! TO.N,+5V_USB*
X121158000Y-28336000D03*
G04 #@! TD*
D20*
G04 #@! TO.P,C101,1,1*
G04 #@! TO.N,GND*
X119786400Y-66232000D03*
G04 #@! TO.P,C101,2,2*
G04 #@! TO.N,+3V3*
X119786400Y-64832000D03*
G04 #@! TD*
D25*
G04 #@! TO.P,D104,1,K*
G04 #@! TO.N,GND*
X125526800Y-35539200D03*
G04 #@! TO.P,D104,2,A*
G04 #@! TO.N,/CON_USB_P*
X125526800Y-34239200D03*
G04 #@! TD*
D19*
G04 #@! TO.P,R103,1,1*
G04 #@! TO.N,Net-(LED102-A)*
X104140000Y-33794000D03*
G04 #@! TO.P,R103,2,2*
G04 #@! TO.N,/USER_LED1*
X104140000Y-35294000D03*
G04 #@! TD*
D25*
G04 #@! TO.P,D102,1,K*
G04 #@! TO.N,GND*
X109093000Y-26782000D03*
G04 #@! TO.P,D102,2,A*
G04 #@! TO.N,+5V_USB*
X109093000Y-28082000D03*
G04 #@! TD*
D18*
G04 #@! TO.P,C104,1,1*
G04 #@! TO.N,GND*
X122642400Y-70231000D03*
G04 #@! TO.P,C104,2,2*
G04 #@! TO.N,+3V3*
X124042400Y-70231000D03*
G04 #@! TD*
D26*
G04 #@! TO.P,R107,1,1*
G04 #@! TO.N,Net-(USB101-CC1)*
X121182000Y-25273000D03*
G04 #@! TO.P,R107,2,2*
G04 #@! TO.N,GND*
X122682000Y-25273000D03*
G04 #@! TD*
D24*
G04 #@! TO.P,D207,1,K*
G04 #@! TO.N,ROW2*
X143250000Y-96320000D03*
G04 #@! TO.P,D207,2,A*
G04 #@! TO.N,Net-(D207-A)*
X143250000Y-93980000D03*
G04 #@! TD*
G04 #@! TO.P,D203,1,K*
G04 #@! TO.N,ROW1*
X124250000Y-77320000D03*
G04 #@! TO.P,D203,2,A*
G04 #@! TO.N,Net-(D203-A)*
X124250000Y-74980000D03*
G04 #@! TD*
D19*
G04 #@! TO.P,R206,1,1*
G04 #@! TO.N,Net-(ENC202-PadB)*
X116840000Y-45492800D03*
G04 #@! TO.P,R206,2,2*
G04 #@! TO.N,+3V3*
X116840000Y-43992800D03*
G04 #@! TD*
D18*
G04 #@! TO.P,C205,1,1*
G04 #@! TO.N,GND*
X105472000Y-45212000D03*
G04 #@! TO.P,C205,2,2*
G04 #@! TO.N,ENC2_A*
X106872000Y-45212000D03*
G04 #@! TD*
G04 #@! TO.P,C115,1,1*
G04 #@! TO.N,GND*
X145893465Y-67250000D03*
G04 #@! TO.P,C115,2,2*
G04 #@! TO.N,+3V3*
X144493465Y-67250000D03*
G04 #@! TD*
G04 #@! TO.P,C105,1,1*
G04 #@! TO.N,GND*
X129935200Y-69443600D03*
G04 #@! TO.P,C105,2,2*
G04 #@! TO.N,/+3V3_A*
X128535200Y-69443600D03*
G04 #@! TD*
D20*
G04 #@! TO.P,C111,1,1*
G04 #@! TO.N,GND*
X87377000Y-70488000D03*
G04 #@! TO.P,C111,2,2*
G04 #@! TO.N,+3V3*
X87377000Y-69088000D03*
G04 #@! TD*
D24*
G04 #@! TO.P,D210,1,K*
G04 #@! TO.N,ROW3*
X143250000Y-115320000D03*
G04 #@! TO.P,D210,2,A*
G04 #@! TO.N,Net-(D210-A)*
X143250000Y-112980000D03*
G04 #@! TD*
D19*
G04 #@! TO.P,R202,1,1*
G04 #@! TO.N,Net-(ENC201-PadB)*
X97790000Y-45200000D03*
G04 #@! TO.P,R202,2,2*
G04 #@! TO.N,+3V3*
X97790000Y-43700000D03*
G04 #@! TD*
D24*
G04 #@! TO.P,D205,1,K*
G04 #@! TO.N,ROW2*
X105250000Y-96320000D03*
G04 #@! TO.P,D205,2,A*
G04 #@! TO.N,Net-(D205-A)*
X105250000Y-93980000D03*
G04 #@! TD*
D26*
G04 #@! TO.P,R109,1,1*
G04 #@! TO.N,Net-(SW102-C)*
X83070000Y-42926000D03*
G04 #@! TO.P,R109,2,2*
G04 #@! TO.N,+3V3*
X84570000Y-42926000D03*
G04 #@! TD*
D20*
G04 #@! TO.P,C116,1,1*
G04 #@! TO.N,GND*
X124206000Y-26986000D03*
G04 #@! TO.P,C116,2,2*
G04 #@! TO.N,+5V_USB*
X124206000Y-28386000D03*
G04 #@! TD*
D26*
G04 #@! TO.P,R211,1,1*
G04 #@! TO.N,ENC3_A*
X127774000Y-45212000D03*
G04 #@! TO.P,R211,2,2*
G04 #@! TO.N,Net-(ENC203-PadA)*
X129274000Y-45212000D03*
G04 #@! TD*
D19*
G04 #@! TO.P,R208,1,1*
G04 #@! TO.N,ENC2_B*
X120396000Y-48756000D03*
G04 #@! TO.P,R208,2,2*
G04 #@! TO.N,Net-(ENC202-PadB)*
X120396000Y-47256000D03*
G04 #@! TD*
D24*
G04 #@! TO.P,D202,1,K*
G04 #@! TO.N,ROW1*
X105250000Y-77320000D03*
G04 #@! TO.P,D202,2,A*
G04 #@! TO.N,Net-(D202-A)*
X105250000Y-74980000D03*
G04 #@! TD*
D20*
G04 #@! TO.P,C209,1,1*
G04 #@! TO.N,GND*
X141478000Y-47306000D03*
G04 #@! TO.P,C209,2,2*
G04 #@! TO.N,ENC3_B*
X141478000Y-48706000D03*
G04 #@! TD*
D18*
G04 #@! TO.P,C102,1,1*
G04 #@! TO.N,GND*
X145796000Y-61500000D03*
G04 #@! TO.P,C102,2,2*
G04 #@! TO.N,+3V3*
X144396000Y-61500000D03*
G04 #@! TD*
G04 #@! TO.P,C108,1,1*
G04 #@! TO.N,GND*
X145350000Y-48000000D03*
G04 #@! TO.P,C108,2,2*
G04 #@! TO.N,/+1V1*
X146750000Y-48000000D03*
G04 #@! TD*
D20*
G04 #@! TO.P,C110,1,1*
G04 #@! TO.N,GND*
X84964000Y-70488000D03*
G04 #@! TO.P,C110,2,2*
G04 #@! TO.N,+5V_USB*
X84964000Y-69088000D03*
G04 #@! TD*
G04 #@! TO.P,C118,1,1*
G04 #@! TO.N,GND*
X80467200Y-61558400D03*
G04 #@! TO.P,C118,2,2*
G04 #@! TO.N,+3V3*
X80467200Y-60158400D03*
G04 #@! TD*
D18*
G04 #@! TO.P,C120,1,1*
G04 #@! TO.N,Net-(C120-Pad1)*
X117794000Y-59385200D03*
G04 #@! TO.P,C120,2,2*
G04 #@! TO.N,GND*
X116394000Y-59385200D03*
G04 #@! TD*
D19*
G04 #@! TO.P,R212,1,1*
G04 #@! TO.N,ENC3_B*
X139827000Y-48756000D03*
G04 #@! TO.P,R212,2,2*
G04 #@! TO.N,Net-(ENC203-PadB)*
X139827000Y-47256000D03*
G04 #@! TD*
D32*
G04 #@! TO.P,USB101,*
G04 #@! TO.N,*
X112172000Y-27450000D03*
X117952000Y-27450000D03*
D33*
G04 #@! TO.P,USB101,1,GND*
G04 #@! TO.N,GND*
X111862000Y-28530000D03*
G04 #@! TO.P,USB101,2,VBUS*
G04 #@! TO.N,+5V_USB*
X112662000Y-28530000D03*
D34*
G04 #@! TO.P,USB101,3,SBU2*
G04 #@! TO.N,unconnected-(USB101-SBU2-Pad3)*
X113312000Y-28530000D03*
G04 #@! TO.P,USB101,4,CC1*
G04 #@! TO.N,Net-(USB101-CC1)*
X113812000Y-28530000D03*
G04 #@! TO.P,USB101,5,DN2*
G04 #@! TO.N,/CON_USB_N*
X114312000Y-28530000D03*
G04 #@! TO.P,USB101,6,DP1*
G04 #@! TO.N,/CON_USB_P*
X114812000Y-28530000D03*
G04 #@! TO.P,USB101,7,DN1*
G04 #@! TO.N,/CON_USB_N*
X115312000Y-28530000D03*
G04 #@! TO.P,USB101,8,DP2*
G04 #@! TO.N,/CON_USB_P*
X115812000Y-28530000D03*
G04 #@! TO.P,USB101,9,SBU1*
G04 #@! TO.N,unconnected-(USB101-SBU1-Pad9)*
X116312000Y-28530000D03*
G04 #@! TO.P,USB101,10,CC2*
G04 #@! TO.N,Net-(USB101-CC2)*
X116812000Y-28530000D03*
D33*
G04 #@! TO.P,USB101,11,VBUS*
G04 #@! TO.N,+5V_USB*
X117462000Y-28530000D03*
G04 #@! TO.P,USB101,12,GND*
G04 #@! TO.N,GND*
X118262000Y-28530000D03*
D35*
G04 #@! TO.P,USB101,13,SHELL*
X110742000Y-23770000D03*
D36*
X110742000Y-27980000D03*
D35*
G04 #@! TO.P,USB101,14,SHELL*
X119382000Y-23770000D03*
D36*
X119382000Y-27980000D03*
G04 #@! TD*
D19*
G04 #@! TO.P,R204,1,1*
G04 #@! TO.N,ENC1_B*
X102108000Y-47994000D03*
G04 #@! TO.P,R204,2,2*
G04 #@! TO.N,Net-(ENC201-PadB)*
X102108000Y-46494000D03*
G04 #@! TD*
D30*
G04 #@! TO.P,SW101,1,A*
G04 #@! TO.N,GND*
X147526000Y-36758000D03*
G04 #@! TO.P,SW101,2,B*
X141526000Y-36758000D03*
G04 #@! TO.P,SW101,3,C*
G04 #@! TO.N,+3V3*
X147526000Y-40458000D03*
G04 #@! TO.P,SW101,4,D*
X141526000Y-40458000D03*
G04 #@! TD*
D24*
G04 #@! TO.P,D201,1,K*
G04 #@! TO.N,ROW0*
X105250000Y-58320000D03*
G04 #@! TO.P,D201,2,A*
G04 #@! TO.N,Net-(D201-A)*
X105250000Y-55980000D03*
G04 #@! TD*
D26*
G04 #@! TO.P,R203,1,1*
G04 #@! TO.N,ENC1_A*
X89674000Y-45212000D03*
G04 #@! TO.P,R203,2,2*
G04 #@! TO.N,Net-(ENC201-PadA)*
X91174000Y-45212000D03*
G04 #@! TD*
D37*
G04 #@! TO.N,+3V3*
X125018800Y-70205600D03*
X144373600Y-62331600D03*
X119500000Y-43750000D03*
X103750000Y-36427400D03*
X127711200Y-71120000D03*
X131775200Y-51104800D03*
X120599200Y-76860400D03*
X135890000Y-42722800D03*
X92750000Y-51750000D03*
X131673600Y-89306400D03*
X114305600Y-42781400D03*
X130911600Y-66243200D03*
X130911600Y-67919600D03*
X119786400Y-63703200D03*
X123748800Y-62839600D03*
X121500000Y-64750000D03*
X144373600Y-65430400D03*
X133350000Y-42672000D03*
X108750000Y-42500000D03*
X144373600Y-64770000D03*
X140004800Y-63093600D03*
X118500000Y-48000000D03*
X142341600Y-58411730D03*
X97790000Y-42418000D03*
X142443200Y-42672000D03*
X121250000Y-43750000D03*
X128574800Y-89712800D03*
X102750000Y-38000000D03*
X112000000Y-42500000D03*
X116896400Y-42781400D03*
X135128000Y-53695600D03*
X95250000Y-42468800D03*
X104500000Y-65500000D03*
X86000000Y-42750000D03*
X132486400Y-83312000D03*
G04 #@! TO.N,GND*
X131114800Y-59791600D03*
X95758000Y-24282400D03*
X109250000Y-23250000D03*
X113500000Y-35000000D03*
X107500000Y-25804200D03*
X141526000Y-35512000D03*
X80473600Y-62776400D03*
X111633000Y-26136600D03*
X144250000Y-49750000D03*
X124358400Y-59029600D03*
X122682000Y-72390000D03*
X136144000Y-59944000D03*
X144250000Y-48750000D03*
X138176000Y-57658000D03*
X89560400Y-68935600D03*
X111750000Y-29500000D03*
X146759000Y-64250000D03*
X146862800Y-61214000D03*
X125018800Y-52781200D03*
X124500000Y-46750000D03*
X146759000Y-67250000D03*
X84937600Y-71780400D03*
X122123200Y-35560000D03*
X127355600Y-66243200D03*
X86918800Y-35661600D03*
X118000000Y-62839600D03*
X86563200Y-47091600D03*
X126593600Y-35509200D03*
X110718600Y-29489400D03*
X139852400Y-87071200D03*
X80873600Y-35661600D03*
X146608800Y-35966400D03*
X123500000Y-47250000D03*
X115265200Y-59385200D03*
X119989600Y-56794400D03*
X146862800Y-58674000D03*
X120750000Y-23000000D03*
X105460800Y-46431200D03*
X138176000Y-59944000D03*
X103936800Y-45364400D03*
X118500000Y-29250000D03*
X121615200Y-52781200D03*
X148234400Y-89357200D03*
X109000000Y-25804200D03*
X87376000Y-71780400D03*
X106476800Y-29413200D03*
X136144000Y-57658000D03*
X142494000Y-47294800D03*
X88143600Y-29675000D03*
X102616000Y-24434800D03*
X118750000Y-26750000D03*
X117602000Y-66192400D03*
X130860800Y-69392800D03*
X129997200Y-70307200D03*
G04 #@! TO.N,/+3V3_A*
X143284728Y-56250000D03*
X121920000Y-76708000D03*
X145500000Y-69750000D03*
X144549896Y-57657070D03*
G04 #@! TO.N,/+1V1*
X146750000Y-57099200D03*
X147321060Y-59280298D03*
G04 #@! TO.N,+5V_USB*
X117510003Y-30000000D03*
X117007431Y-31446589D03*
X120750000Y-30000000D03*
G04 #@! TO.N,/XIN*
X129794000Y-60147200D03*
X124409200Y-56896000D03*
G04 #@! TO.N,/RESET_N*
X89052400Y-32613600D03*
X142632879Y-52818633D03*
G04 #@! TO.N,ENC1_B*
X107035600Y-49123600D03*
X127711200Y-58369200D03*
G04 #@! TO.N,ENC2_A*
X108052059Y-49529541D03*
X128524000Y-58420000D03*
G04 #@! TO.N,ENC2_B*
X123139200Y-49479200D03*
X129336800Y-58369200D03*
G04 #@! TO.N,Net-(D201-A)*
X104444800Y-55880000D03*
G04 #@! TO.N,ROW0*
X105206800Y-60147200D03*
X137262101Y-66696757D03*
G04 #@! TO.N,COL1*
X108661200Y-54152800D03*
X137746791Y-68018856D03*
X110032800Y-50800000D03*
X112318800Y-72948800D03*
X119634000Y-75285600D03*
G04 #@! TO.N,Net-(D204-A)*
X144000000Y-71427000D03*
X144000000Y-74750000D03*
X144500000Y-72750000D03*
X140000000Y-71500000D03*
G04 #@! TO.N,Net-(D205-A)*
X104190800Y-93929200D03*
G04 #@! TO.N,Net-(D207-A)*
X142138400Y-94030800D03*
G04 #@! TO.N,Net-(D208-A)*
X104394000Y-113030000D03*
G04 #@! TO.N,Net-(D209-A)*
X123494800Y-113030000D03*
G04 #@! TO.N,ROW3*
X127812800Y-72244200D03*
X125171200Y-116484400D03*
X133807200Y-109118400D03*
X135577189Y-65839000D03*
X123698000Y-118313200D03*
X142036800Y-115366800D03*
G04 #@! TO.N,ROW4*
X128473200Y-74470600D03*
X110058200Y-63068200D03*
X121056400Y-74726800D03*
X97790000Y-39065200D03*
G04 #@! TO.N,COL0*
X139344400Y-68376800D03*
X94000000Y-52750000D03*
G04 #@! TO.N,/SWDIO*
X142748000Y-52067400D03*
G04 #@! TO.N,/SWCLK*
X147016400Y-56000000D03*
G04 #@! TO.N,Net-(LED101-A)*
X102717600Y-29413200D03*
G04 #@! TO.N,Net-(LED102-A)*
X95859600Y-29311600D03*
G04 #@! TO.N,OLED_SDA*
X139547600Y-52775800D03*
X113182400Y-51257200D03*
G04 #@! TO.N,OLED_SCL*
X110185200Y-57302400D03*
X138805641Y-53130000D03*
X132994400Y-50391400D03*
G04 #@! TO.N,/USER_LED1*
X140157200Y-53441600D03*
X102666800Y-35509200D03*
G04 #@! TO.N,/USB_N*
X143793197Y-57727832D03*
X142979728Y-54778772D03*
G04 #@! TO.N,/USB_P*
X142178728Y-54778772D03*
X143226803Y-58294226D03*
G04 #@! TO.N,Net-(USB101-CC2)*
X116750000Y-30000000D03*
X115250000Y-32250000D03*
G04 #@! TO.N,/XOUT*
X123494800Y-60858400D03*
X131535705Y-58710812D03*
G04 #@! TO.N,/QSPI_SS*
X139801600Y-83312000D03*
X140097547Y-75411182D03*
X143662400Y-73406000D03*
G04 #@! TO.N,COL2*
X144780000Y-45669200D03*
X145440400Y-71983600D03*
X130200400Y-79197200D03*
X130302000Y-75086000D03*
X133350000Y-77368400D03*
X137773118Y-67259310D03*
X130251200Y-80873600D03*
G04 #@! TO.N,/QSPI_SD2*
X141135224Y-76263624D03*
X139801600Y-85852000D03*
G04 #@! TO.N,/QSPI_SD1*
X140851543Y-75506539D03*
X139801600Y-84632800D03*
G04 #@! TO.N,ENC3_A*
X124866400Y-49580800D03*
X130096803Y-58369200D03*
G04 #@! TO.N,ENC3_B*
X130856806Y-58369200D03*
X139039600Y-49834800D03*
G04 #@! TO.N,ROW1*
X136491488Y-66745976D03*
X139499000Y-80483064D03*
X125831600Y-84023200D03*
X126187200Y-73357400D03*
G04 #@! TO.N,ROW2*
X134874000Y-66395600D03*
X127101600Y-72800800D03*
G04 #@! TO.N,Net-(D202-A)*
X104292400Y-74930000D03*
G04 #@! TD*
D38*
G04 #@! TO.N,+3V3*
X136160000Y-62319600D02*
X136160000Y-63895690D01*
D39*
X129590800Y-53848000D02*
X129590800Y-56946800D01*
X87377000Y-68150000D02*
X87377000Y-66826600D01*
D38*
X136160000Y-63895690D02*
X134876645Y-65179045D01*
D39*
X105670000Y-65500000D02*
X108750000Y-62420000D01*
X87274400Y-60784000D02*
X87022200Y-60784000D01*
X84302600Y-43193400D02*
X84302600Y-58343800D01*
X144396000Y-61214000D02*
X144396000Y-62309200D01*
X130810000Y-50788000D02*
X131458400Y-50788000D01*
D40*
X132456000Y-83281600D02*
X132486400Y-83312000D01*
D39*
X85824000Y-42926000D02*
X86000000Y-42750000D01*
X87274400Y-60784000D02*
X87274400Y-66724000D01*
X118044000Y-48456000D02*
X118500000Y-48000000D01*
X113838000Y-48456000D02*
X118044000Y-48456000D01*
X128546400Y-71120000D02*
X127711200Y-71120000D01*
X130076400Y-67919600D02*
X130911600Y-67919600D01*
X87377000Y-69088000D02*
X87377000Y-68150000D01*
X109549999Y-61620001D02*
X115376895Y-61620001D01*
D38*
X139760000Y-62319600D02*
X139760000Y-62848800D01*
D39*
X144396000Y-67204000D02*
X144350000Y-67250000D01*
D41*
X132184855Y-58569600D02*
X133610000Y-58569600D01*
D38*
X142183730Y-58569600D02*
X140710000Y-58569600D01*
D39*
X144396000Y-62309200D02*
X144373600Y-62331600D01*
D40*
X121004400Y-77265600D02*
X122150966Y-77265600D01*
X131673600Y-89306400D02*
X128981200Y-89306400D01*
D39*
X84302600Y-58343800D02*
X84834200Y-58343800D01*
D38*
X139760000Y-56377340D02*
X139952260Y-56569600D01*
X136160000Y-54461860D02*
X135393740Y-53695600D01*
X136438140Y-56377340D02*
X134884660Y-56377340D01*
X129935200Y-65289200D02*
X129935200Y-66268600D01*
X140352260Y-58569600D02*
X140710000Y-58569600D01*
D41*
X129590800Y-56946800D02*
X130454330Y-57810330D01*
D38*
X139760000Y-57977340D02*
X139760000Y-62319600D01*
X139952260Y-56569600D02*
X140710000Y-56569600D01*
X134670730Y-64973130D02*
X130251270Y-64973130D01*
D39*
X146558000Y-42672000D02*
X142443200Y-42672000D01*
D38*
X136160000Y-55219600D02*
X136160000Y-54461860D01*
D39*
X135890000Y-43700000D02*
X135890000Y-42722800D01*
X95250000Y-43750000D02*
X95250000Y-42468800D01*
D38*
X134413870Y-58523470D02*
X134367740Y-58569600D01*
D39*
X84834200Y-58343800D02*
X87274400Y-60784000D01*
X147526000Y-41704000D02*
X146558000Y-42672000D01*
X92750000Y-50447000D02*
X92710000Y-50407000D01*
D38*
X135393740Y-53695600D02*
X135128000Y-53695600D01*
D39*
X108750000Y-42500000D02*
X112000000Y-42500000D01*
D38*
X139952260Y-58169600D02*
X140710000Y-58169600D01*
D39*
X114300000Y-43877800D02*
X114300000Y-42787000D01*
D40*
X120599200Y-76860400D02*
X121004400Y-77265600D01*
D39*
X119786400Y-64538400D02*
X119786400Y-63703200D01*
X87377000Y-66826600D02*
X87274400Y-66724000D01*
X144373600Y-65430400D02*
X144396000Y-65452800D01*
X144396000Y-64747600D02*
X144373600Y-64770000D01*
X141608000Y-42672000D02*
X142443200Y-42672000D01*
X122913600Y-62839600D02*
X123748800Y-62839600D01*
D38*
X134367740Y-58569600D02*
X133610000Y-58569600D01*
X139760000Y-57977340D02*
X140352260Y-58569600D01*
D39*
X114300000Y-44004000D02*
X108754000Y-44004000D01*
D40*
X123444000Y-75972566D02*
X123444000Y-74422000D01*
D39*
X130466400Y-50788000D02*
X129590800Y-51663600D01*
X131458400Y-50788000D02*
X131775200Y-51104800D01*
X111760000Y-50534000D02*
X113838000Y-48456000D01*
X108754000Y-44004000D02*
X102750000Y-38000000D01*
D38*
X136160000Y-56099200D02*
X136160000Y-55219600D01*
D39*
X119786400Y-64832000D02*
X121418000Y-64832000D01*
X121418000Y-64832000D02*
X121500000Y-64750000D01*
X92750000Y-51750000D02*
X92750000Y-50447000D01*
X82488000Y-60158400D02*
X84302600Y-58343800D01*
X141526000Y-42636000D02*
X141478000Y-42684000D01*
D38*
X139760000Y-55219600D02*
X139760000Y-56377340D01*
X139760000Y-56377340D02*
X139760000Y-57977340D01*
D39*
X130076400Y-66243200D02*
X130911600Y-66243200D01*
X108750000Y-62420000D02*
X109549999Y-61620001D01*
D38*
X134413870Y-56848130D02*
X134413870Y-58523470D01*
D39*
X84570000Y-42926000D02*
X85824000Y-42926000D01*
D42*
X105664000Y-35282000D02*
X104518600Y-36427400D01*
X104518600Y-36427400D02*
X103750000Y-36427400D01*
D39*
X130810000Y-50788000D02*
X130466400Y-50788000D01*
D38*
X142099470Y-58169600D02*
X140710000Y-58169600D01*
D39*
X144396000Y-64250000D02*
X144396000Y-64747600D01*
D40*
X128981200Y-89306400D02*
X128574800Y-89712800D01*
D39*
X82488000Y-60158400D02*
X80467200Y-60158400D01*
D38*
X134876645Y-65179045D02*
X134670730Y-64973130D01*
X142341600Y-58411730D02*
X142099470Y-58169600D01*
D39*
X129590800Y-51663600D02*
X129590800Y-53848000D01*
D38*
X134884660Y-56377340D02*
X134413870Y-56848130D01*
D40*
X123444000Y-74422000D02*
X126746000Y-71120000D01*
D39*
X144396000Y-65452800D02*
X144396000Y-67204000D01*
D41*
X131425585Y-57810330D02*
X132184855Y-58569600D01*
D38*
X139760000Y-62848800D02*
X140004800Y-63093600D01*
D39*
X147526000Y-40458000D02*
X147526000Y-41704000D01*
X104500000Y-65500000D02*
X105670000Y-65500000D01*
X118588894Y-64832000D02*
X119786400Y-64832000D01*
X116890800Y-43877800D02*
X116890800Y-42787000D01*
X97790000Y-43699200D02*
X97790000Y-42418000D01*
D38*
X142341600Y-58411730D02*
X142183730Y-58569600D01*
D40*
X126746000Y-71120000D02*
X127711200Y-71120000D01*
D39*
X84570000Y-42926000D02*
X84302600Y-43193400D01*
D38*
X139760000Y-57977340D02*
X139952260Y-58169600D01*
X130251270Y-64973130D02*
X129935200Y-65289200D01*
D39*
X133350000Y-43750000D02*
X133350000Y-42672000D01*
D41*
X130454330Y-57810330D02*
X131425585Y-57810330D01*
D39*
X119500000Y-43750000D02*
X121250000Y-43750000D01*
X126441200Y-53848000D02*
X129590800Y-53848000D01*
D40*
X130531200Y-83281600D02*
X132456000Y-83281600D01*
D39*
X124183600Y-70205600D02*
X125018800Y-70205600D01*
D38*
X139760000Y-56377340D02*
X136438140Y-56377340D01*
D39*
X115376895Y-61620001D02*
X118588894Y-64832000D01*
D40*
X122150966Y-77265600D02*
X123444000Y-75972566D01*
D38*
X136438140Y-56377340D02*
X136160000Y-56099200D01*
D39*
X141526000Y-40458000D02*
X141526000Y-42636000D01*
G04 #@! TO.N,GND*
X88138000Y-30771400D02*
X88138000Y-29680600D01*
X118000000Y-62839600D02*
X121270800Y-62839600D01*
X120326000Y-27036000D02*
X119382000Y-27980000D01*
X118262000Y-29012000D02*
X118500000Y-29250000D01*
X146734400Y-35966400D02*
X147526000Y-36758000D01*
X84964000Y-71754000D02*
X84937600Y-71780400D01*
X111862000Y-28530000D02*
X111862000Y-29388000D01*
X121361400Y-56825400D02*
X120020600Y-56825400D01*
X107442000Y-26667000D02*
X108978000Y-26667000D01*
X118262000Y-28530000D02*
X118262000Y-29012000D01*
X123061400Y-59025400D02*
X124354200Y-59025400D01*
X145300000Y-49778000D02*
X144278000Y-49778000D01*
X84964000Y-70488000D02*
X84964000Y-71754000D01*
X111292000Y-28530000D02*
X110742000Y-27980000D01*
X80868000Y-36758000D02*
X80868000Y-35667200D01*
X109544000Y-26782000D02*
X110742000Y-27980000D01*
X146608800Y-35966400D02*
X146734400Y-35966400D01*
X109093000Y-26782000D02*
X109544000Y-26782000D01*
X125041200Y-52803600D02*
X125018800Y-52781200D01*
X80500000Y-61484000D02*
X80500000Y-62750000D01*
X137591200Y-87091600D02*
X139832000Y-87091600D01*
X114300000Y-45404000D02*
X114300000Y-47150000D01*
X128535200Y-66268600D02*
X127381000Y-66268600D01*
X144278000Y-49778000D02*
X144250000Y-49750000D01*
X113612800Y-34887200D02*
X113612800Y-33883600D01*
X105466400Y-45334800D02*
X105466400Y-46425600D01*
D38*
X131136800Y-59769600D02*
X131114800Y-59791600D01*
D39*
X124206000Y-26986000D02*
X121208000Y-26986000D01*
X109093000Y-26782000D02*
X109093000Y-25897200D01*
X146759000Y-64250000D02*
X145796000Y-64250000D01*
X107500000Y-26000000D02*
X107442000Y-26058000D01*
X121158000Y-27036000D02*
X120326000Y-27036000D01*
X141658800Y-47294800D02*
X142494000Y-47294800D01*
X87377000Y-70488000D02*
X87377000Y-71779400D01*
X119786400Y-66232000D02*
X117641600Y-66232000D01*
X124522000Y-46728000D02*
X124500000Y-46750000D01*
X108978000Y-26667000D02*
X109093000Y-26782000D01*
X124522000Y-45212000D02*
X124522000Y-46728000D01*
X122682000Y-25273000D02*
X122682000Y-25512000D01*
X107442000Y-26058000D02*
X107442000Y-26667000D01*
X107500000Y-25804200D02*
X107500000Y-26000000D01*
X127381000Y-66268600D02*
X127355600Y-66243200D01*
X118832000Y-28530000D02*
X119382000Y-27980000D01*
X123037600Y-35539200D02*
X122144000Y-35539200D01*
X139832000Y-87091600D02*
X139852400Y-87071200D01*
X146027600Y-61214000D02*
X146862800Y-61214000D01*
X86913200Y-36758000D02*
X86913200Y-35667200D01*
X109093000Y-25897200D02*
X109000000Y-25804200D01*
X126563600Y-35539200D02*
X126593600Y-35509200D01*
X113500000Y-35000000D02*
X113612800Y-34887200D01*
X122682000Y-72390000D02*
X122682000Y-70270600D01*
X111862000Y-28530000D02*
X111292000Y-28530000D01*
X146759000Y-67250000D02*
X145750000Y-67250000D01*
X89574400Y-68921600D02*
X89560400Y-68935600D01*
X141526000Y-36758000D02*
X141526000Y-35512000D01*
X122682000Y-25512000D02*
X121158000Y-27036000D01*
X111862000Y-29388000D02*
X111750000Y-29500000D01*
X89574400Y-66724000D02*
X89574400Y-68921600D01*
X80868000Y-35667200D02*
X80873600Y-35661600D01*
X129997200Y-71142400D02*
X129997200Y-70307200D01*
X145000000Y-48000000D02*
X144250000Y-48750000D01*
X125041200Y-53848000D02*
X125041200Y-52803600D01*
X118262000Y-28530000D02*
X118832000Y-28530000D01*
X121208000Y-26986000D02*
X121158000Y-27036000D01*
X86549000Y-47077400D02*
X86549000Y-45212000D01*
X122682000Y-70270600D02*
X122642400Y-70231000D01*
X121626400Y-53898800D02*
X121626400Y-52792400D01*
X123444000Y-47306000D02*
X123500000Y-47250000D01*
X103931200Y-46460800D02*
X103931200Y-45370000D01*
X95250000Y-45150000D02*
X95250000Y-47150000D01*
X86563200Y-47091600D02*
X86549000Y-47077400D01*
X146027600Y-58674000D02*
X146862800Y-58674000D01*
X122174000Y-47306000D02*
X123444000Y-47306000D01*
X133350000Y-45150000D02*
X133350000Y-47150000D01*
X125526800Y-35539200D02*
X126563600Y-35539200D01*
X120020600Y-56825400D02*
X119989600Y-56794400D01*
X145350000Y-48000000D02*
X145000000Y-48000000D01*
X87377000Y-71779400D02*
X87376000Y-71780400D01*
D38*
X133610000Y-59769600D02*
X131136800Y-59769600D01*
D39*
X124354200Y-59025400D02*
X124358400Y-59029600D01*
X121626400Y-52792400D02*
X121615200Y-52781200D01*
X116394000Y-59385200D02*
X115265200Y-59385200D01*
X122144000Y-35539200D02*
X122123200Y-35560000D01*
X130025600Y-69392800D02*
X130860800Y-69392800D01*
X117641600Y-66232000D02*
X117602000Y-66192400D01*
G04 #@! TO.N,/+3V3_A*
X128535200Y-67969600D02*
X128485200Y-67919600D01*
D38*
X146750000Y-69750000D02*
X147878930Y-68621070D01*
X147286000Y-57657070D02*
X144549896Y-57657070D01*
X141914000Y-56250000D02*
X141833600Y-56169600D01*
X121920000Y-76708000D02*
X121920000Y-74930000D01*
X127406400Y-69443600D02*
X128535200Y-69443600D01*
X147878930Y-68621070D02*
X147878930Y-58250000D01*
X141970800Y-56169600D02*
X141986000Y-56184800D01*
X143284728Y-56250000D02*
X141914000Y-56250000D01*
X147878930Y-58250000D02*
X147286000Y-57657070D01*
X121920000Y-74930000D02*
X127406400Y-69443600D01*
D39*
X128535200Y-69443600D02*
X128535200Y-67969600D01*
D38*
X145500000Y-69750000D02*
X146750000Y-69750000D01*
X140710000Y-56169600D02*
X141833600Y-56169600D01*
X141970800Y-56169600D02*
X141833600Y-56169600D01*
D39*
G04 #@! TO.N,/+1V1*
X133807200Y-51003200D02*
X147472400Y-51003200D01*
D38*
X131573405Y-57453460D02*
X132289545Y-58169600D01*
X130859460Y-57453460D02*
X131573405Y-57453460D01*
X140871040Y-57000332D02*
X140740732Y-57000332D01*
X132289545Y-58169600D02*
X133610000Y-58169600D01*
X147250000Y-60250000D02*
X147250000Y-59351358D01*
X141685141Y-57017030D02*
X141682242Y-57014131D01*
D39*
X130454400Y-57048400D02*
X130251800Y-56845800D01*
D38*
X144100400Y-58969600D02*
X144396000Y-58674000D01*
X147726400Y-57251600D02*
X147574000Y-57099200D01*
X147250000Y-59351358D02*
X147321060Y-59280298D01*
X146750000Y-57099200D02*
X143379623Y-57099200D01*
X140740732Y-57000332D02*
X140710000Y-56969600D01*
X143379623Y-57099200D02*
X143297454Y-57017031D01*
X144396000Y-59646000D02*
X145000000Y-60250000D01*
D39*
X146750000Y-50280800D02*
X147726400Y-51257200D01*
X130251800Y-56845800D02*
X130251800Y-54558600D01*
D38*
X140710000Y-58969600D02*
X144100400Y-58969600D01*
D39*
X130251800Y-54558600D02*
X133807200Y-51003200D01*
D38*
X143297454Y-57017031D02*
X141685141Y-57017030D01*
X141682242Y-57014131D02*
X140884838Y-57014130D01*
X130454400Y-57048400D02*
X130859460Y-57453460D01*
X147574000Y-57099200D02*
X146750000Y-57099200D01*
X140884838Y-57014130D02*
X140871040Y-57000332D01*
X145000000Y-60250000D02*
X147250000Y-60250000D01*
D39*
X146750000Y-48000000D02*
X146750000Y-50280800D01*
X147472400Y-51003200D02*
X147726400Y-51257200D01*
X147726400Y-51257200D02*
X147726400Y-57251600D01*
D38*
X144396000Y-58674000D02*
X144396000Y-59646000D01*
D43*
G04 #@! TO.N,+5V_USB*
X91500000Y-61227600D02*
X91500000Y-72990400D01*
D44*
X87774000Y-34897506D02*
X87774000Y-37726000D01*
D43*
X88022400Y-57750000D02*
X91500000Y-61227600D01*
D39*
X122364000Y-28386000D02*
X120750000Y-30000000D01*
X111250000Y-30250000D02*
X110250000Y-30250000D01*
X117462000Y-29217506D02*
X118205494Y-29961000D01*
D43*
X85791600Y-57750000D02*
X88022400Y-57750000D01*
D44*
X85231000Y-44868000D02*
X87774000Y-42325000D01*
D43*
X83007200Y-74257200D02*
X83007200Y-69742800D01*
D44*
X85231000Y-57189400D02*
X85231000Y-44868000D01*
D43*
X105500000Y-28000000D02*
X105500000Y-24000000D01*
D39*
X125106200Y-28386000D02*
X124206000Y-28386000D01*
X118205494Y-29961000D02*
X119533000Y-29961000D01*
D43*
X89990400Y-74500000D02*
X83250000Y-74500000D01*
X91500000Y-72990400D02*
X89990400Y-74500000D01*
X85750400Y-57708800D02*
X85791600Y-57750000D01*
D39*
X109093000Y-29093000D02*
X110250000Y-30250000D01*
D44*
X85750400Y-57708800D02*
X85231000Y-57189400D01*
D43*
X83007200Y-69742800D02*
X83662000Y-69088000D01*
D39*
X87774000Y-37726000D02*
X87750000Y-37750000D01*
X117462000Y-28530000D02*
X117462000Y-29951997D01*
X124206000Y-28386000D02*
X122364000Y-28386000D01*
X87750000Y-37750000D02*
X87774000Y-37774000D01*
D44*
X92000000Y-30671506D02*
X87774000Y-34897506D01*
D39*
X84974400Y-66724000D02*
X84974400Y-69077600D01*
X107442000Y-29442000D02*
X107442000Y-28067000D01*
D43*
X83662000Y-69088000D02*
X84964000Y-69088000D01*
D44*
X105000000Y-23500000D02*
X92000000Y-23500000D01*
D39*
X112005506Y-30250000D02*
X111250000Y-30250000D01*
X117462000Y-28530000D02*
X117462000Y-29217506D01*
D43*
X107442000Y-28067000D02*
X105567000Y-28067000D01*
D39*
X105567000Y-28067000D02*
X105500000Y-28000000D01*
X112662000Y-29593506D02*
X112005506Y-30250000D01*
X117462000Y-29951997D02*
X117510003Y-30000000D01*
X111250000Y-30250000D02*
X111250000Y-31446589D01*
X125298200Y-28194000D02*
X125106200Y-28386000D01*
X107442000Y-29442000D02*
X109446589Y-31446589D01*
D44*
X87774000Y-37774000D02*
X87774000Y-42325000D01*
D39*
X117007431Y-31446589D02*
X111250000Y-31446589D01*
X119533000Y-29961000D02*
X121158000Y-28336000D01*
X112662000Y-28530000D02*
X112662000Y-29593506D01*
D43*
X105500000Y-24000000D02*
X105000000Y-23500000D01*
X83250000Y-74500000D02*
X83007200Y-74257200D01*
D39*
X84974400Y-69077600D02*
X84964000Y-69088000D01*
X111250000Y-31446589D02*
X109446589Y-31446589D01*
X109093000Y-29093000D02*
X109093000Y-28082000D01*
D44*
X92000000Y-23500000D02*
X92000000Y-30671506D01*
D40*
G04 #@! TO.N,/XIN*
X123061400Y-53933800D02*
X123026400Y-53898800D01*
X131345766Y-59234000D02*
X130707200Y-59234000D01*
X124409200Y-56896000D02*
X123132000Y-56896000D01*
X123132000Y-56896000D02*
X123061400Y-56825400D01*
X123061400Y-56825400D02*
X123061400Y-53933800D01*
X130707200Y-59234000D02*
X129794000Y-60147200D01*
X133610000Y-59369600D02*
X131481366Y-59369600D01*
X131481366Y-59369600D02*
X131345766Y-59234000D01*
G04 #@! TO.N,/RESET_N*
X88138000Y-32196000D02*
X86664000Y-32196000D01*
X131966601Y-56342118D02*
X131467800Y-56342118D01*
X142033446Y-52219200D02*
X142632879Y-52818633D01*
X131966601Y-56342118D02*
X132594083Y-56969600D01*
X86664000Y-32196000D02*
X86614000Y-32246000D01*
X89052400Y-32613600D02*
X88555600Y-32613600D01*
X88555600Y-32613600D02*
X88138000Y-32196000D01*
X131467800Y-56342118D02*
X131467800Y-55062282D01*
X133610000Y-56969600D02*
X132594083Y-56969600D01*
X131467800Y-55062282D02*
X134310882Y-52219200D01*
X134310882Y-52219200D02*
X142033446Y-52219200D01*
G04 #@! TO.N,ENC1_A*
X97818313Y-54427400D02*
X97127713Y-55118000D01*
X128676400Y-63906400D02*
X127101600Y-62331600D01*
X87949000Y-47967200D02*
X87949000Y-45212000D01*
X99021687Y-54427400D02*
X97818313Y-54427400D01*
X126339600Y-57962800D02*
X109615802Y-57962800D01*
X102963487Y-58369200D02*
X99021687Y-54427400D01*
X127101600Y-62331600D02*
X127101600Y-58724800D01*
X130104029Y-64617661D02*
X129392768Y-63906400D01*
X135760000Y-62319600D02*
X135760000Y-63792980D01*
X109186002Y-58392600D02*
X108107400Y-58392600D01*
X129392768Y-63906400D02*
X128676400Y-63906400D01*
X127101600Y-58724800D02*
X126339600Y-57962800D01*
X105250000Y-61250000D02*
X103000000Y-61250000D01*
X108107400Y-58392600D02*
X105250000Y-61250000D01*
X134876645Y-64676335D02*
X134817970Y-64617660D01*
X103000000Y-61250000D02*
X103000000Y-58369200D01*
X135760000Y-63792980D02*
X134876645Y-64676335D01*
X95099800Y-55118000D02*
X87949000Y-47967200D01*
X97127713Y-55118000D02*
X95099800Y-55118000D01*
X109615802Y-57962800D02*
X109186002Y-58392600D01*
X134817970Y-64617660D02*
X130104029Y-64617661D01*
X89674000Y-45212000D02*
X87949000Y-45212000D01*
X103000000Y-58369200D02*
X102963487Y-58369200D01*
G04 #@! TO.N,ENC1_B*
X135360000Y-62319600D02*
X135360000Y-63692066D01*
X127502315Y-58578085D02*
X127711200Y-58369200D01*
X129539482Y-63552200D02*
X128823114Y-63552200D01*
X128823114Y-63552200D02*
X127455800Y-62184886D01*
X134788605Y-64263461D02*
X130250743Y-64263461D01*
X105856000Y-47944000D02*
X103886000Y-47944000D01*
X103886000Y-47944000D02*
X102158000Y-47944000D01*
X127455799Y-58578085D02*
X127502315Y-58578085D01*
X107035600Y-49123600D02*
X105856000Y-47944000D01*
X129539482Y-63552200D02*
X130250743Y-64263461D01*
X127455800Y-62184886D02*
X127455799Y-58578085D01*
X135360000Y-63692066D02*
X134788605Y-64263461D01*
X102158000Y-47944000D02*
X102108000Y-47994000D01*
G04 #@! TO.N,ENC2_A*
X134960000Y-63591152D02*
X134641891Y-63909261D01*
X128524000Y-58928000D02*
X128524000Y-58420000D01*
X127810000Y-62038172D02*
X127810000Y-59642000D01*
X108052059Y-49351493D02*
X106883200Y-48182634D01*
X130397457Y-63909261D02*
X134641891Y-63909261D01*
X108052059Y-49529541D02*
X108052059Y-49351493D01*
X106883200Y-48182634D02*
X106883200Y-45223200D01*
X106883200Y-45223200D02*
X106872000Y-45212000D01*
X129665082Y-63176886D02*
X130397457Y-63909261D01*
X128948714Y-63176886D02*
X127810000Y-62038172D01*
X134960000Y-62319600D02*
X134960000Y-63591152D01*
X127810000Y-59642000D02*
X128524000Y-58928000D01*
X106872000Y-45212000D02*
X108724000Y-45212000D01*
X129665082Y-63176886D02*
X128948714Y-63176886D01*
G04 #@! TO.N,ENC2_B*
X129336800Y-58616114D02*
X129336800Y-58369200D01*
X134560000Y-62319600D02*
X134560000Y-63490238D01*
X134495177Y-63555061D02*
X134560000Y-63490238D01*
X130544171Y-63555061D02*
X134495177Y-63555061D01*
X128164200Y-61891458D02*
X128164200Y-59788714D01*
X129095428Y-62822686D02*
X128164200Y-61891458D01*
X129811796Y-62822686D02*
X129095428Y-62822686D01*
X122947200Y-49479200D02*
X122174000Y-48706000D01*
X129811796Y-62822686D02*
X130544171Y-63555061D01*
X123139200Y-49479200D02*
X122947200Y-49479200D01*
X122174000Y-48706000D02*
X120446000Y-48706000D01*
X120446000Y-48706000D02*
X120396000Y-48756000D01*
X128164200Y-59788714D02*
X129336800Y-58616114D01*
D38*
G04 #@! TO.N,/CON_USB_N*
X115023340Y-27533600D02*
X114552660Y-27533600D01*
X115312000Y-27822260D02*
X115023340Y-27533600D01*
D45*
X124109200Y-31948660D02*
X123067540Y-30907000D01*
X123037600Y-33556699D02*
X124109200Y-32485099D01*
X115193540Y-30907000D02*
X114312000Y-30025460D01*
X123067540Y-30907000D02*
X115193540Y-30907000D01*
D38*
X115312000Y-28530000D02*
X115312000Y-27822260D01*
D45*
X124109200Y-32485099D02*
X124109200Y-31948660D01*
X114312000Y-30025460D02*
X114312000Y-28530000D01*
D38*
X114552660Y-27533600D02*
X114312000Y-27774260D01*
D45*
X123037600Y-34239200D02*
X123037600Y-33556699D01*
D38*
X114312000Y-27774260D02*
X114312000Y-28530000D01*
D45*
G04 #@! TO.N,/CON_USB_P*
X125526800Y-34239200D02*
X125526800Y-33556699D01*
X124455200Y-31805340D02*
X123210860Y-30561000D01*
X124455200Y-32485099D02*
X124455200Y-31805340D01*
X125526800Y-33556699D02*
X124455200Y-32485099D01*
X114812000Y-30036140D02*
X114812000Y-28530000D01*
X123210860Y-30561000D02*
X115336860Y-30561000D01*
D38*
X115812000Y-28530000D02*
X115812000Y-30522200D01*
D45*
X115336860Y-30561000D02*
X114812000Y-30036140D01*
D40*
G04 #@! TO.N,Net-(D201-A)*
X104444800Y-55880000D02*
X105150000Y-55880000D01*
X105150000Y-55880000D02*
X105250000Y-55980000D01*
G04 #@! TO.N,ROW0*
X105206800Y-58363200D02*
X105250000Y-58320000D01*
X137262101Y-66696757D02*
X137262101Y-66517818D01*
X138053782Y-66517818D02*
X138205800Y-66365800D01*
X137262101Y-66517818D02*
X138053782Y-66517818D01*
X138205800Y-66365800D02*
X138205800Y-65917400D01*
X105206800Y-60147200D02*
X105206800Y-58363200D01*
X138160000Y-65811785D02*
X138160000Y-62319600D01*
G04 #@! TO.N,COL1*
X112318800Y-72948800D02*
X111130000Y-74137600D01*
X119634000Y-75285600D02*
X117449600Y-77470000D01*
X137746791Y-68018856D02*
X138229144Y-68018856D01*
X138960000Y-67288000D02*
X138960000Y-62319600D01*
X110032800Y-50800000D02*
X110032800Y-52781200D01*
X138229144Y-68018856D02*
X138960000Y-67288000D01*
X111130000Y-74137600D02*
X111130000Y-77470000D01*
X110032800Y-52781200D02*
X108661200Y-54152800D01*
X117449600Y-77470000D02*
X111130000Y-77470000D01*
G04 #@! TO.N,Net-(D203-A)*
X117470000Y-74930000D02*
X118670000Y-73730000D01*
X120041600Y-77091366D02*
X120570033Y-77619799D01*
X120570033Y-77619799D02*
X122313401Y-77619799D01*
X119271034Y-73730000D02*
X120825434Y-75284400D01*
X120041600Y-76068234D02*
X120041600Y-77091366D01*
X124250000Y-75683200D02*
X124250000Y-74980000D01*
X118670000Y-73730000D02*
X119271034Y-73730000D01*
X120825434Y-75284400D02*
X120041600Y-76068234D01*
X122313401Y-77619799D02*
X124250000Y-75683200D01*
G04 #@! TO.N,Net-(D204-A)*
X139950000Y-71500000D02*
X140000000Y-71500000D01*
X136520000Y-74930000D02*
X139950000Y-71500000D01*
X144000000Y-72250000D02*
X144500000Y-72750000D01*
X144000000Y-74750000D02*
X143480000Y-74750000D01*
X143480000Y-74750000D02*
X143250000Y-74980000D01*
X144000000Y-71427000D02*
X144000000Y-72250000D01*
G04 #@! TO.N,Net-(D205-A)*
X105199200Y-93929200D02*
X105250000Y-93980000D01*
X104190800Y-93929200D02*
X105199200Y-93929200D01*
G04 #@! TO.N,Net-(D206-A)*
X117470000Y-93980000D02*
X124250000Y-93980000D01*
G04 #@! TO.N,Net-(D207-A)*
X142138400Y-94030800D02*
X143199200Y-94030800D01*
X143199200Y-94030800D02*
X143250000Y-93980000D01*
G04 #@! TO.N,Net-(D208-A)*
X105200000Y-113030000D02*
X105250000Y-112980000D01*
X104394000Y-113030000D02*
X105200000Y-113030000D01*
G04 #@! TO.N,Net-(D209-A)*
X123494800Y-113030000D02*
X124200000Y-113030000D01*
X124200000Y-113030000D02*
X124250000Y-112980000D01*
G04 #@! TO.N,ROW3*
X136108984Y-65839000D02*
X136113808Y-65834176D01*
X136574702Y-65433201D02*
X136735262Y-65433202D01*
X127605600Y-115320000D02*
X133807200Y-109118400D01*
X135577189Y-65839000D02*
X136108984Y-65839000D01*
X125171200Y-116484400D02*
X125171200Y-116241200D01*
X119278400Y-122732800D02*
X123698000Y-118313200D01*
X124250000Y-115320000D02*
X127605600Y-115320000D01*
X136737707Y-65430757D02*
X136960000Y-65430758D01*
X136113808Y-65834176D02*
X136173727Y-65834176D01*
X136735262Y-65433202D02*
X136737707Y-65430757D01*
X136173727Y-65834176D02*
X136574702Y-65433201D01*
X127812800Y-111757200D02*
X124250000Y-115320000D01*
X127812800Y-72244200D02*
X127812800Y-111757200D01*
X142036800Y-115366800D02*
X143203200Y-115366800D01*
X136960000Y-65430758D02*
X136960000Y-62319600D01*
X143203200Y-115366800D02*
X143250000Y-115320000D01*
X112662800Y-122732800D02*
X119278400Y-122732800D01*
X125171200Y-116241200D02*
X124250000Y-115320000D01*
X105250000Y-115320000D02*
X112662800Y-122732800D01*
G04 #@! TO.N,Net-(D210-A)*
X143200000Y-113030000D02*
X143250000Y-112980000D01*
X136520000Y-113030000D02*
X143200000Y-113030000D01*
G04 #@! TO.N,/Keyboard/ENC1_SW*
X97790000Y-32650000D02*
X97790000Y-34517000D01*
G04 #@! TO.N,ROW4*
X133657314Y-65534514D02*
X133654800Y-65532000D01*
X136550400Y-62329200D02*
X136550400Y-64668400D01*
X133654800Y-72440800D02*
X132283200Y-73812400D01*
X135023886Y-65534514D02*
X133657314Y-65534514D01*
X135736000Y-36984000D02*
X135890000Y-37138000D01*
X110058200Y-63728600D02*
X110058200Y-63068200D01*
X129844800Y-73812400D02*
X129186600Y-74470600D01*
X133654800Y-65532000D02*
X133654800Y-72440800D01*
X97790000Y-39065200D02*
X97790000Y-36857000D01*
X132283200Y-73812400D02*
X129844800Y-73812400D01*
X135277000Y-65281400D02*
X135023886Y-65534514D01*
X116840000Y-36984000D02*
X97917000Y-36984000D01*
X97917000Y-36984000D02*
X97790000Y-36857000D01*
X116840000Y-36984000D02*
X135736000Y-36984000D01*
X136550400Y-64668400D02*
X135937400Y-65281400D01*
X136560000Y-62319600D02*
X136550400Y-62329200D01*
X121056400Y-74726800D02*
X110058200Y-63728600D01*
X135937400Y-65281400D02*
X135277000Y-65281400D01*
X129186600Y-74470600D02*
X128473200Y-74470600D01*
G04 #@! TO.N,/Keyboard/ENC2_SW*
X116840000Y-34644000D02*
X116840000Y-32650000D01*
G04 #@! TO.N,COL0*
X139344400Y-68376800D02*
X139344400Y-62335200D01*
X139344400Y-62335200D02*
X139360000Y-62319600D01*
X94000000Y-33940000D02*
X94000000Y-52750000D01*
X92710000Y-32650000D02*
X94000000Y-33940000D01*
G04 #@! TO.N,Net-(ENC201-PadB)*
X97790000Y-47150000D02*
X97790000Y-45200000D01*
X97790000Y-45200000D02*
X100814000Y-45200000D01*
X100814000Y-45200000D02*
X102108000Y-46494000D01*
G04 #@! TO.N,Net-(ENC201-PadA)*
X91174000Y-45212000D02*
X91174000Y-45614000D01*
X92710000Y-47150000D02*
X92710000Y-48907000D01*
X91174000Y-45614000D02*
X92710000Y-47150000D01*
G04 #@! TO.N,Net-(ENC202-PadA)*
X111760000Y-45770800D02*
X111201200Y-45212000D01*
X111760000Y-49034000D02*
X111760000Y-47150000D01*
X111201200Y-45212000D02*
X110224000Y-45212000D01*
X111760000Y-47150000D02*
X111760000Y-45770800D01*
G04 #@! TO.N,Net-(ENC202-PadB)*
X116840000Y-47150000D02*
X120290000Y-47150000D01*
X120290000Y-47150000D02*
X120396000Y-47256000D01*
X116840000Y-45327000D02*
X116840000Y-47150000D01*
G04 #@! TO.N,/SWDIO*
X134164168Y-51865000D02*
X142545600Y-51865000D01*
X142545600Y-51865000D02*
X142748000Y-52067400D01*
X131867359Y-56743790D02*
X132493169Y-57369600D01*
X131113600Y-54915568D02*
X134164168Y-51865000D01*
X133610000Y-57369600D02*
X132493169Y-57369600D01*
X131113600Y-56488832D02*
X131113600Y-54915568D01*
X131368558Y-56743790D02*
X131867359Y-56743790D01*
X131368558Y-56743790D02*
X131113600Y-56488832D01*
G04 #@! TO.N,/SWCLK*
X147016400Y-56000000D02*
X147016400Y-51527200D01*
X131114800Y-56990946D02*
X131114800Y-57097990D01*
X147016400Y-51527200D02*
X147000000Y-51510800D01*
X130759400Y-54768854D02*
X130759400Y-56635546D01*
X134017454Y-51510800D02*
X130759400Y-54768854D01*
X132392255Y-57769600D02*
X133610000Y-57769600D01*
X131114800Y-57097990D02*
X131720645Y-57097990D01*
X147000000Y-51510800D02*
X134017454Y-51510800D01*
X130759400Y-56635546D02*
X131114800Y-56990946D01*
X131720645Y-57097990D02*
X132392255Y-57769600D01*
D39*
G04 #@! TO.N,Net-(LED101-A)*
X105664000Y-33782000D02*
X105664000Y-32359600D01*
X105664000Y-32359600D02*
X102717600Y-29413200D01*
G04 #@! TO.N,Net-(LED102-A)*
X104140000Y-33794000D02*
X103948800Y-33794000D01*
X103948800Y-33794000D02*
X99974400Y-29819600D01*
X96367600Y-29819600D02*
X95859600Y-29311600D01*
X99974400Y-29819600D02*
X96367600Y-29819600D01*
D40*
G04 #@! TO.N,OLED_SDA*
X132694997Y-56569600D02*
X132005397Y-55880000D01*
X139345200Y-52573400D02*
X139547600Y-52775800D01*
X134457596Y-52573400D02*
X139345200Y-52573400D01*
X133610000Y-56569600D02*
X132694997Y-56569600D01*
X108750000Y-55689600D02*
X108750000Y-57340000D01*
X131822000Y-55208996D02*
X134457596Y-52573400D01*
X132005397Y-55880000D02*
X131822000Y-55880000D01*
X113182400Y-51257200D02*
X108750000Y-55689600D01*
X131822000Y-55880000D02*
X131822000Y-55208996D01*
G04 #@! TO.N,OLED_SCL*
X110032800Y-55328286D02*
X110032800Y-57150000D01*
X132176200Y-55377400D02*
X134626000Y-52927600D01*
X132176200Y-55524400D02*
X132176200Y-55377400D01*
X133610000Y-56169600D02*
X132821400Y-56169600D01*
X134626000Y-52927600D02*
X138603241Y-52927600D01*
X110032800Y-57150000D02*
X110185200Y-57302400D01*
X138603241Y-52927600D02*
X138805641Y-53130000D01*
X125873200Y-49945600D02*
X125425200Y-50393600D01*
X132548600Y-49945600D02*
X125873200Y-49945600D01*
X132821400Y-56169600D02*
X132176200Y-55524400D01*
X114967486Y-50393600D02*
X110032800Y-55328286D01*
X125425200Y-50393600D02*
X114967486Y-50393600D01*
X132994400Y-50391400D02*
X132548600Y-49945600D01*
G04 #@! TO.N,/USER_LED1*
X139911200Y-53687600D02*
X140157200Y-53441600D01*
X138574675Y-53687600D02*
X139911200Y-53687600D01*
X103924800Y-35509200D02*
X104140000Y-35294000D01*
X137760000Y-54502275D02*
X138574675Y-53687600D01*
X137760000Y-55219600D02*
X137760000Y-54502275D01*
X102666800Y-35509200D02*
X103924800Y-35509200D01*
D45*
G04 #@! TO.N,/USB_N*
X142979728Y-54467090D02*
X143558818Y-53888000D01*
D40*
X143150213Y-57372500D02*
X143505545Y-57727832D01*
D45*
X142979728Y-54778772D02*
X142979728Y-54467090D01*
D40*
X143505545Y-57727832D02*
X143793197Y-57727832D01*
D45*
X143777200Y-53888000D02*
X144346800Y-54457600D01*
X143558818Y-53888000D02*
X143777200Y-53888000D01*
D40*
X141537901Y-57372500D02*
X143150213Y-57372500D01*
X141535001Y-57369600D02*
X141537901Y-57372500D01*
X140710000Y-57369600D02*
X141535001Y-57369600D01*
G04 #@! TO.N,/USB_P*
X143226803Y-58006574D02*
X143226803Y-58294226D01*
D45*
X142178728Y-54778772D02*
X143415500Y-53542000D01*
D40*
X141537901Y-57766700D02*
X142986929Y-57766700D01*
X141535001Y-57769600D02*
X141537901Y-57766700D01*
X140710000Y-57769600D02*
X141535001Y-57769600D01*
D45*
X143840000Y-53542000D02*
X144397600Y-52984400D01*
D40*
X142986929Y-57766700D02*
X143226803Y-58006574D01*
D45*
X143415500Y-53542000D02*
X143840000Y-53542000D01*
D38*
G04 #@! TO.N,Net-(USB101-CC2)*
X116812000Y-29938000D02*
X116750000Y-30000000D01*
X116812000Y-28530000D02*
X116812000Y-29938000D01*
D41*
X115112800Y-32387200D02*
X115250000Y-32250000D01*
X115112800Y-33883600D02*
X115112800Y-32387200D01*
G04 #@! TO.N,Net-(USB101-CC1)*
X121182000Y-25273000D02*
X115477000Y-25273000D01*
X113812000Y-26938000D02*
X113812000Y-28530000D01*
X115477000Y-25273000D02*
X113812000Y-26938000D01*
D40*
G04 #@! TO.N,/XOUT*
X123178000Y-60858400D02*
X122720800Y-61315600D01*
X123494800Y-60858400D02*
X123178000Y-60858400D01*
X133610000Y-58969600D02*
X131794493Y-58969600D01*
X131794493Y-58969600D02*
X131535705Y-58710812D01*
G04 #@! TO.N,Net-(SW102-C)*
X82284000Y-30746000D02*
X80086200Y-32943800D01*
X80868000Y-40458000D02*
X80868000Y-40724000D01*
X83070000Y-41186800D02*
X83798800Y-40458000D01*
X86614000Y-30746000D02*
X82284000Y-30746000D01*
X80609800Y-40716200D02*
X80868000Y-40458000D01*
X83798800Y-40458000D02*
X86868000Y-40458000D01*
X80868000Y-40724000D02*
X83070000Y-42926000D01*
X80086200Y-32943800D02*
X80086200Y-40513000D01*
X80086200Y-40513000D02*
X80289400Y-40716200D01*
X83070000Y-42926000D02*
X83070000Y-41186800D01*
X80289400Y-40716200D02*
X80609800Y-40716200D01*
G04 #@! TO.N,/QSPI_SS*
X141231000Y-73114230D02*
X140497343Y-73847887D01*
X141739000Y-61620400D02*
X141739000Y-65553343D01*
X141231000Y-72480228D02*
X141231000Y-73114230D01*
X141478000Y-44184000D02*
X145377600Y-44184000D01*
X141488200Y-61369600D02*
X141739000Y-61620400D01*
X141739000Y-65553343D02*
X140640401Y-66651944D01*
X140710000Y-61369600D02*
X141488200Y-61369600D01*
X139710000Y-83312000D02*
X139679600Y-83281600D01*
X139801600Y-83312000D02*
X139710000Y-83312000D01*
X140640404Y-71889632D02*
X141231000Y-72480228D01*
X140640401Y-66651944D02*
X140640404Y-71889632D01*
X148588599Y-47394999D02*
X148588599Y-69623967D01*
X145377600Y-44184000D02*
X148588599Y-47394999D01*
D39*
X139679600Y-83281600D02*
X137591200Y-83281600D01*
D40*
X140436556Y-75072173D02*
X140097547Y-75411182D01*
X148588599Y-69623967D02*
X144857366Y-73355200D01*
X144857366Y-73355200D02*
X143713200Y-73355200D01*
X140497343Y-75072173D02*
X140436556Y-75072173D01*
X143713200Y-73355200D02*
X143662400Y-73406000D01*
X140497343Y-73847887D02*
X140497343Y-75072173D01*
G04 #@! TO.N,COL2*
X148234400Y-47541714D02*
X148234400Y-69189600D01*
X138560000Y-66570400D02*
X138560000Y-62319600D01*
X133248400Y-77470000D02*
X130180000Y-77470000D01*
X148234400Y-69189600D02*
X145440400Y-71983600D01*
X130180000Y-75560000D02*
X130180000Y-77470000D01*
X130302000Y-75438000D02*
X130180000Y-75560000D01*
X138114080Y-67016320D02*
X138560000Y-66570400D01*
X144780000Y-45669200D02*
X146361886Y-45669200D01*
X133350000Y-77368400D02*
X133248400Y-77470000D01*
X130200400Y-80822800D02*
X130251200Y-80873600D01*
X138016108Y-67016320D02*
X138114080Y-67016320D01*
X146361886Y-45669200D02*
X148234400Y-47541714D01*
X130302000Y-75086000D02*
X130302000Y-75438000D01*
X137773118Y-67259310D02*
X138016108Y-67016320D01*
X130200400Y-79197200D02*
X130200400Y-80822800D01*
G04 #@! TO.N,/QSPI_SD3*
X143002000Y-73908314D02*
X142794514Y-74115800D01*
X134633314Y-84561600D02*
X130531200Y-84561600D01*
X143510000Y-60299600D02*
X143510000Y-66333428D01*
X143510000Y-66333428D02*
X142411400Y-67432028D01*
X142794514Y-74115800D02*
X142734000Y-74115800D01*
X142411400Y-70992286D02*
X143002000Y-71582886D01*
X142622400Y-74227400D02*
X142622400Y-76572514D01*
X142580000Y-59369600D02*
X143510000Y-60299600D01*
X140710000Y-59369600D02*
X142580000Y-59369600D01*
X142734000Y-74115800D02*
X142622400Y-74227400D01*
X142622400Y-76572514D02*
X134633314Y-84561600D01*
X143002000Y-71582886D02*
X143002000Y-73908314D01*
X142411400Y-67432028D02*
X142411400Y-70992286D01*
G04 #@! TO.N,/QSPI_SD2*
X141408143Y-76276943D02*
X141148543Y-76276943D01*
X140710000Y-60569600D02*
X142277258Y-60569600D01*
X142277258Y-60569600D02*
X142447400Y-60739742D01*
X142447400Y-60739742D02*
X142447400Y-65846772D01*
X141939400Y-73407658D02*
X141408143Y-73938915D01*
X137621600Y-85852000D02*
X137591200Y-85821600D01*
X141408143Y-73938915D02*
X141408143Y-76276943D01*
X142447400Y-65846772D02*
X141348800Y-66945372D01*
X141348800Y-66945372D02*
X141348802Y-71596202D01*
D39*
X139801600Y-85852000D02*
X137621600Y-85852000D01*
D40*
X141939400Y-72186800D02*
X141939400Y-73407658D01*
X141148543Y-76276943D02*
X141135224Y-76263624D01*
X141348802Y-71596202D02*
X141939400Y-72186800D01*
G04 #@! TO.N,/QSPI_SD1*
X142093200Y-61118000D02*
X142093200Y-65700058D01*
X140851543Y-73994601D02*
X140851543Y-75506539D01*
X141944800Y-60969600D02*
X142093200Y-61118000D01*
X139801600Y-84632800D02*
X139730400Y-84561600D01*
X140710000Y-60969600D02*
X141944800Y-60969600D01*
X140994601Y-66798658D02*
X140994603Y-71742917D01*
X142093200Y-65700058D02*
X140994601Y-66798658D01*
X141585200Y-72333514D02*
X141585200Y-73260944D01*
D39*
X139730400Y-84561600D02*
X137591200Y-84561600D01*
D40*
X140994603Y-71742917D02*
X141585200Y-72333514D01*
X140851543Y-73994601D02*
X141585200Y-73260944D01*
G04 #@! TO.N,/QSPI_SCLK*
X129153600Y-84326492D02*
X129153600Y-85142200D01*
X143155800Y-66186714D02*
X142103714Y-67238800D01*
X143155800Y-60446314D02*
X143155800Y-66186714D01*
X142647800Y-73761600D02*
X142587285Y-73761601D01*
X142647800Y-71729600D02*
X142647800Y-73761600D01*
X142057201Y-71139001D02*
X142647800Y-71729600D01*
X142587285Y-73761601D02*
X142116543Y-74232343D01*
X142103714Y-67238800D02*
X142057200Y-67238800D01*
X142116543Y-76577457D02*
X134823200Y-83870800D01*
X129833000Y-85821600D02*
X130531200Y-85821600D01*
X140710000Y-59769600D02*
X142479086Y-59769600D01*
D39*
X129153600Y-85142200D02*
X129833000Y-85821600D01*
D40*
X142116543Y-74232343D02*
X142116543Y-76577457D01*
X142057200Y-67238800D02*
X142057201Y-71139001D01*
X142479086Y-59769600D02*
X143155800Y-60446314D01*
X134823200Y-83870800D02*
X129609292Y-83870800D01*
X129609292Y-83870800D02*
X129153600Y-84326492D01*
G04 #@! TO.N,/QSPI_SD0*
X135686800Y-82499200D02*
X128574800Y-82499200D01*
X142293600Y-71876314D02*
X142293600Y-73554372D01*
X128320800Y-86664800D02*
X128727200Y-87071200D01*
X141910486Y-66884600D02*
X141703000Y-67092086D01*
X141703002Y-71285716D02*
X142293600Y-71876314D01*
X142801600Y-66040000D02*
X141957000Y-66884600D01*
X128574800Y-82499200D02*
X128320800Y-82753200D01*
X130510800Y-87071200D02*
X130531200Y-87091600D01*
D39*
X128727200Y-87071200D02*
X130510800Y-87071200D01*
D40*
X141703000Y-67092086D02*
X141703002Y-71285716D01*
X141762343Y-76423657D02*
X135686800Y-82499200D01*
X128320800Y-82753200D02*
X128320800Y-86664800D01*
X142293600Y-73554372D02*
X141762343Y-74085629D01*
X142801600Y-60593028D02*
X142801600Y-66040000D01*
X141957000Y-66884600D02*
X141910486Y-66884600D01*
X140710000Y-60169600D02*
X142378172Y-60169600D01*
X141762343Y-74085629D02*
X141762343Y-76423657D01*
X142378172Y-60169600D02*
X142801600Y-60593028D01*
G04 #@! TO.N,Net-(C120-Pad1)*
X121361400Y-59025400D02*
X121236800Y-59150000D01*
X121361400Y-61175000D02*
X121220800Y-61315600D01*
X121361400Y-59025400D02*
X121361400Y-61175000D01*
X118029200Y-59150000D02*
X117794000Y-59385200D01*
X121236800Y-59150000D02*
X118029200Y-59150000D01*
G04 #@! TO.N,ENC3_A*
X124866400Y-49580800D02*
X124866400Y-49276000D01*
X129894400Y-58600166D02*
X130014150Y-58600166D01*
X125922000Y-45212000D02*
X127774000Y-45212000D01*
X128574800Y-61264800D02*
X128574800Y-59919766D01*
X130096803Y-58517513D02*
X130096803Y-58369200D01*
X133610000Y-61369600D02*
X128679600Y-61369600D01*
X125922000Y-48220400D02*
X125922000Y-45212000D01*
X130014150Y-58600166D02*
X130096803Y-58517513D01*
X128574800Y-59919766D02*
X129894400Y-58600166D01*
X128679600Y-61369600D02*
X128574800Y-61264800D01*
X124866400Y-49276000D02*
X125922000Y-48220400D01*
G04 #@! TO.N,ENC3_B*
X130041114Y-58954366D02*
X130300203Y-58954366D01*
X130856806Y-58397763D02*
X130856806Y-58369200D01*
X130300203Y-58954366D02*
X130856806Y-58397763D01*
X133610000Y-60969600D02*
X128940000Y-60969600D01*
X141428000Y-48756000D02*
X141478000Y-48706000D01*
X128929000Y-60958600D02*
X128929000Y-60066480D01*
X139039600Y-49543400D02*
X139827000Y-48756000D01*
X128929000Y-60066480D02*
X130041114Y-58954366D01*
X139039600Y-49834800D02*
X139039600Y-49543400D01*
X128929000Y-60958600D02*
X128940000Y-60969600D01*
X139827000Y-48756000D02*
X141428000Y-48756000D01*
G04 #@! TO.N,/Keyboard/ENC3_SW*
X135890000Y-34798000D02*
X135890000Y-32650000D01*
G04 #@! TO.N,Net-(ENC203-PadA)*
X130810000Y-47150000D02*
X130810000Y-49288000D01*
X129274000Y-45614000D02*
X130810000Y-47150000D01*
X129274000Y-45212000D02*
X129274000Y-45614000D01*
G04 #@! TO.N,Net-(ENC203-PadB)*
X135890000Y-45200000D02*
X135890000Y-47150000D01*
X139721000Y-47150000D02*
X139827000Y-47256000D01*
X135890000Y-47150000D02*
X139721000Y-47150000D01*
G04 #@! TO.N,ROW1*
X137031135Y-66139157D02*
X137493067Y-66139157D01*
X124250000Y-80562000D02*
X124250000Y-77320000D01*
X137760000Y-65490800D02*
X137760000Y-62319600D01*
X137771000Y-65938400D02*
X137771000Y-65536600D01*
X126187200Y-76809600D02*
X125676800Y-77320000D01*
X112359600Y-84429600D02*
X120396000Y-84429600D01*
X124250000Y-82441600D02*
X125831600Y-84023200D01*
X137493067Y-66139157D02*
X137495510Y-66141600D01*
X139499000Y-80483064D02*
X142662064Y-77320000D01*
X137769600Y-65938400D02*
X137771000Y-65938400D01*
X124250000Y-77320000D02*
X124250000Y-82441600D01*
X136491488Y-66518243D02*
X136868131Y-66141600D01*
X126187200Y-73357400D02*
X126187200Y-76809600D01*
X125676800Y-77320000D02*
X124250000Y-77320000D01*
X136868131Y-66141600D02*
X137028692Y-66141600D01*
X137566400Y-66141600D02*
X137769600Y-65938400D01*
X105250000Y-77320000D02*
X112359600Y-84429600D01*
X137495510Y-66141600D02*
X137566400Y-66141600D01*
X142662064Y-77320000D02*
X143250000Y-77320000D01*
X124256800Y-80568800D02*
X124250000Y-80562000D01*
X137028692Y-66141600D02*
X137031135Y-66139157D01*
X120396000Y-84429600D02*
X124256800Y-80568800D01*
X136491488Y-66745976D02*
X136491488Y-66518243D01*
G04 #@! TO.N,ROW2*
X122936000Y-97634000D02*
X122936000Y-115386200D01*
X127101600Y-72800800D02*
X126796800Y-73105600D01*
X135067400Y-105572200D02*
X143250000Y-97389600D01*
X111749200Y-102819200D02*
X121818400Y-102819200D01*
X136884421Y-65784957D02*
X137360000Y-65784957D01*
X136053298Y-66395600D02*
X136260522Y-66188376D01*
X122936000Y-115386200D02*
X125659800Y-118110000D01*
X126796800Y-73105600D02*
X126796800Y-95300800D01*
X136260522Y-66188376D02*
X136320441Y-66188376D01*
X105250000Y-96320000D02*
X111749200Y-102819200D01*
X124250000Y-96320000D02*
X122936000Y-97634000D01*
X136721416Y-65787401D02*
X136881977Y-65787401D01*
X126695200Y-95351600D02*
X125726800Y-96320000D01*
X137360000Y-65784957D02*
X137360000Y-62319600D01*
X136320441Y-66188376D02*
X136721416Y-65787401D01*
X125726800Y-96320000D02*
X124250000Y-96320000D01*
X125659800Y-118110000D02*
X131165600Y-118110000D01*
X143250000Y-97389600D02*
X143250000Y-96320000D01*
X136881977Y-65787401D02*
X136884421Y-65784957D01*
X126796800Y-95300800D02*
X126746000Y-95351600D01*
X131165600Y-116638687D02*
X135067400Y-112736887D01*
X124250000Y-100069200D02*
X124250000Y-96320000D01*
X124307600Y-100126800D02*
X124250000Y-100069200D01*
X126746000Y-95351600D02*
X126695200Y-95351600D01*
X121818400Y-102819200D02*
X124307600Y-100330000D01*
X124307600Y-100330000D02*
X124307600Y-100126800D01*
X131165600Y-118110000D02*
X131165600Y-116638687D01*
X135067400Y-112736887D02*
X135067400Y-105572200D01*
X134874000Y-66395600D02*
X136053298Y-66395600D01*
G04 #@! TO.N,Net-(D202-A)*
X105200000Y-74930000D02*
X105250000Y-74980000D01*
X104292400Y-74930000D02*
X105200000Y-74930000D01*
G04 #@! TD*
G04 #@! TA.AperFunction,Conductor*
G04 #@! TO.N,+5V_USB*
G36*
X125538949Y-27450941D02*
G01*
X125605890Y-27470955D01*
X125651384Y-27523984D01*
X125662330Y-27573661D01*
X125685180Y-29790065D01*
X125666188Y-29857304D01*
X125613859Y-29903600D01*
X125561187Y-29915343D01*
X124032472Y-29915343D01*
X123965433Y-29895658D01*
X123919678Y-29842854D01*
X123908472Y-29791343D01*
X123908472Y-28137343D01*
X122409872Y-28137343D01*
X122409872Y-28851543D01*
X122390187Y-28918582D01*
X122337383Y-28964337D01*
X122285872Y-28975543D01*
X120628872Y-28975543D01*
X120561833Y-28955858D01*
X120516078Y-28903054D01*
X120504872Y-28851543D01*
X120504872Y-28093391D01*
X120524557Y-28026352D01*
X120577361Y-27980597D01*
X120642127Y-27970102D01*
X120655127Y-27971500D01*
X121660872Y-27971499D01*
X121720483Y-27965091D01*
X121855331Y-27914796D01*
X121970546Y-27828546D01*
X121998511Y-27791190D01*
X122054444Y-27749318D01*
X122097778Y-27741500D01*
X123354449Y-27741500D01*
X123421488Y-27761185D01*
X123428760Y-27766233D01*
X123513669Y-27829796D01*
X123513671Y-27829797D01*
X123648517Y-27880091D01*
X123648516Y-27880091D01*
X123655444Y-27880835D01*
X123708127Y-27886500D01*
X124703872Y-27886499D01*
X124763483Y-27880091D01*
X124898331Y-27829796D01*
X125013546Y-27743546D01*
X125099796Y-27628331D01*
X125136397Y-27530199D01*
X125178268Y-27474265D01*
X125243732Y-27449847D01*
X125253170Y-27449533D01*
X125538949Y-27450941D01*
G37*
G04 #@! TD.AperFunction*
G04 #@! TD*
G04 #@! TA.AperFunction,Conductor*
G04 #@! TO.N,+3V3*
G36*
X85189382Y-58398876D02*
G01*
X85211278Y-58416307D01*
X85229674Y-58434704D01*
X85229676Y-58434706D01*
X85328722Y-58500886D01*
X85374053Y-58531175D01*
X85421038Y-58550636D01*
X85421039Y-58550637D01*
X85462776Y-58567925D01*
X85534476Y-58597625D01*
X85704775Y-58631499D01*
X85704779Y-58631500D01*
X85704780Y-58631500D01*
X85878421Y-58631500D01*
X87605908Y-58631500D01*
X87672947Y-58651185D01*
X87693589Y-58667819D01*
X90373700Y-61347930D01*
X90407185Y-61409253D01*
X90409897Y-61430105D01*
X90565257Y-64925683D01*
X90548568Y-64993531D01*
X90497848Y-65041585D01*
X90429199Y-65054589D01*
X90375011Y-65033542D01*
X90374514Y-65034454D01*
X90367504Y-65030626D01*
X90367071Y-65030458D01*
X90366733Y-65030205D01*
X90366728Y-65030202D01*
X90231882Y-64979908D01*
X90231883Y-64979908D01*
X90172283Y-64973501D01*
X90172281Y-64973500D01*
X90172273Y-64973500D01*
X90172264Y-64973500D01*
X88976529Y-64973500D01*
X88976523Y-64973501D01*
X88916916Y-64979908D01*
X88782071Y-65030202D01*
X88782068Y-65030204D01*
X88670711Y-65113566D01*
X88605246Y-65137983D01*
X88594016Y-65138276D01*
X87934800Y-65125599D01*
X87934800Y-69463500D01*
X87915115Y-69530539D01*
X87862311Y-69576294D01*
X87810800Y-69587500D01*
X86879129Y-69587500D01*
X86879123Y-69587501D01*
X86819516Y-69593908D01*
X86684671Y-69644202D01*
X86684669Y-69644203D01*
X86609111Y-69700767D01*
X86543647Y-69725184D01*
X86475374Y-69710333D01*
X86425968Y-69660928D01*
X86410800Y-69601500D01*
X86410800Y-65176400D01*
X85988891Y-65176400D01*
X85921852Y-65156715D01*
X85889623Y-65126709D01*
X85881948Y-65116457D01*
X85881946Y-65116454D01*
X85865191Y-65103911D01*
X85766735Y-65030206D01*
X85766728Y-65030202D01*
X85631882Y-64979908D01*
X85631883Y-64979908D01*
X85572283Y-64973501D01*
X85572281Y-64973500D01*
X85572273Y-64973500D01*
X85572264Y-64973500D01*
X84376529Y-64973500D01*
X84376523Y-64973501D01*
X84316916Y-64979908D01*
X84182071Y-65030202D01*
X84182064Y-65030206D01*
X84066857Y-65116451D01*
X84066851Y-65116457D01*
X84059177Y-65126709D01*
X84003244Y-65168581D01*
X83959909Y-65176400D01*
X83639200Y-65176400D01*
X83572161Y-65156715D01*
X83526406Y-65103911D01*
X83515200Y-65052400D01*
X83515200Y-60909200D01*
X81417923Y-60909200D01*
X81350884Y-60889515D01*
X81318658Y-60859513D01*
X81274746Y-60800854D01*
X81251909Y-60783758D01*
X81159535Y-60714606D01*
X81159528Y-60714602D01*
X81024682Y-60664308D01*
X81024683Y-60664308D01*
X80965083Y-60657901D01*
X80965081Y-60657900D01*
X80965073Y-60657900D01*
X80965064Y-60657900D01*
X79969329Y-60657900D01*
X79969323Y-60657901D01*
X79909715Y-60664309D01*
X79821732Y-60697124D01*
X79752041Y-60702108D01*
X79690718Y-60668622D01*
X79657234Y-60607299D01*
X79654400Y-60580942D01*
X79654400Y-58567925D01*
X79674085Y-58500886D01*
X79726889Y-58455131D01*
X79776914Y-58443934D01*
X85122117Y-58379996D01*
X85189382Y-58398876D01*
G37*
G04 #@! TD.AperFunction*
G04 #@! TD*
G04 #@! TA.AperFunction,Conductor*
G04 #@! TO.N,+5V_USB*
G36*
X106736632Y-27501618D02*
G01*
X106745512Y-27507684D01*
X106749668Y-27510795D01*
X106749670Y-27510797D01*
X106884517Y-27561091D01*
X106884516Y-27561091D01*
X106891444Y-27561835D01*
X106944127Y-27567500D01*
X107939872Y-27567499D01*
X107999483Y-27561091D01*
X108124282Y-27514543D01*
X108193971Y-27509559D01*
X108255295Y-27543043D01*
X108266876Y-27556409D01*
X108280454Y-27574546D01*
X108326643Y-27609123D01*
X108395664Y-27660793D01*
X108395671Y-27660797D01*
X108530517Y-27711091D01*
X108530516Y-27711091D01*
X108537444Y-27711835D01*
X108590127Y-27717500D01*
X109359699Y-27717499D01*
X109426738Y-27737183D01*
X109447380Y-27753818D01*
X109655181Y-27961619D01*
X109688666Y-28022942D01*
X109691500Y-28049300D01*
X109691500Y-28533469D01*
X109731868Y-28736412D01*
X109731870Y-28736420D01*
X109811058Y-28927596D01*
X109926024Y-29099657D01*
X109929888Y-29104365D01*
X109928837Y-29105226D01*
X109959008Y-29160479D01*
X109954024Y-29230171D01*
X109952403Y-29234289D01*
X109944056Y-29254439D01*
X109944053Y-29254451D01*
X109913100Y-29410060D01*
X109913100Y-29568736D01*
X109913697Y-29574798D01*
X109912252Y-29574940D01*
X109906676Y-29637312D01*
X109863818Y-29692493D01*
X109797930Y-29715743D01*
X109791283Y-29715921D01*
X107388960Y-29715921D01*
X107321921Y-29696236D01*
X107276166Y-29643432D01*
X107266222Y-29574274D01*
X107267343Y-29567729D01*
X107282300Y-29492537D01*
X107282300Y-29333862D01*
X107282299Y-29333860D01*
X107267621Y-29260068D01*
X107251345Y-29178244D01*
X107190624Y-29031653D01*
X107190622Y-29031650D01*
X107190620Y-29031646D01*
X107102472Y-28899724D01*
X107102469Y-28899720D01*
X106990279Y-28787530D01*
X106990275Y-28787527D01*
X106858353Y-28699379D01*
X106858343Y-28699374D01*
X106711756Y-28638655D01*
X106711748Y-28638653D01*
X106556138Y-28607700D01*
X106556135Y-28607700D01*
X106397465Y-28607700D01*
X106397462Y-28607700D01*
X106241851Y-28638653D01*
X106241843Y-28638655D01*
X106095256Y-28699374D01*
X106095246Y-28699379D01*
X105963324Y-28787527D01*
X105963320Y-28787530D01*
X105851130Y-28899720D01*
X105851127Y-28899724D01*
X105762979Y-29031646D01*
X105762974Y-29031656D01*
X105702255Y-29178243D01*
X105702253Y-29178251D01*
X105671300Y-29333860D01*
X105671300Y-29333865D01*
X105671300Y-29492535D01*
X105671300Y-29492537D01*
X105671299Y-29492537D01*
X105686257Y-29567729D01*
X105680030Y-29637321D01*
X105637167Y-29692498D01*
X105571278Y-29715743D01*
X105564640Y-29715921D01*
X105255535Y-29715921D01*
X105188496Y-29696236D01*
X105142741Y-29643432D01*
X105131544Y-29590445D01*
X105144127Y-28533469D01*
X105154920Y-27626781D01*
X105175401Y-27559983D01*
X105228746Y-27514859D01*
X105277011Y-27504274D01*
X106669304Y-27482963D01*
X106736632Y-27501618D01*
G37*
G04 #@! TD.AperFunction*
G04 #@! TD*
M02*
