%TF.GenerationSoftware,KiCad,Pcbnew,9.0.2*%
%TF.CreationDate,2025-06-26T19:32:42+02:00*%
%TF.ProjectId,Macro Pad,4d616372-6f20-4506-9164-2e6b69636164,rev?*%
%TF.SameCoordinates,Original*%
%TF.FileFunction,Drillmap*%
%TF.FilePolarity,Positive*%
%FSLAX45Y45*%
G04 Gerber Fmt 4.5, Leading zero omitted, Abs format (unit mm)*
G04 Created by KiCad (PCBNEW 9.0.2) date 2025-06-26 19:32:42*
%MOMM*%
%LPD*%
G01*
G04 APERTURE LIST*
%ADD10C,0.050000*%
%ADD11C,0.200000*%
G04 APERTURE END LIST*
D10*
X14525000Y-2215000D02*
G75*
G02*
X15025000Y-2715000I0J-500000D01*
G01*
X15025000Y-12215000D02*
X15025000Y-12715000D01*
X14525000Y-13215000D02*
X8325000Y-13215000D01*
X7825000Y-2715000D02*
G75*
G02*
X8325000Y-2215000I500000J0D01*
G01*
X8325000Y-2215000D02*
X14525000Y-2215000D01*
X8325000Y-13215000D02*
G75*
G02*
X7825000Y-12715000I0J500000D01*
G01*
X15025000Y-2715000D02*
X15025000Y-12215000D01*
X15025000Y-12715000D02*
G75*
G02*
X14525000Y-13215000I-500000J0D01*
G01*
X7825000Y-3215000D02*
X7825000Y-2715000D01*
X7825000Y-3215000D02*
X7825000Y-12215000D01*
X7825000Y-12715000D02*
X7825000Y-12215000D01*
D11*
X8083277Y-13528984D02*
X8083277Y-13328984D01*
X8083277Y-13328984D02*
X8130896Y-13328984D01*
X8130896Y-13328984D02*
X8159467Y-13338508D01*
X8159467Y-13338508D02*
X8178515Y-13357555D01*
X8178515Y-13357555D02*
X8188039Y-13376603D01*
X8188039Y-13376603D02*
X8197562Y-13414698D01*
X8197562Y-13414698D02*
X8197562Y-13443269D01*
X8197562Y-13443269D02*
X8188039Y-13481365D01*
X8188039Y-13481365D02*
X8178515Y-13500412D01*
X8178515Y-13500412D02*
X8159467Y-13519460D01*
X8159467Y-13519460D02*
X8130896Y-13528984D01*
X8130896Y-13528984D02*
X8083277Y-13528984D01*
X8283277Y-13528984D02*
X8283277Y-13395650D01*
X8283277Y-13433746D02*
X8292801Y-13414698D01*
X8292801Y-13414698D02*
X8302324Y-13405174D01*
X8302324Y-13405174D02*
X8321372Y-13395650D01*
X8321372Y-13395650D02*
X8340420Y-13395650D01*
X8407086Y-13528984D02*
X8407086Y-13395650D01*
X8407086Y-13328984D02*
X8397563Y-13338508D01*
X8397563Y-13338508D02*
X8407086Y-13348031D01*
X8407086Y-13348031D02*
X8416610Y-13338508D01*
X8416610Y-13338508D02*
X8407086Y-13328984D01*
X8407086Y-13328984D02*
X8407086Y-13348031D01*
X8530896Y-13528984D02*
X8511848Y-13519460D01*
X8511848Y-13519460D02*
X8502324Y-13500412D01*
X8502324Y-13500412D02*
X8502324Y-13328984D01*
X8635658Y-13528984D02*
X8616610Y-13519460D01*
X8616610Y-13519460D02*
X8607086Y-13500412D01*
X8607086Y-13500412D02*
X8607086Y-13328984D01*
X8864229Y-13528984D02*
X8864229Y-13328984D01*
X8864229Y-13328984D02*
X8930896Y-13471841D01*
X8930896Y-13471841D02*
X8997563Y-13328984D01*
X8997563Y-13328984D02*
X8997563Y-13528984D01*
X9178515Y-13528984D02*
X9178515Y-13424222D01*
X9178515Y-13424222D02*
X9168991Y-13405174D01*
X9168991Y-13405174D02*
X9149944Y-13395650D01*
X9149944Y-13395650D02*
X9111848Y-13395650D01*
X9111848Y-13395650D02*
X9092801Y-13405174D01*
X9178515Y-13519460D02*
X9159467Y-13528984D01*
X9159467Y-13528984D02*
X9111848Y-13528984D01*
X9111848Y-13528984D02*
X9092801Y-13519460D01*
X9092801Y-13519460D02*
X9083277Y-13500412D01*
X9083277Y-13500412D02*
X9083277Y-13481365D01*
X9083277Y-13481365D02*
X9092801Y-13462317D01*
X9092801Y-13462317D02*
X9111848Y-13452793D01*
X9111848Y-13452793D02*
X9159467Y-13452793D01*
X9159467Y-13452793D02*
X9178515Y-13443269D01*
X9273753Y-13395650D02*
X9273753Y-13595650D01*
X9273753Y-13405174D02*
X9292801Y-13395650D01*
X9292801Y-13395650D02*
X9330896Y-13395650D01*
X9330896Y-13395650D02*
X9349944Y-13405174D01*
X9349944Y-13405174D02*
X9359467Y-13414698D01*
X9359467Y-13414698D02*
X9368991Y-13433746D01*
X9368991Y-13433746D02*
X9368991Y-13490888D01*
X9368991Y-13490888D02*
X9359467Y-13509936D01*
X9359467Y-13509936D02*
X9349944Y-13519460D01*
X9349944Y-13519460D02*
X9330896Y-13528984D01*
X9330896Y-13528984D02*
X9292801Y-13528984D01*
X9292801Y-13528984D02*
X9273753Y-13519460D01*
X9454705Y-13509936D02*
X9464229Y-13519460D01*
X9464229Y-13519460D02*
X9454705Y-13528984D01*
X9454705Y-13528984D02*
X9445182Y-13519460D01*
X9445182Y-13519460D02*
X9454705Y-13509936D01*
X9454705Y-13509936D02*
X9454705Y-13528984D01*
X9454705Y-13405174D02*
X9464229Y-13414698D01*
X9464229Y-13414698D02*
X9454705Y-13424222D01*
X9454705Y-13424222D02*
X9445182Y-13414698D01*
X9445182Y-13414698D02*
X9454705Y-13405174D01*
X9454705Y-13405174D02*
X9454705Y-13424222D01*
M02*
