G04 #@! TF.GenerationSoftware,KiCad,Pcbnew,9.0.2*
G04 #@! TF.CreationDate,2025-06-26T19:32:41+02:00*
G04 #@! TF.ProjectId,Macro Pad,4d616372-6f20-4506-9164-2e6b69636164,rev?*
G04 #@! TF.SameCoordinates,Original*
G04 #@! TF.FileFunction,Copper,L1,Top*
G04 #@! TF.FilePolarity,Positive*
%FSLAX46Y46*%
G04 Gerber Fmt 4.6, Leading zero omitted, Abs format (unit mm)*
G04 Created by KiCad (PCBNEW 9.0.2) date 2025-06-26 19:32:41*
%MOMM*%
%LPD*%
G01*
G04 APERTURE LIST*
G04 #@! TA.AperFunction,ComponentPad*
%ADD10C,1.520000*%
G04 #@! TD*
G04 #@! TA.AperFunction,ComponentPad*
%ADD11O,2.600000X3.000000*%
G04 #@! TD*
G04 #@! TA.AperFunction,ComponentPad*
%ADD12C,1.800000*%
G04 #@! TD*
G04 #@! TA.AperFunction,ComponentPad*
%ADD13C,5.500000*%
G04 #@! TD*
G04 #@! TA.AperFunction,ComponentPad*
%ADD14C,4.200000*%
G04 #@! TD*
G04 #@! TA.AperFunction,ComponentPad*
%ADD15C,2.400000*%
G04 #@! TD*
G04 #@! TA.AperFunction,ComponentPad*
%ADD16C,1.600000*%
G04 #@! TD*
G04 #@! TA.AperFunction,ComponentPad*
%ADD17R,1.800000X1.570000*%
G04 #@! TD*
G04 #@! TA.AperFunction,SMDPad,CuDef*
%ADD18R,1.400000X1.000000*%
G04 #@! TD*
G04 #@! TA.AperFunction,ComponentPad*
%ADD19C,0.700000*%
G04 #@! TD*
G04 #@! TA.AperFunction,ComponentPad*
%ADD20O,1.200000X1.800000*%
G04 #@! TD*
G04 #@! TA.AperFunction,ComponentPad*
%ADD21O,1.100000X2.000000*%
G04 #@! TD*
G04 #@! TA.AperFunction,ViaPad*
%ADD22C,0.610000*%
G04 #@! TD*
G04 #@! TA.AperFunction,Conductor*
%ADD23C,0.510000*%
G04 #@! TD*
G04 #@! TA.AperFunction,Conductor*
%ADD24C,0.205740*%
G04 #@! TD*
G04 #@! TA.AperFunction,Conductor*
%ADD25C,0.152400*%
G04 #@! TD*
G04 #@! TA.AperFunction,Conductor*
%ADD26C,0.155000*%
G04 #@! TD*
G04 #@! TA.AperFunction,Conductor*
%ADD27C,0.206000*%
G04 #@! TD*
G04 APERTURE END LIST*
D10*
G04 #@! TO.P,ENC201,1,1*
G04 #@! TO.N,COL0*
X92710000Y-32650000D03*
G04 #@! TO.P,ENC201,2,2*
G04 #@! TO.N,/Keyboard/ENC1_SW*
X97790000Y-32650000D03*
D11*
G04 #@! TO.P,ENC201,3,3*
G04 #@! TO.N,GND*
X100950000Y-39650000D03*
G04 #@! TO.P,ENC201,4,4*
X89550000Y-39650000D03*
D12*
G04 #@! TO.P,ENC201,A,A*
G04 #@! TO.N,Net-(ENC201-PadA)*
X92710000Y-47150000D03*
G04 #@! TO.P,ENC201,B,B*
G04 #@! TO.N,Net-(ENC201-PadB)*
X97790000Y-47150000D03*
G04 #@! TO.P,ENC201,C,C*
G04 #@! TO.N,GND*
X95250000Y-47150000D03*
G04 #@! TD*
D13*
G04 #@! TO.P,H203,1,1*
G04 #@! TO.N,GND*
X83250000Y-127150000D03*
G04 #@! TD*
D14*
G04 #@! TO.P,SW210,*
G04 #@! TO.N,*
X133980000Y-118110000D03*
D15*
G04 #@! TO.P,SW210,1,1*
G04 #@! TO.N,COL2*
X130180000Y-115570000D03*
G04 #@! TO.P,SW210,2,2*
G04 #@! TO.N,Net-(D210-A)*
X136520000Y-113030000D03*
G04 #@! TD*
D14*
G04 #@! TO.P,SW202,*
G04 #@! TO.N,*
X95880000Y-80010000D03*
D15*
G04 #@! TO.P,SW202,1,1*
G04 #@! TO.N,COL0*
X92080000Y-77470000D03*
G04 #@! TO.P,SW202,2,2*
G04 #@! TO.N,Net-(D202-A)*
X98420000Y-74930000D03*
G04 #@! TD*
D16*
G04 #@! TO.P,OLED201,1,GND*
G04 #@! TO.N,GND*
X108750000Y-64960000D03*
G04 #@! TO.P,OLED201,2,VCC*
G04 #@! TO.N,+3V3*
X108750000Y-62420000D03*
G04 #@! TO.P,OLED201,3,SCL*
G04 #@! TO.N,OLED_SCL*
X108750000Y-59880000D03*
G04 #@! TO.P,OLED201,4,SDA*
G04 #@! TO.N,OLED_SDA*
X108750000Y-57340000D03*
G04 #@! TD*
D10*
G04 #@! TO.P,ENC202,1,1*
G04 #@! TO.N,COL1*
X111760000Y-32650000D03*
G04 #@! TO.P,ENC202,2,2*
G04 #@! TO.N,/Keyboard/ENC2_SW*
X116840000Y-32650000D03*
D11*
G04 #@! TO.P,ENC202,3,3*
G04 #@! TO.N,GND*
X120000000Y-39650000D03*
G04 #@! TO.P,ENC202,4,4*
X108600000Y-39650000D03*
D12*
G04 #@! TO.P,ENC202,A,A*
G04 #@! TO.N,Net-(ENC202-PadA)*
X111760000Y-47150000D03*
G04 #@! TO.P,ENC202,B,B*
G04 #@! TO.N,Net-(ENC202-PadB)*
X116840000Y-47150000D03*
G04 #@! TO.P,ENC202,C,C*
G04 #@! TO.N,GND*
X114300000Y-47150000D03*
G04 #@! TD*
D10*
G04 #@! TO.P,ENC203,1,1*
G04 #@! TO.N,COL2*
X130810000Y-32650000D03*
G04 #@! TO.P,ENC203,2,2*
G04 #@! TO.N,/Keyboard/ENC3_SW*
X135890000Y-32650000D03*
D11*
G04 #@! TO.P,ENC203,3,3*
G04 #@! TO.N,GND*
X139050000Y-39650000D03*
G04 #@! TO.P,ENC203,4,4*
X127650000Y-39650000D03*
D12*
G04 #@! TO.P,ENC203,A,A*
G04 #@! TO.N,Net-(ENC203-PadA)*
X130810000Y-47150000D03*
G04 #@! TO.P,ENC203,B,B*
G04 #@! TO.N,Net-(ENC203-PadB)*
X135890000Y-47150000D03*
G04 #@! TO.P,ENC203,C,C*
G04 #@! TO.N,GND*
X133350000Y-47150000D03*
G04 #@! TD*
D17*
G04 #@! TO.P,H101,1,1*
G04 #@! TO.N,/SWCLK*
X146405600Y-91897200D03*
D12*
G04 #@! TO.P,H101,2,2*
G04 #@! TO.N,GND*
X146405600Y-89357200D03*
G04 #@! TO.P,H101,3,3*
G04 #@! TO.N,/SWDIO*
X146405600Y-86817200D03*
G04 #@! TD*
D14*
G04 #@! TO.P,SW208,*
G04 #@! TO.N,*
X95880000Y-118110000D03*
D15*
G04 #@! TO.P,SW208,1,1*
G04 #@! TO.N,COL0*
X92080000Y-115570000D03*
G04 #@! TO.P,SW208,2,2*
G04 #@! TO.N,Net-(D208-A)*
X98420000Y-113030000D03*
G04 #@! TD*
D13*
G04 #@! TO.P,H202,1,1*
G04 #@! TO.N,GND*
X145250000Y-27150000D03*
G04 #@! TD*
G04 #@! TO.P,H201,1,1*
G04 #@! TO.N,GND*
X83250000Y-27150000D03*
G04 #@! TD*
D14*
G04 #@! TO.P,SW203,*
G04 #@! TO.N,*
X114930000Y-80010000D03*
D15*
G04 #@! TO.P,SW203,1,1*
G04 #@! TO.N,COL1*
X111130000Y-77470000D03*
G04 #@! TO.P,SW203,2,2*
G04 #@! TO.N,Net-(D203-A)*
X117470000Y-74930000D03*
G04 #@! TD*
D14*
G04 #@! TO.P,SW205,*
G04 #@! TO.N,*
X95880000Y-99060000D03*
D15*
G04 #@! TO.P,SW205,1,1*
G04 #@! TO.N,COL0*
X92080000Y-96520000D03*
G04 #@! TO.P,SW205,2,2*
G04 #@! TO.N,Net-(D205-A)*
X98420000Y-93980000D03*
G04 #@! TD*
D14*
G04 #@! TO.P,SW209,*
G04 #@! TO.N,*
X114930000Y-118110000D03*
D15*
G04 #@! TO.P,SW209,1,1*
G04 #@! TO.N,COL1*
X111130000Y-115570000D03*
G04 #@! TO.P,SW209,2,2*
G04 #@! TO.N,Net-(D209-A)*
X117470000Y-113030000D03*
G04 #@! TD*
D13*
G04 #@! TO.P,H204,1,1*
G04 #@! TO.N,GND*
X145250000Y-127150000D03*
G04 #@! TD*
D18*
G04 #@! TO.P,LED101,1,A*
G04 #@! TO.N,Net-(LED101-A)*
X102616000Y-27720000D03*
G04 #@! TO.P,LED101,2,K*
G04 #@! TO.N,GND*
X102616000Y-25620000D03*
G04 #@! TD*
D14*
G04 #@! TO.P,SW206,*
G04 #@! TO.N,*
X114930000Y-99060000D03*
D15*
G04 #@! TO.P,SW206,1,1*
G04 #@! TO.N,COL1*
X111130000Y-96520000D03*
G04 #@! TO.P,SW206,2,2*
G04 #@! TO.N,Net-(D206-A)*
X117470000Y-93980000D03*
G04 #@! TD*
D14*
G04 #@! TO.P,SW201,*
G04 #@! TO.N,*
X95880000Y-60960000D03*
D15*
G04 #@! TO.P,SW201,1,1*
G04 #@! TO.N,COL0*
X92080000Y-58420000D03*
G04 #@! TO.P,SW201,2,2*
G04 #@! TO.N,Net-(D201-A)*
X98420000Y-55880000D03*
G04 #@! TD*
D14*
G04 #@! TO.P,SW207,*
G04 #@! TO.N,*
X133980000Y-99060000D03*
D15*
G04 #@! TO.P,SW207,1,1*
G04 #@! TO.N,COL2*
X130180000Y-96520000D03*
G04 #@! TO.P,SW207,2,2*
G04 #@! TO.N,Net-(D207-A)*
X136520000Y-93980000D03*
G04 #@! TD*
D14*
G04 #@! TO.P,SW204,*
G04 #@! TO.N,*
X133980000Y-80010000D03*
D15*
G04 #@! TO.P,SW204,1,1*
G04 #@! TO.N,COL2*
X130180000Y-77470000D03*
G04 #@! TO.P,SW204,2,2*
G04 #@! TO.N,Net-(D204-A)*
X136520000Y-74930000D03*
G04 #@! TD*
D18*
G04 #@! TO.P,LED102,1,A*
G04 #@! TO.N,Net-(LED102-A)*
X95758000Y-27720000D03*
G04 #@! TO.P,LED102,2,K*
G04 #@! TO.N,GND*
X95758000Y-25620000D03*
G04 #@! TD*
D19*
G04 #@! TO.P,USB101,*
G04 #@! TO.N,*
X112172000Y-27450000D03*
X117952000Y-27450000D03*
D20*
G04 #@! TO.P,USB101,13,SHELL*
G04 #@! TO.N,GND*
X110742000Y-23770000D03*
D21*
X110742000Y-27980000D03*
D20*
G04 #@! TO.P,USB101,14,SHELL*
X119382000Y-23770000D03*
D21*
X119382000Y-27980000D03*
G04 #@! TD*
D22*
G04 #@! TO.N,+3V3*
X125018800Y-70205600D03*
X144373600Y-62331600D03*
X119500000Y-43750000D03*
X103750000Y-36427400D03*
X127711200Y-71120000D03*
X131775200Y-51104800D03*
X120599200Y-76860400D03*
X135890000Y-42722800D03*
X92750000Y-51750000D03*
X131673600Y-89306400D03*
X114305600Y-42781400D03*
X130911600Y-66243200D03*
X130911600Y-67919600D03*
X119786400Y-63703200D03*
X123748800Y-62839600D03*
X121500000Y-64750000D03*
X144373600Y-65430400D03*
X133350000Y-42672000D03*
X108750000Y-42500000D03*
X144373600Y-64770000D03*
X140004800Y-63093600D03*
X118500000Y-48000000D03*
X142341600Y-58411730D03*
X97790000Y-42418000D03*
X142443200Y-42672000D03*
X121250000Y-43750000D03*
X128574800Y-89712800D03*
X102750000Y-38000000D03*
X112000000Y-42500000D03*
X116896400Y-42781400D03*
X135128000Y-53695600D03*
X95250000Y-42468800D03*
X104500000Y-65500000D03*
X86000000Y-42750000D03*
X132486400Y-83312000D03*
G04 #@! TO.N,GND*
X131114800Y-59791600D03*
X95758000Y-24282400D03*
X109250000Y-23250000D03*
X113500000Y-35000000D03*
X107500000Y-25804200D03*
X141526000Y-35512000D03*
X80473600Y-62776400D03*
X111633000Y-26136600D03*
X144250000Y-49750000D03*
X124358400Y-59029600D03*
X122682000Y-72390000D03*
X136144000Y-59944000D03*
X144250000Y-48750000D03*
X138176000Y-57658000D03*
X89560400Y-68935600D03*
X111750000Y-29500000D03*
X146759000Y-64250000D03*
X146862800Y-61214000D03*
X125018800Y-52781200D03*
X124500000Y-46750000D03*
X146759000Y-67250000D03*
X84937600Y-71780400D03*
X122123200Y-35560000D03*
X127355600Y-66243200D03*
X86918800Y-35661600D03*
X118000000Y-62839600D03*
X86563200Y-47091600D03*
X126593600Y-35509200D03*
X110718600Y-29489400D03*
X139852400Y-87071200D03*
X80873600Y-35661600D03*
X146608800Y-35966400D03*
X123500000Y-47250000D03*
X115265200Y-59385200D03*
X119989600Y-56794400D03*
X146862800Y-58674000D03*
X120750000Y-23000000D03*
X105460800Y-46431200D03*
X138176000Y-59944000D03*
X103936800Y-45364400D03*
X118500000Y-29250000D03*
X121615200Y-52781200D03*
X148234400Y-89357200D03*
X109000000Y-25804200D03*
X87376000Y-71780400D03*
X106476800Y-29413200D03*
X136144000Y-57658000D03*
X142494000Y-47294800D03*
X88143600Y-29675000D03*
X102616000Y-24434800D03*
X118750000Y-26750000D03*
X117602000Y-66192400D03*
X130860800Y-69392800D03*
X129997200Y-70307200D03*
G04 #@! TO.N,/+3V3_A*
X143284728Y-56250000D03*
X121920000Y-76708000D03*
X145500000Y-69750000D03*
X144549896Y-57657070D03*
G04 #@! TO.N,/+1V1*
X146750000Y-57099200D03*
X147321060Y-59280298D03*
G04 #@! TO.N,+5V_USB*
X117510003Y-30000000D03*
X117007431Y-31446589D03*
X120750000Y-30000000D03*
G04 #@! TO.N,/XIN*
X129794000Y-60147200D03*
X124409200Y-56896000D03*
G04 #@! TO.N,/RESET_N*
X89052400Y-32613600D03*
X142632879Y-52818633D03*
G04 #@! TO.N,ENC1_B*
X107035600Y-49123600D03*
X127711200Y-58369200D03*
G04 #@! TO.N,ENC2_A*
X108052059Y-49529541D03*
X128524000Y-58420000D03*
G04 #@! TO.N,ENC2_B*
X123139200Y-49479200D03*
X129336800Y-58369200D03*
G04 #@! TO.N,Net-(D201-A)*
X104444800Y-55880000D03*
G04 #@! TO.N,ROW0*
X105206800Y-60147200D03*
X137262101Y-66696757D03*
G04 #@! TO.N,COL1*
X108661200Y-54152800D03*
X137746791Y-68018856D03*
X110032800Y-50800000D03*
X112318800Y-72948800D03*
X119634000Y-75285600D03*
G04 #@! TO.N,Net-(D204-A)*
X144000000Y-71427000D03*
X144000000Y-74750000D03*
X144500000Y-72750000D03*
X140000000Y-71500000D03*
G04 #@! TO.N,Net-(D205-A)*
X104190800Y-93929200D03*
G04 #@! TO.N,Net-(D207-A)*
X142138400Y-94030800D03*
G04 #@! TO.N,Net-(D208-A)*
X104394000Y-113030000D03*
G04 #@! TO.N,Net-(D209-A)*
X123494800Y-113030000D03*
G04 #@! TO.N,ROW3*
X127812800Y-72244200D03*
X125171200Y-116484400D03*
X133807200Y-109118400D03*
X135577189Y-65839000D03*
X123698000Y-118313200D03*
X142036800Y-115366800D03*
G04 #@! TO.N,ROW4*
X128473200Y-74470600D03*
X110058200Y-63068200D03*
X121056400Y-74726800D03*
X97790000Y-39065200D03*
G04 #@! TO.N,COL0*
X139344400Y-68376800D03*
X94000000Y-52750000D03*
G04 #@! TO.N,/SWDIO*
X142748000Y-52067400D03*
G04 #@! TO.N,/SWCLK*
X147016400Y-56000000D03*
G04 #@! TO.N,Net-(LED101-A)*
X102717600Y-29413200D03*
G04 #@! TO.N,Net-(LED102-A)*
X95859600Y-29311600D03*
G04 #@! TO.N,OLED_SDA*
X139547600Y-52775800D03*
X113182400Y-51257200D03*
G04 #@! TO.N,OLED_SCL*
X110185200Y-57302400D03*
X138805641Y-53130000D03*
X132994400Y-50391400D03*
G04 #@! TO.N,/USER_LED1*
X140157200Y-53441600D03*
X102666800Y-35509200D03*
G04 #@! TO.N,/USB_N*
X143793197Y-57727832D03*
X142979728Y-54778772D03*
G04 #@! TO.N,/USB_P*
X142178728Y-54778772D03*
X143226803Y-58294226D03*
G04 #@! TO.N,Net-(USB101-CC2)*
X116750000Y-30000000D03*
X115250000Y-32250000D03*
G04 #@! TO.N,/XOUT*
X123494800Y-60858400D03*
X131535705Y-58710812D03*
G04 #@! TO.N,/QSPI_SS*
X139801600Y-83312000D03*
X140097547Y-75411182D03*
X143662400Y-73406000D03*
G04 #@! TO.N,COL2*
X144780000Y-45669200D03*
X145440400Y-71983600D03*
X130200400Y-79197200D03*
X130302000Y-75086000D03*
X133350000Y-77368400D03*
X137773118Y-67259310D03*
X130251200Y-80873600D03*
G04 #@! TO.N,/QSPI_SD2*
X141135224Y-76263624D03*
X139801600Y-85852000D03*
G04 #@! TO.N,/QSPI_SD1*
X140851543Y-75506539D03*
X139801600Y-84632800D03*
G04 #@! TO.N,ENC3_A*
X124866400Y-49580800D03*
X130096803Y-58369200D03*
G04 #@! TO.N,ENC3_B*
X130856806Y-58369200D03*
X139039600Y-49834800D03*
G04 #@! TO.N,ROW1*
X136491488Y-66745976D03*
X139499000Y-80483064D03*
X125831600Y-84023200D03*
X126187200Y-73357400D03*
G04 #@! TO.N,ROW2*
X134874000Y-66395600D03*
X127101600Y-72800800D03*
G04 #@! TO.N,Net-(D202-A)*
X104292400Y-74930000D03*
G04 #@! TD*
D23*
G04 #@! TO.N,+3V3*
X97875000Y-41625000D02*
X99096000Y-42846000D01*
X95375000Y-39125000D02*
X97875000Y-41625000D01*
D24*
X140000000Y-66000000D02*
X140679800Y-66000000D01*
D23*
X118500000Y-48000000D02*
X118500000Y-44385000D01*
X94800559Y-51986404D02*
X94800559Y-55550559D01*
X95375000Y-39125000D02*
X95375000Y-42343800D01*
X104250000Y-38000000D02*
X104500000Y-37750000D01*
X92986404Y-51986404D02*
X92750000Y-51750000D01*
X95375000Y-42343800D02*
X95250000Y-42468800D01*
X131775200Y-51104800D02*
X132537200Y-51104800D01*
X102750000Y-38000000D02*
X104250000Y-38000000D01*
X86000000Y-37711026D02*
X92227026Y-31484000D01*
D24*
X143078200Y-63601600D02*
X143078200Y-59148330D01*
D23*
X121500000Y-64750000D02*
X138750000Y-64750000D01*
X138750000Y-64750000D02*
X140000000Y-66000000D01*
X93192974Y-31484000D02*
X93876000Y-32167026D01*
X118500000Y-44385000D02*
X116896400Y-42781400D01*
X99096000Y-42846000D02*
X99096000Y-47690963D01*
D24*
X140679800Y-66000000D02*
X143078200Y-63601600D01*
D25*
X132486400Y-88493600D02*
X131673600Y-89306400D01*
D23*
X97875000Y-41625000D02*
X97875000Y-42333000D01*
X104500000Y-65250000D02*
X104500000Y-65500000D01*
X94800559Y-55550559D02*
X104500000Y-65250000D01*
D25*
X132486400Y-83312000D02*
X132486400Y-88493600D01*
D23*
X93876000Y-32167026D02*
X93876000Y-37626000D01*
X93876000Y-37626000D02*
X95375000Y-39125000D01*
X102500000Y-38000000D02*
X100500000Y-36000000D01*
D25*
X120599200Y-81737200D02*
X120599200Y-76860400D01*
D23*
X94800559Y-51986404D02*
X92986404Y-51986404D01*
D24*
X143078200Y-59148330D02*
X142341600Y-58411730D01*
D23*
X102750000Y-38000000D02*
X102500000Y-38000000D01*
X99096000Y-47690963D02*
X94800559Y-51986404D01*
D24*
X140004800Y-63093600D02*
X140004800Y-65995200D01*
D23*
X86000000Y-42750000D02*
X86000000Y-37711026D01*
X97875000Y-42333000D02*
X97790000Y-42418000D01*
X132537200Y-51104800D02*
X135128000Y-53695600D01*
D25*
X128574800Y-89712800D02*
X120599200Y-81737200D01*
D24*
X140004800Y-65995200D02*
X140000000Y-66000000D01*
D23*
X92227026Y-31484000D02*
X93192974Y-31484000D01*
G04 #@! TO.N,GND*
X148234400Y-89357200D02*
X146405600Y-89357200D01*
X119382000Y-27980000D02*
X119382000Y-27382000D01*
X109770000Y-23770000D02*
X109250000Y-23250000D01*
X119980000Y-23770000D02*
X120750000Y-23000000D01*
X119382000Y-27382000D02*
X118750000Y-26750000D01*
X111613400Y-26136600D02*
X110742000Y-27008000D01*
X119382000Y-23770000D02*
X119980000Y-23770000D01*
X95758000Y-25620000D02*
X95758000Y-24282400D01*
X110742000Y-27008000D02*
X110742000Y-27980000D01*
X110742000Y-23770000D02*
X109770000Y-23770000D01*
X111633000Y-26136600D02*
X111613400Y-26136600D01*
X102616000Y-25620000D02*
X102616000Y-24434800D01*
D24*
G04 #@! TO.N,/+3V3_A*
X139190400Y-69750000D02*
X145500000Y-69750000D01*
X132435600Y-76504800D02*
X132435600Y-78084104D01*
X125171200Y-79959200D02*
X121920000Y-76708000D01*
X144549896Y-57657070D02*
X144549896Y-57515168D01*
X144549896Y-57515168D02*
X143284728Y-56250000D01*
X130560504Y-79959200D02*
X125171200Y-79959200D01*
X132435600Y-76504800D02*
X139190400Y-69750000D01*
X132435600Y-78084104D02*
X130560504Y-79959200D01*
G04 #@! TO.N,/+1V1*
X147421670Y-57770870D02*
X146750000Y-57099200D01*
X147421670Y-59179688D02*
X147421670Y-57770870D01*
X147321060Y-59280298D02*
X147421670Y-59179688D01*
D23*
G04 #@! TO.N,+5V_USB*
X117060842Y-31500000D02*
X117007431Y-31446589D01*
X117510003Y-30944017D02*
X117007431Y-31446589D01*
X117510003Y-30000000D02*
X117510003Y-30944017D01*
X120750000Y-30000000D02*
X119250000Y-31500000D01*
X119250000Y-31500000D02*
X117060842Y-31500000D01*
D25*
G04 #@! TO.N,/XIN*
X127660400Y-60147200D02*
X129794000Y-60147200D01*
X124409200Y-56896000D02*
X127660400Y-60147200D01*
G04 #@! TO.N,/RESET_N*
X132892800Y-29362400D02*
X132892800Y-24892000D01*
X121615200Y-23317200D02*
X119684800Y-25247600D01*
X89611200Y-32613600D02*
X89052400Y-32613600D01*
X148031200Y-43992800D02*
X148031200Y-34340800D01*
X140601033Y-52818633D02*
X140601033Y-51422967D01*
X142632879Y-52818633D02*
X140601033Y-52818633D01*
X140601033Y-51422967D02*
X148031200Y-43992800D01*
X106781600Y-25247600D02*
X104851200Y-23317200D01*
X119684800Y-25247600D02*
X106781600Y-25247600D01*
X104851200Y-23317200D02*
X92303600Y-23317200D01*
X91084400Y-31140400D02*
X89611200Y-32613600D01*
X92303600Y-23317200D02*
X91084400Y-24536400D01*
X133502400Y-29972000D02*
X132892800Y-29362400D01*
X91084400Y-24536400D02*
X91084400Y-31140400D01*
X148031200Y-34340800D02*
X143662400Y-29972000D01*
X132892800Y-24892000D02*
X131318000Y-23317200D01*
X131318000Y-23317200D02*
X121615200Y-23317200D01*
X143662400Y-29972000D02*
X133502400Y-29972000D01*
G04 #@! TO.N,ENC1_B*
X127711200Y-58369200D02*
X127711200Y-53035200D01*
X107114166Y-49378800D02*
X107114166Y-49202166D01*
X110591600Y-53644800D02*
X110591600Y-52856234D01*
X127711200Y-53035200D02*
X126339600Y-51663600D01*
X110591600Y-52856234D02*
X107114166Y-49378800D01*
X126339600Y-51663600D02*
X114401600Y-51663600D01*
X112420400Y-53644800D02*
X110591600Y-53644800D01*
X114401600Y-51663600D02*
X112420400Y-53644800D01*
X107114166Y-49202166D02*
X107035600Y-49123600D01*
G04 #@! TO.N,ENC2_A*
X112273686Y-53290600D02*
X110945800Y-53290600D01*
X128065399Y-52888485D02*
X126484914Y-51308000D01*
X110945800Y-53290600D02*
X110945799Y-52709519D01*
X128065400Y-57934834D02*
X128065399Y-52888485D01*
X126484914Y-51308000D02*
X126288800Y-51308000D01*
X128524000Y-58420000D02*
X128268800Y-58164800D01*
X110945799Y-52709519D02*
X108052059Y-49815779D01*
X108052059Y-49815779D02*
X108052059Y-49529541D01*
X126287400Y-51309400D02*
X114254885Y-51309401D01*
X128268800Y-58164800D02*
X128268800Y-58138234D01*
X126288800Y-51308000D02*
X126287400Y-51309400D01*
X114254885Y-51309401D02*
X112273686Y-53290600D01*
X128268800Y-58138234D02*
X128065400Y-57934834D01*
G04 #@! TO.N,ENC2_B*
X129336800Y-58369200D02*
X128419600Y-57452000D01*
X124664600Y-50953800D02*
X123190000Y-49479200D01*
X128419600Y-57452000D02*
X128419598Y-52741770D01*
X123190000Y-49479200D02*
X123139200Y-49479200D01*
X128419598Y-52741770D02*
X126631628Y-50953800D01*
X126631628Y-50953800D02*
X124664600Y-50953800D01*
G04 #@! TO.N,Net-(D201-A)*
X98420000Y-55880000D02*
X104444800Y-55880000D01*
G04 #@! TO.N,ROW0*
X137262101Y-66762515D02*
X130110616Y-73914000D01*
X108966000Y-73914000D02*
X105206800Y-70154800D01*
X137262101Y-66696757D02*
X137262101Y-66762515D01*
X105206800Y-70154800D02*
X105206800Y-60147200D01*
X116868313Y-73477400D02*
X116431713Y-73914000D01*
X118071687Y-73477400D02*
X116868313Y-73477400D01*
X116431713Y-73914000D02*
X108966000Y-73914000D01*
X118508287Y-73914000D02*
X118071687Y-73477400D01*
X130110616Y-73914000D02*
X118508287Y-73914000D01*
G04 #@! TO.N,COL1*
X110185200Y-50647600D02*
X110032800Y-50800000D01*
X119583200Y-75336400D02*
X119634000Y-75285600D01*
X135131543Y-70862457D02*
X135131543Y-72088743D01*
X131577686Y-75642600D02*
X119583200Y-75642600D01*
X112318800Y-57810400D02*
X112318800Y-72948800D01*
X119583200Y-75642600D02*
X119583200Y-75336400D01*
X110185200Y-34224800D02*
X110185200Y-50647600D01*
X111760000Y-32650000D02*
X110185200Y-34224800D01*
X108661200Y-54152800D02*
X112318800Y-57810400D01*
X111130000Y-96520000D02*
X111130000Y-77470000D01*
X111130000Y-115570000D02*
X111130000Y-96520000D01*
X137746791Y-68018856D02*
X137746791Y-68247209D01*
X135131543Y-72088743D02*
X131577686Y-75642600D01*
X137746791Y-68247209D02*
X135131543Y-70862457D01*
G04 #@! TO.N,Net-(D204-A)*
X144500000Y-74250000D02*
X144000000Y-74750000D01*
X143927000Y-71500000D02*
X144000000Y-71427000D01*
X140000000Y-71500000D02*
X143927000Y-71500000D01*
X144500000Y-72750000D02*
X144500000Y-74250000D01*
G04 #@! TO.N,Net-(D205-A)*
X104140000Y-93980000D02*
X104190800Y-93929200D01*
X98420000Y-93980000D02*
X104140000Y-93980000D01*
G04 #@! TO.N,Net-(D207-A)*
X142087600Y-93980000D02*
X142138400Y-94030800D01*
X136520000Y-93980000D02*
X142087600Y-93980000D01*
G04 #@! TO.N,Net-(D208-A)*
X98420000Y-113030000D02*
X104394000Y-113030000D01*
G04 #@! TO.N,Net-(D209-A)*
X117470000Y-113030000D02*
X123494800Y-113030000D01*
G04 #@! TO.N,ROW3*
X134316400Y-66164634D02*
X134643034Y-65838000D01*
X134519800Y-67475172D02*
X134519800Y-66829966D01*
X127812800Y-72244200D02*
X127812800Y-72294200D01*
X125171200Y-116840000D02*
X125171200Y-116484400D01*
X135576189Y-65838000D02*
X135577189Y-65839000D01*
X135788400Y-109118400D02*
X142036800Y-115366800D01*
X127812800Y-72294200D02*
X127965200Y-72446600D01*
X134519800Y-66829966D02*
X134316400Y-66626566D01*
X134643034Y-65838000D02*
X135576189Y-65838000D01*
X134316400Y-66626566D02*
X134316400Y-66164634D01*
X133807200Y-109118400D02*
X135788400Y-109118400D01*
X130056372Y-72446600D02*
X131422400Y-71080572D01*
X127965200Y-72446600D02*
X130056372Y-72446600D01*
X123698000Y-118313200D02*
X125171200Y-116840000D01*
X131422400Y-70572572D02*
X134519800Y-67475172D01*
X131422400Y-71080572D02*
X131422400Y-70572572D01*
G04 #@! TO.N,ROW4*
X108313998Y-63907400D02*
X107697400Y-64523998D01*
X107697400Y-65396002D02*
X107790099Y-65488701D01*
X110058200Y-63068200D02*
X109202501Y-63923899D01*
X128473200Y-74470600D02*
X121312600Y-74470600D01*
X107697400Y-64523998D02*
X107697400Y-65396002D01*
X121312600Y-74470600D02*
X121056400Y-74726800D01*
X109202501Y-63923899D02*
X109186002Y-63907400D01*
X100990400Y-49936400D02*
X100076000Y-49022000D01*
X107790099Y-65488701D02*
X106883200Y-66395600D01*
X106883200Y-49936400D02*
X100990400Y-49936400D01*
X109186002Y-63907400D02*
X108313998Y-63907400D01*
X97790000Y-39979600D02*
X97790000Y-39065200D01*
X100076000Y-42265600D02*
X97790000Y-39979600D01*
X100076000Y-49022000D02*
X100076000Y-42265600D01*
X106883200Y-66395600D02*
X106883200Y-49936400D01*
G04 #@! TO.N,COL0*
X118457487Y-75996800D02*
X118071687Y-76382600D01*
X138176000Y-68376800D02*
X135585200Y-70967600D01*
X111731687Y-76017400D02*
X110528313Y-76017400D01*
X118071687Y-76382600D02*
X116868313Y-76382600D01*
X111761887Y-76047600D02*
X111731687Y-76017400D01*
X92080000Y-58420000D02*
X92080000Y-77470000D01*
X116533313Y-76047600D02*
X111761887Y-76047600D01*
X107391200Y-77520800D02*
X92130800Y-77520800D01*
X108864400Y-76047600D02*
X107391200Y-77520800D01*
X135585200Y-72136000D02*
X131724400Y-75996800D01*
X116868313Y-76382600D02*
X116533313Y-76047600D01*
X94000000Y-52750000D02*
X94000000Y-56500000D01*
X110528313Y-76017400D02*
X110498113Y-76047600D01*
X94000000Y-56500000D02*
X92080000Y-58420000D01*
X110498113Y-76047600D02*
X108864400Y-76047600D01*
X139344400Y-68376800D02*
X138176000Y-68376800D01*
X131724400Y-75996800D02*
X118457487Y-75996800D01*
X92080000Y-77470000D02*
X92080000Y-96520000D01*
X92080000Y-96520000D02*
X92080000Y-115570000D01*
X135585200Y-70967600D02*
X135585200Y-72136000D01*
X92130800Y-77520800D02*
X92080000Y-77470000D01*
G04 #@! TO.N,/SWDIO*
X148259800Y-93624400D02*
X149098000Y-92786200D01*
X149098000Y-92786200D02*
X149098000Y-87782400D01*
X143190479Y-53049599D02*
X142697039Y-53543039D01*
X142863845Y-52261033D02*
X143190479Y-52587667D01*
X146000000Y-83545932D02*
X144298800Y-85247132D01*
X144298800Y-92635200D02*
X145288000Y-93624400D01*
X146000000Y-70038566D02*
X146000000Y-83545932D01*
X142697039Y-53543039D02*
X146000000Y-56846000D01*
X149098000Y-87782400D02*
X148132800Y-86817200D01*
X145288000Y-93624400D02*
X148259800Y-93624400D01*
X146000000Y-69461434D02*
X146057600Y-69519034D01*
X142748000Y-52067400D02*
X142748000Y-52261033D01*
X143190479Y-52587667D02*
X143190479Y-53049599D01*
X142748000Y-52261033D02*
X142863845Y-52261033D01*
X146057600Y-69519034D02*
X146057600Y-69980966D01*
X148132800Y-86817200D02*
X146405600Y-86817200D01*
X146057600Y-69980966D02*
X146000000Y-70038566D01*
X146000000Y-56846000D02*
X146000000Y-69461434D01*
X144298800Y-85247132D02*
X144298800Y-92635200D01*
G04 #@! TO.N,/SWCLK*
X147016400Y-56000000D02*
X147016400Y-56541330D01*
X147016400Y-56541330D02*
X148945600Y-58470530D01*
X144653000Y-91567000D02*
X144703800Y-91567000D01*
X145034000Y-91897200D02*
X146405600Y-91897200D01*
X148945600Y-83972400D02*
X148869400Y-84048600D01*
X144703800Y-91567000D02*
X145034000Y-91897200D01*
X148869400Y-84048600D02*
X146201400Y-84048600D01*
X146201400Y-84048600D02*
X144653000Y-85597000D01*
X144653000Y-85597000D02*
X144653000Y-91567000D01*
X148945600Y-58470530D02*
X148945600Y-83972400D01*
D23*
G04 #@! TO.N,Net-(LED101-A)*
X102717600Y-27821600D02*
X102616000Y-27720000D01*
X102717600Y-29413200D02*
X102717600Y-27821600D01*
G04 #@! TO.N,Net-(LED102-A)*
X95859600Y-27821600D02*
X95758000Y-27720000D01*
X95859600Y-29311600D02*
X95859600Y-27821600D01*
D25*
G04 #@! TO.N,OLED_SDA*
X113484398Y-50955202D02*
X113182400Y-51257200D01*
X139750000Y-49000000D02*
X139365600Y-48615600D01*
X139750000Y-50250000D02*
X139750000Y-49000000D01*
X118059200Y-48615600D02*
X115719599Y-50955201D01*
X139365600Y-48615600D02*
X118059200Y-48615600D01*
X139547600Y-50452400D02*
X139750000Y-50250000D01*
X115719599Y-50955201D02*
X113484398Y-50955202D01*
X139547600Y-52775800D02*
X139547600Y-50452400D01*
G04 #@! TO.N,OLED_SCL*
X110185200Y-58444800D02*
X108750000Y-59880000D01*
X110185200Y-57302400D02*
X110185200Y-58444800D01*
X138805641Y-53130000D02*
X136067041Y-50391400D01*
X136067041Y-50391400D02*
X132994400Y-50391400D01*
G04 #@! TO.N,/USER_LED1*
X147677000Y-34487514D02*
X147677000Y-43846086D01*
X110747400Y-32230567D02*
X111340567Y-31637400D01*
X110747400Y-32483200D02*
X110747400Y-32230567D01*
X133355685Y-30326199D02*
X143515686Y-30326200D01*
X110312200Y-32918400D02*
X110747400Y-32483200D01*
X147677000Y-43846086D02*
X140246834Y-51276252D01*
X132538601Y-28803600D02*
X132538600Y-29509114D01*
X140246834Y-51276252D02*
X140246833Y-52945567D01*
X111340567Y-33662600D02*
X111294441Y-33616473D01*
X140246833Y-52945567D02*
X140157200Y-53035200D01*
X102920800Y-32893000D02*
X108813600Y-32893000D01*
X111340567Y-31637400D02*
X112179433Y-31637400D01*
X108839000Y-32918400D02*
X110312200Y-32918400D01*
X112772600Y-32230567D02*
X112772600Y-33069433D01*
X140157200Y-53035200D02*
X140157200Y-53441600D01*
X112179433Y-33662600D02*
X111340567Y-33662600D01*
X127711200Y-28803600D02*
X132538601Y-28803600D01*
X143515686Y-30326200D02*
X147677000Y-34487514D01*
X110539400Y-34371514D02*
X110539400Y-36626800D01*
X102666800Y-33147000D02*
X102920800Y-32893000D01*
X102666800Y-35509200D02*
X102666800Y-33147000D01*
X112772600Y-33069433D02*
X112179433Y-33662600D01*
X110539400Y-36626800D02*
X119888000Y-36626800D01*
X119888000Y-36626800D02*
X127711200Y-28803600D01*
X132538600Y-29509114D02*
X133355685Y-30326199D01*
X112179433Y-31637400D02*
X112772600Y-32230567D01*
X108813600Y-32893000D02*
X108839000Y-32918400D01*
X111294441Y-33616473D02*
X110539400Y-34371514D01*
D26*
G04 #@! TO.N,/USB_N*
X142752228Y-55006272D02*
X142979728Y-54778772D01*
X143471462Y-57727832D02*
X142752228Y-57008598D01*
X142752228Y-57008598D02*
X142752228Y-55006272D01*
X143793197Y-57727832D02*
X143471462Y-57727832D01*
G04 #@! TO.N,/USB_P*
X142406228Y-57151916D02*
X142406228Y-55006272D01*
X143226803Y-57972491D02*
X142406228Y-57151916D01*
X143226803Y-58294226D02*
X143226803Y-57972491D01*
X142406228Y-55006272D02*
X142178728Y-54778772D01*
D27*
G04 #@! TO.N,Net-(USB101-CC2)*
X116750000Y-30750000D02*
X116750000Y-30000000D01*
X115250000Y-32250000D02*
X116750000Y-30750000D01*
D25*
G04 #@! TO.N,/XOUT*
X123545600Y-60807600D02*
X123494800Y-60858400D01*
X131407022Y-58710812D02*
X130403600Y-59714234D01*
X130403600Y-60807600D02*
X123545600Y-60807600D01*
X130403600Y-59714234D02*
X130403600Y-60807600D01*
X131535705Y-58710812D02*
X131407022Y-58710812D01*
G04 #@! TO.N,/QSPI_SS*
X140097547Y-75142053D02*
X140097547Y-75411182D01*
X141833600Y-73406000D02*
X140097547Y-75142053D01*
X140055600Y-75453129D02*
X140055600Y-83058000D01*
X140097547Y-75411182D02*
X140055600Y-75453129D01*
X143662400Y-73406000D02*
X141833600Y-73406000D01*
X140055600Y-83058000D02*
X139801600Y-83312000D01*
G04 #@! TO.N,COL2*
X130810000Y-32650000D02*
X131822600Y-31637400D01*
X137261600Y-77368400D02*
X142646400Y-71983600D01*
X145440400Y-71983600D02*
X142646400Y-71983600D01*
X145338800Y-45669200D02*
X144780000Y-45669200D01*
X130180000Y-79176800D02*
X130200400Y-79197200D01*
X145345886Y-45676286D02*
X145338800Y-45669200D01*
X137773118Y-67259310D02*
X137266220Y-67259310D01*
X130180000Y-80944800D02*
X130180000Y-96520000D01*
X137266220Y-67259310D02*
X130302000Y-74223530D01*
X131822600Y-31637400D02*
X144325972Y-31637400D01*
X147322800Y-34634228D02*
X147322800Y-43699372D01*
X144325972Y-31637400D02*
X147322800Y-34634228D01*
X137261600Y-77368400D02*
X133350000Y-77368400D01*
X130180000Y-96520000D02*
X130180000Y-115570000D01*
X147322800Y-43699372D02*
X145345886Y-45676286D01*
X130180000Y-77470000D02*
X130180000Y-79176800D01*
X130302000Y-74223530D02*
X130302000Y-75086000D01*
X130251200Y-80873600D02*
X130180000Y-80944800D01*
G04 #@! TO.N,/QSPI_SD2*
X141071600Y-85090000D02*
X141071600Y-76327248D01*
X139801600Y-85852000D02*
X140309600Y-85852000D01*
X140309600Y-85852000D02*
X141071600Y-85090000D01*
X141071600Y-76327248D02*
X141135224Y-76263624D01*
G04 #@! TO.N,/QSPI_SD1*
X140851543Y-75506539D02*
X140577624Y-75780458D01*
X140577624Y-83856776D02*
X139801600Y-84632800D01*
X140577624Y-75780458D02*
X140577624Y-83856776D01*
G04 #@! TO.N,ENC3_A*
X128773800Y-52595058D02*
X126778342Y-50599600D01*
X129894400Y-58138234D02*
X128773800Y-57017634D01*
X128773800Y-57017634D02*
X128773800Y-52595058D01*
X126778342Y-50599600D02*
X125123200Y-50599600D01*
X124866400Y-50342800D02*
X124866400Y-49580800D01*
X129894400Y-58369200D02*
X129894400Y-58138234D01*
X130096803Y-58369200D02*
X129894400Y-58369200D01*
X125123200Y-50599600D02*
X124866400Y-50342800D01*
G04 #@! TO.N,ENC3_B*
X129127999Y-56611831D02*
X129127999Y-52448343D01*
X130856806Y-58369200D02*
X130654403Y-58369200D01*
X129540000Y-49834800D02*
X139039600Y-49834800D01*
X130654403Y-58369200D02*
X130654403Y-58138235D01*
X129133600Y-52442742D02*
X129133600Y-50241200D01*
X130654403Y-58138235D02*
X129127999Y-56611831D01*
X129127999Y-52448343D02*
X129133600Y-52442742D01*
X129133600Y-50241200D02*
X129540000Y-49834800D01*
G04 #@! TO.N,ROW1*
X130817500Y-80316000D02*
X133501500Y-83000000D01*
X132130800Y-71374000D02*
X130147400Y-73357400D01*
X129538800Y-80316000D02*
X130817500Y-80316000D01*
X125831600Y-84023200D02*
X129538800Y-80316000D01*
X132130800Y-70866000D02*
X132130800Y-71374000D01*
X139499000Y-82001000D02*
X139499000Y-80483064D01*
X138500000Y-83000000D02*
X139499000Y-82001000D01*
X130147400Y-73357400D02*
X126187200Y-73357400D01*
X136250824Y-66745976D02*
X132130800Y-70866000D01*
X133501500Y-83000000D02*
X138500000Y-83000000D01*
X136491488Y-66745976D02*
X136250824Y-66745976D01*
G04 #@! TO.N,ROW2*
X131776600Y-71227286D02*
X130203086Y-72800800D01*
X134874000Y-66395600D02*
X134874000Y-67621886D01*
X134874000Y-67621886D02*
X131776600Y-70719286D01*
X131776600Y-70719286D02*
X131776600Y-71227286D01*
X130203086Y-72800800D02*
X127101600Y-72800800D01*
G04 #@! TO.N,Net-(D202-A)*
X98420000Y-74930000D02*
X104292400Y-74930000D01*
G04 #@! TD*
G04 #@! TA.AperFunction,Conductor*
G04 #@! TO.N,+3V3*
G36*
X145139370Y-59565539D02*
G01*
X145206263Y-59585714D01*
X145251630Y-59638852D01*
X145262461Y-59689763D01*
X145250226Y-66376227D01*
X145230419Y-66443230D01*
X145177531Y-66488888D01*
X145126226Y-66500000D01*
X138500000Y-66500000D01*
X138135322Y-66500000D01*
X138068283Y-66480315D01*
X138022528Y-66427511D01*
X138020761Y-66423453D01*
X137975926Y-66315213D01*
X137975925Y-66315210D01*
X137975923Y-66315207D01*
X137975921Y-66315203D01*
X137887773Y-66183281D01*
X137887770Y-66183277D01*
X137775580Y-66071087D01*
X137775576Y-66071084D01*
X137643654Y-65982936D01*
X137643644Y-65982931D01*
X137497057Y-65922212D01*
X137497049Y-65922210D01*
X137341439Y-65891257D01*
X137341436Y-65891257D01*
X137182766Y-65891257D01*
X137182763Y-65891257D01*
X137027152Y-65922210D01*
X137027144Y-65922212D01*
X136880550Y-65982934D01*
X136877110Y-65984773D01*
X136875102Y-65985190D01*
X136874926Y-65985264D01*
X136874912Y-65985230D01*
X136808706Y-65999012D01*
X136771210Y-65989973D01*
X136726448Y-65971432D01*
X136726436Y-65971429D01*
X136570826Y-65940476D01*
X136570823Y-65940476D01*
X136506689Y-65940476D01*
X136439650Y-65920791D01*
X136393895Y-65867987D01*
X136382689Y-65816476D01*
X136382689Y-65759662D01*
X136382688Y-65759660D01*
X136376733Y-65729724D01*
X136351734Y-65604044D01*
X136291013Y-65457453D01*
X136291011Y-65457450D01*
X136291009Y-65457446D01*
X136202861Y-65325524D01*
X136202858Y-65325520D01*
X136090668Y-65213330D01*
X136090664Y-65213327D01*
X135958742Y-65125179D01*
X135958732Y-65125174D01*
X135812145Y-65064455D01*
X135812137Y-65064453D01*
X135656527Y-65033500D01*
X135656524Y-65033500D01*
X135497854Y-65033500D01*
X135497851Y-65033500D01*
X135342240Y-65064453D01*
X135342232Y-65064455D01*
X135195645Y-65125174D01*
X135195635Y-65125179D01*
X135063713Y-65213327D01*
X135063709Y-65213330D01*
X135052059Y-65224981D01*
X134990736Y-65258466D01*
X134964378Y-65261300D01*
X134718958Y-65261300D01*
X134567110Y-65261300D01*
X134420436Y-65300601D01*
X134420435Y-65300601D01*
X134420433Y-65300602D01*
X134420432Y-65300602D01*
X134288935Y-65376522D01*
X134288929Y-65376527D01*
X133854927Y-65810529D01*
X133854922Y-65810535D01*
X133779002Y-65942032D01*
X133779002Y-65942033D01*
X133779001Y-65942035D01*
X133779001Y-65942036D01*
X133744423Y-66071084D01*
X133739700Y-66088710D01*
X133739700Y-66376000D01*
X133737149Y-66384685D01*
X133738438Y-66393647D01*
X133727459Y-66417687D01*
X133720015Y-66443039D01*
X133713174Y-66448966D01*
X133709413Y-66457203D01*
X133687178Y-66471492D01*
X133667211Y-66488794D01*
X133656696Y-66491081D01*
X133650635Y-66494977D01*
X133615700Y-66500000D01*
X133443743Y-66500000D01*
X132105400Y-66497200D01*
X132105399Y-66497200D01*
X132074448Y-68111912D01*
X132053482Y-68178562D01*
X131999811Y-68223297D01*
X131951849Y-68233528D01*
X127500143Y-68282991D01*
X127500143Y-68282992D01*
X127500143Y-70010192D01*
X128962794Y-70010192D01*
X129029833Y-70029877D01*
X129075588Y-70082681D01*
X129086171Y-70121778D01*
X129236274Y-71613586D01*
X129223400Y-71682259D01*
X129175442Y-71733071D01*
X129112897Y-71750000D01*
X128509111Y-71750000D01*
X128442072Y-71730315D01*
X128421430Y-71713681D01*
X128326279Y-71618530D01*
X128326275Y-71618527D01*
X128194353Y-71530379D01*
X128194343Y-71530374D01*
X128047756Y-71469655D01*
X128047748Y-71469653D01*
X127892138Y-71438700D01*
X127892135Y-71438700D01*
X127733465Y-71438700D01*
X127733462Y-71438700D01*
X127577851Y-71469653D01*
X127577843Y-71469655D01*
X127431256Y-71530374D01*
X127431246Y-71530379D01*
X127299324Y-71618527D01*
X127299320Y-71618530D01*
X127204170Y-71713681D01*
X127142847Y-71747166D01*
X127116489Y-71750000D01*
X123211647Y-71750000D01*
X123144608Y-71730315D01*
X123142756Y-71729102D01*
X123063552Y-71676179D01*
X123063543Y-71676174D01*
X122916956Y-71615455D01*
X122916948Y-71615453D01*
X122761338Y-71584500D01*
X122761335Y-71584500D01*
X122602665Y-71584500D01*
X122602662Y-71584500D01*
X122447051Y-71615453D01*
X122447043Y-71615455D01*
X122300456Y-71676174D01*
X122300447Y-71676179D01*
X122221244Y-71729102D01*
X122154567Y-71749980D01*
X122152353Y-71750000D01*
X120000000Y-71750000D01*
X118872880Y-71750000D01*
X118805841Y-71730315D01*
X118760086Y-71677511D01*
X118748885Y-71627125D01*
X118748762Y-71613586D01*
X118699324Y-66163860D01*
X126550100Y-66163860D01*
X126550100Y-66322539D01*
X126581053Y-66478148D01*
X126581055Y-66478156D01*
X126641774Y-66624743D01*
X126641779Y-66624753D01*
X126729927Y-66756675D01*
X126729930Y-66756679D01*
X126842120Y-66868869D01*
X126842124Y-66868872D01*
X126974046Y-66957020D01*
X126974050Y-66957022D01*
X126974053Y-66957024D01*
X127120644Y-67017745D01*
X127276260Y-67048699D01*
X127276263Y-67048700D01*
X127276265Y-67048700D01*
X127434937Y-67048700D01*
X127434938Y-67048699D01*
X127590556Y-67017745D01*
X127737147Y-66957024D01*
X127869076Y-66868872D01*
X127981272Y-66756676D01*
X128069424Y-66624747D01*
X128130145Y-66478156D01*
X128161100Y-66322535D01*
X128161100Y-66163865D01*
X128161100Y-66163862D01*
X128161099Y-66163860D01*
X128142645Y-66071085D01*
X128130145Y-66008244D01*
X128069424Y-65861653D01*
X128069422Y-65861650D01*
X128069420Y-65861646D01*
X127981272Y-65729724D01*
X127981269Y-65729720D01*
X127869079Y-65617530D01*
X127869075Y-65617527D01*
X127737153Y-65529379D01*
X127737143Y-65529374D01*
X127590556Y-65468655D01*
X127590548Y-65468653D01*
X127434938Y-65437700D01*
X127434935Y-65437700D01*
X127276265Y-65437700D01*
X127276262Y-65437700D01*
X127120651Y-65468653D01*
X127120643Y-65468655D01*
X126974056Y-65529374D01*
X126974046Y-65529379D01*
X126842124Y-65617527D01*
X126842120Y-65617530D01*
X126729930Y-65729720D01*
X126729927Y-65729724D01*
X126641779Y-65861646D01*
X126641774Y-65861656D01*
X126581055Y-66008243D01*
X126581053Y-66008251D01*
X126550100Y-66163860D01*
X118699324Y-66163860D01*
X118673527Y-63320198D01*
X118692602Y-63252988D01*
X118694393Y-63250226D01*
X118713824Y-63221147D01*
X118774545Y-63074556D01*
X118805500Y-62918935D01*
X118805500Y-62760265D01*
X118805500Y-62760262D01*
X118805499Y-62760260D01*
X118774546Y-62604651D01*
X118774545Y-62604644D01*
X118713824Y-62458053D01*
X118685599Y-62415811D01*
X118664722Y-62349137D01*
X118664710Y-62348317D01*
X118662083Y-62058674D01*
X118681158Y-61991464D01*
X118733544Y-61945232D01*
X118786630Y-61933555D01*
X141317743Y-62034592D01*
X141325208Y-59662118D01*
X141345103Y-59595142D01*
X141398051Y-59549553D01*
X141450114Y-59538512D01*
X145139370Y-59565539D01*
G37*
G04 #@! TD.AperFunction*
G04 #@! TD*
G04 #@! TA.AperFunction,Conductor*
G04 #@! TO.N,+3V3*
G36*
X142943039Y-42019685D02*
G01*
X142988794Y-42072489D01*
X143000000Y-42124000D01*
X143000000Y-46376000D01*
X142997449Y-46384685D01*
X142998738Y-46393647D01*
X142987759Y-46417687D01*
X142980315Y-46443039D01*
X142973474Y-46448966D01*
X142969713Y-46457203D01*
X142947478Y-46471492D01*
X142927511Y-46488794D01*
X142916996Y-46491081D01*
X142910935Y-46494977D01*
X142876000Y-46500000D01*
X142750000Y-46500000D01*
X142639339Y-46500000D01*
X142615148Y-46497617D01*
X142582289Y-46491081D01*
X142573336Y-46489300D01*
X142573335Y-46489300D01*
X142414665Y-46489300D01*
X142414664Y-46489300D01*
X142405711Y-46491081D01*
X142372851Y-46497617D01*
X142348661Y-46500000D01*
X138500000Y-46500000D01*
X137206614Y-46500000D01*
X137139575Y-46480315D01*
X137096130Y-46432296D01*
X137087814Y-46415976D01*
X136958247Y-46237641D01*
X136958243Y-46237636D01*
X136802363Y-46081756D01*
X136802358Y-46081752D01*
X136624025Y-45952187D01*
X136624024Y-45952186D01*
X136624022Y-45952185D01*
X136561096Y-45920122D01*
X136427606Y-45852104D01*
X136427603Y-45852103D01*
X136217952Y-45783985D01*
X136109086Y-45766742D01*
X136000222Y-45749500D01*
X135779778Y-45749500D01*
X135707201Y-45760995D01*
X135562047Y-45783985D01*
X135352396Y-45852103D01*
X135352393Y-45852104D01*
X135155974Y-45952187D01*
X134977641Y-46081752D01*
X134977636Y-46081756D01*
X134821756Y-46237636D01*
X134821752Y-46237641D01*
X134720318Y-46377254D01*
X134664988Y-46419920D01*
X134595375Y-46425899D01*
X134533580Y-46393293D01*
X134519682Y-46377254D01*
X134418247Y-46237641D01*
X134418243Y-46237636D01*
X134262363Y-46081756D01*
X134262358Y-46081752D01*
X134084025Y-45952187D01*
X134084024Y-45952186D01*
X134084022Y-45952185D01*
X134021096Y-45920122D01*
X133887606Y-45852104D01*
X133887603Y-45852103D01*
X133677952Y-45783985D01*
X133569086Y-45766742D01*
X133460222Y-45749500D01*
X133239778Y-45749500D01*
X133167201Y-45760995D01*
X133022047Y-45783985D01*
X132812396Y-45852103D01*
X132812393Y-45852104D01*
X132615974Y-45952187D01*
X132437641Y-46081752D01*
X132437636Y-46081756D01*
X132281756Y-46237636D01*
X132281752Y-46237641D01*
X132180318Y-46377254D01*
X132124988Y-46419920D01*
X132055375Y-46425899D01*
X131993580Y-46393293D01*
X131979682Y-46377254D01*
X131878247Y-46237641D01*
X131878243Y-46237636D01*
X131722363Y-46081756D01*
X131722358Y-46081752D01*
X131544025Y-45952187D01*
X131544024Y-45952186D01*
X131544022Y-45952185D01*
X131481096Y-45920122D01*
X131347606Y-45852104D01*
X131347603Y-45852103D01*
X131137952Y-45783985D01*
X131029086Y-45766742D01*
X130920222Y-45749500D01*
X130699778Y-45749500D01*
X130627201Y-45760995D01*
X130482047Y-45783985D01*
X130272396Y-45852103D01*
X130272393Y-45852104D01*
X130075974Y-45952187D01*
X129897641Y-46081752D01*
X129897636Y-46081756D01*
X129741756Y-46237636D01*
X129741752Y-46237641D01*
X129612185Y-46415976D01*
X129603870Y-46432296D01*
X129555896Y-46483091D01*
X129493386Y-46500000D01*
X125351167Y-46500000D01*
X125284128Y-46480315D01*
X125238373Y-46427511D01*
X125236606Y-46423453D01*
X125224113Y-46393293D01*
X125213824Y-46368453D01*
X125213821Y-46368449D01*
X125213820Y-46368446D01*
X125125672Y-46236524D01*
X125125669Y-46236520D01*
X125013479Y-46124330D01*
X125013475Y-46124327D01*
X124881553Y-46036179D01*
X124881543Y-46036174D01*
X124734956Y-45975455D01*
X124734948Y-45975453D01*
X124579338Y-45944500D01*
X124579335Y-45944500D01*
X124420665Y-45944500D01*
X124420662Y-45944500D01*
X124265051Y-45975453D01*
X124265043Y-45975455D01*
X124118456Y-46036174D01*
X124118446Y-46036179D01*
X123986524Y-46124327D01*
X123986520Y-46124330D01*
X123874330Y-46236520D01*
X123874324Y-46236528D01*
X123786177Y-46368449D01*
X123786176Y-46368451D01*
X123780270Y-46382710D01*
X123736427Y-46437111D01*
X123670131Y-46459173D01*
X123641519Y-46456869D01*
X123579337Y-46444500D01*
X123579335Y-46444500D01*
X123420665Y-46444500D01*
X123420662Y-46444500D01*
X123265051Y-46475453D01*
X123265043Y-46475455D01*
X123253311Y-46480315D01*
X123232842Y-46488794D01*
X123228576Y-46490561D01*
X123181123Y-46500000D01*
X120510059Y-46500000D01*
X120500000Y-46499183D01*
X120500000Y-42000000D01*
X142876000Y-42000000D01*
X142943039Y-42019685D01*
G37*
G04 #@! TD.AperFunction*
G04 #@! TD*
G04 #@! TA.AperFunction,Conductor*
G04 #@! TO.N,+3V3*
G36*
X81524672Y-29929934D02*
G01*
X81582816Y-29944575D01*
X81858548Y-30091957D01*
X81858550Y-30091957D01*
X81858556Y-30091961D01*
X82153619Y-30214180D01*
X82459240Y-30306889D01*
X82772477Y-30369196D01*
X83090313Y-30400500D01*
X83090316Y-30400500D01*
X83409684Y-30400500D01*
X83409687Y-30400500D01*
X83727523Y-30369196D01*
X84040760Y-30306889D01*
X84346381Y-30214180D01*
X84641444Y-30091961D01*
X84901370Y-29953026D01*
X84960119Y-29938387D01*
X87300672Y-29944146D01*
X87367659Y-29963995D01*
X87413284Y-30016911D01*
X87414924Y-30020692D01*
X87429774Y-30056543D01*
X87429779Y-30056553D01*
X87517927Y-30188475D01*
X87517930Y-30188479D01*
X87630120Y-30300669D01*
X87630124Y-30300672D01*
X87762046Y-30388820D01*
X87762050Y-30388822D01*
X87762053Y-30388824D01*
X87908644Y-30449545D01*
X88064260Y-30480499D01*
X88064263Y-30480500D01*
X88064265Y-30480500D01*
X88222937Y-30480500D01*
X88222938Y-30480499D01*
X88378556Y-30449545D01*
X88525147Y-30388824D01*
X88657076Y-30300672D01*
X88769272Y-30188476D01*
X88857424Y-30056547D01*
X88870558Y-30024838D01*
X88914398Y-29970436D01*
X88980692Y-29948370D01*
X88985374Y-29948291D01*
X90384009Y-29951733D01*
X90450996Y-29971582D01*
X90496621Y-30024498D01*
X90507700Y-30075732D01*
X90507700Y-30850160D01*
X90488015Y-30917199D01*
X90471381Y-30937841D01*
X89545920Y-31863301D01*
X89484597Y-31896786D01*
X89414905Y-31891802D01*
X89410787Y-31890181D01*
X89287360Y-31839056D01*
X89287348Y-31839053D01*
X89131738Y-31808100D01*
X89131735Y-31808100D01*
X88973065Y-31808100D01*
X88973062Y-31808100D01*
X88817451Y-31839053D01*
X88817443Y-31839055D01*
X88670856Y-31899774D01*
X88670846Y-31899779D01*
X88538924Y-31987927D01*
X88538920Y-31987930D01*
X88426730Y-32100120D01*
X88426727Y-32100124D01*
X88338579Y-32232046D01*
X88338574Y-32232056D01*
X88277855Y-32378643D01*
X88277853Y-32378651D01*
X88246900Y-32534260D01*
X88246900Y-32692939D01*
X88277853Y-32848548D01*
X88277855Y-32848556D01*
X88338574Y-32995143D01*
X88338579Y-32995153D01*
X88426727Y-33127075D01*
X88426730Y-33127079D01*
X88538920Y-33239269D01*
X88538924Y-33239272D01*
X88670846Y-33327420D01*
X88670850Y-33327422D01*
X88670853Y-33327424D01*
X88817444Y-33388145D01*
X88973060Y-33419099D01*
X88973063Y-33419100D01*
X88973065Y-33419100D01*
X89131737Y-33419100D01*
X89131738Y-33419099D01*
X89287356Y-33388145D01*
X89433947Y-33327424D01*
X89565876Y-33239272D01*
X89565879Y-33239269D01*
X89578530Y-33226619D01*
X89639853Y-33193134D01*
X89666211Y-33190300D01*
X89687122Y-33190300D01*
X89687124Y-33190300D01*
X89833798Y-33150999D01*
X89965302Y-33075075D01*
X90489587Y-32550790D01*
X91449500Y-32550790D01*
X91449500Y-32749209D01*
X91477248Y-32924402D01*
X91480537Y-32945168D01*
X91521448Y-33071076D01*
X91541850Y-33133868D01*
X91603021Y-33253922D01*
X91631923Y-33310646D01*
X91748544Y-33471161D01*
X91888839Y-33611456D01*
X92049354Y-33728077D01*
X92162800Y-33785880D01*
X92226131Y-33818149D01*
X92226133Y-33818149D01*
X92226136Y-33818151D01*
X92414832Y-33879463D01*
X92512814Y-33894981D01*
X92610791Y-33910500D01*
X92610796Y-33910500D01*
X92809209Y-33910500D01*
X92898278Y-33896392D01*
X93005168Y-33879463D01*
X93193864Y-33818151D01*
X93370646Y-33728077D01*
X93531161Y-33611456D01*
X93671456Y-33471161D01*
X93788077Y-33310646D01*
X93878151Y-33133864D01*
X93939463Y-32945168D01*
X93956392Y-32838278D01*
X93970500Y-32749209D01*
X93970500Y-32550790D01*
X96529500Y-32550790D01*
X96529500Y-32749209D01*
X96557248Y-32924402D01*
X96560537Y-32945168D01*
X96601448Y-33071076D01*
X96621850Y-33133868D01*
X96683021Y-33253922D01*
X96711923Y-33310646D01*
X96828544Y-33471161D01*
X96968839Y-33611456D01*
X97129354Y-33728077D01*
X97242800Y-33785880D01*
X97306131Y-33818149D01*
X97306133Y-33818149D01*
X97306136Y-33818151D01*
X97494832Y-33879463D01*
X97592814Y-33894981D01*
X97690791Y-33910500D01*
X97690796Y-33910500D01*
X97889209Y-33910500D01*
X97978278Y-33896392D01*
X98085168Y-33879463D01*
X98273864Y-33818151D01*
X98450646Y-33728077D01*
X98611161Y-33611456D01*
X98751456Y-33471161D01*
X98868077Y-33310646D01*
X98958151Y-33133864D01*
X99019463Y-32945168D01*
X99036392Y-32838278D01*
X99050500Y-32749209D01*
X99050500Y-32550790D01*
X99023234Y-32378643D01*
X99019463Y-32354832D01*
X98958151Y-32166136D01*
X98958149Y-32166133D01*
X98958149Y-32166131D01*
X98924517Y-32100124D01*
X98868077Y-31989354D01*
X98751456Y-31828839D01*
X98611161Y-31688544D01*
X98450646Y-31571923D01*
X98393922Y-31543021D01*
X98273868Y-31481850D01*
X98228596Y-31467140D01*
X98085168Y-31420537D01*
X98085162Y-31420536D01*
X97889209Y-31389500D01*
X97889204Y-31389500D01*
X97690796Y-31389500D01*
X97690791Y-31389500D01*
X97494837Y-31420536D01*
X97494835Y-31420536D01*
X97494832Y-31420537D01*
X97400484Y-31451193D01*
X97306131Y-31481850D01*
X97129352Y-31571924D01*
X97129349Y-31571926D01*
X97043255Y-31634477D01*
X96968839Y-31688544D01*
X96968837Y-31688546D01*
X96968836Y-31688546D01*
X96828546Y-31828836D01*
X96828546Y-31828837D01*
X96828544Y-31828839D01*
X96782799Y-31891802D01*
X96711926Y-31989349D01*
X96711924Y-31989352D01*
X96621850Y-32166131D01*
X96600433Y-32232046D01*
X96560537Y-32354832D01*
X96560536Y-32354835D01*
X96560536Y-32354837D01*
X96529500Y-32550790D01*
X93970500Y-32550790D01*
X93943234Y-32378643D01*
X93939463Y-32354832D01*
X93878151Y-32166136D01*
X93878149Y-32166133D01*
X93878149Y-32166131D01*
X93844517Y-32100124D01*
X93788077Y-31989354D01*
X93671456Y-31828839D01*
X93531161Y-31688544D01*
X93370646Y-31571923D01*
X93313922Y-31543021D01*
X93193868Y-31481850D01*
X93148596Y-31467140D01*
X93005168Y-31420537D01*
X93005162Y-31420536D01*
X92809209Y-31389500D01*
X92809204Y-31389500D01*
X92610796Y-31389500D01*
X92610791Y-31389500D01*
X92414837Y-31420536D01*
X92414835Y-31420536D01*
X92414832Y-31420537D01*
X92320484Y-31451193D01*
X92226131Y-31481850D01*
X92049352Y-31571924D01*
X92049349Y-31571926D01*
X91963255Y-31634477D01*
X91888839Y-31688544D01*
X91888837Y-31688546D01*
X91888836Y-31688546D01*
X91748546Y-31828836D01*
X91748546Y-31828837D01*
X91748544Y-31828839D01*
X91702799Y-31891802D01*
X91631926Y-31989349D01*
X91631924Y-31989352D01*
X91541850Y-32166131D01*
X91520433Y-32232046D01*
X91480537Y-32354832D01*
X91480536Y-32354835D01*
X91480536Y-32354837D01*
X91449500Y-32550790D01*
X90489587Y-32550790D01*
X91545875Y-31494502D01*
X91621799Y-31362998D01*
X91661100Y-31216324D01*
X91661100Y-31064476D01*
X91661100Y-30079180D01*
X91680785Y-30012141D01*
X91733589Y-29966386D01*
X91785398Y-29955181D01*
X95348743Y-29963949D01*
X95415730Y-29983798D01*
X95417243Y-29984792D01*
X95478053Y-30025424D01*
X95478054Y-30025424D01*
X95478055Y-30025425D01*
X95510512Y-30038869D01*
X95624644Y-30086145D01*
X95770070Y-30115072D01*
X95780260Y-30117099D01*
X95780263Y-30117100D01*
X95780265Y-30117100D01*
X95938937Y-30117100D01*
X95938938Y-30117099D01*
X96094556Y-30086145D01*
X96241147Y-30025424D01*
X96298126Y-29987351D01*
X96364799Y-29966474D01*
X96367156Y-29966455D01*
X102094743Y-29980548D01*
X102161733Y-30000398D01*
X102182118Y-30016867D01*
X102204120Y-30038869D01*
X102204124Y-30038872D01*
X102336046Y-30127020D01*
X102336050Y-30127022D01*
X102336053Y-30127024D01*
X102482644Y-30187745D01*
X102638260Y-30218699D01*
X102638263Y-30218700D01*
X102638265Y-30218700D01*
X102796937Y-30218700D01*
X102796938Y-30218699D01*
X102952556Y-30187745D01*
X103099147Y-30127024D01*
X103231076Y-30038872D01*
X103250021Y-30019926D01*
X103311339Y-29986441D01*
X103337992Y-29983607D01*
X105863215Y-29989821D01*
X105930206Y-30009671D01*
X105950591Y-30026140D01*
X105963320Y-30038869D01*
X105963324Y-30038872D01*
X106095246Y-30127020D01*
X106095250Y-30127022D01*
X106095253Y-30127024D01*
X106241844Y-30187745D01*
X106397460Y-30218699D01*
X106397463Y-30218700D01*
X106397465Y-30218700D01*
X106556137Y-30218700D01*
X106556138Y-30218699D01*
X106711756Y-30187745D01*
X106858347Y-30127024D01*
X106990276Y-30038872D01*
X106999992Y-30029155D01*
X107061308Y-29995669D01*
X107087964Y-29992834D01*
X109876307Y-29999695D01*
X109943296Y-30019545D01*
X109988921Y-30072461D01*
X110000000Y-30123695D01*
X110000000Y-32217700D01*
X109980315Y-32284739D01*
X109927511Y-32330494D01*
X109876000Y-32341700D01*
X109000644Y-32341700D01*
X108968551Y-32337475D01*
X108942497Y-32330494D01*
X108889524Y-32316300D01*
X108395375Y-32316300D01*
X108000000Y-32000000D01*
X103471512Y-32031432D01*
X103479890Y-32316300D01*
X102996724Y-32316300D01*
X102844876Y-32316300D01*
X102698202Y-32355601D01*
X102698201Y-32355601D01*
X102698199Y-32355602D01*
X102698198Y-32355602D01*
X102566701Y-32431522D01*
X102566695Y-32431527D01*
X102205327Y-32792895D01*
X102205322Y-32792901D01*
X102129402Y-32924398D01*
X102129402Y-32924399D01*
X102129401Y-32924401D01*
X102129401Y-32924402D01*
X102108046Y-33004102D01*
X102090100Y-33071076D01*
X102090100Y-34895389D01*
X102070415Y-34962428D01*
X102053781Y-34983070D01*
X102041130Y-34995720D01*
X102041127Y-34995724D01*
X101952979Y-35127646D01*
X101952974Y-35127656D01*
X101892255Y-35274243D01*
X101892253Y-35274251D01*
X101861300Y-35429860D01*
X101861300Y-35588539D01*
X101892253Y-35744148D01*
X101892255Y-35744156D01*
X101952974Y-35890743D01*
X101952979Y-35890753D01*
X102041127Y-36022675D01*
X102041130Y-36022679D01*
X102153320Y-36134869D01*
X102153324Y-36134872D01*
X102285246Y-36223020D01*
X102285250Y-36223022D01*
X102285253Y-36223024D01*
X102431844Y-36283745D01*
X102587460Y-36314699D01*
X102587463Y-36314700D01*
X102587465Y-36314700D01*
X102746137Y-36314700D01*
X102746138Y-36314699D01*
X102901756Y-36283745D01*
X103048347Y-36223024D01*
X103180276Y-36134872D01*
X103292472Y-36022676D01*
X103380624Y-35890747D01*
X103441345Y-35744156D01*
X103472300Y-35588535D01*
X103472300Y-35429865D01*
X103472300Y-35429862D01*
X103472299Y-35429860D01*
X103441346Y-35274251D01*
X103441345Y-35274244D01*
X103380624Y-35127653D01*
X103380622Y-35127650D01*
X103380620Y-35127646D01*
X103292472Y-34995724D01*
X103292469Y-34995720D01*
X103279819Y-34983070D01*
X103246334Y-34921747D01*
X103243500Y-34895389D01*
X103243500Y-33593700D01*
X103263185Y-33526661D01*
X103315989Y-33480906D01*
X103367500Y-33469700D01*
X103513814Y-33469700D01*
X103654412Y-38250000D01*
X102347653Y-38250000D01*
X102280614Y-38230315D01*
X102259976Y-38213685D01*
X102139699Y-38093408D01*
X102139698Y-38093407D01*
X102139696Y-38093405D01*
X101952454Y-37949730D01*
X101952453Y-37949729D01*
X101952450Y-37949727D01*
X101870957Y-37902677D01*
X101748056Y-37831719D01*
X101748045Y-37831714D01*
X101529993Y-37741394D01*
X101302010Y-37680306D01*
X101068020Y-37649501D01*
X101068017Y-37649500D01*
X101068011Y-37649500D01*
X100831989Y-37649500D01*
X100831983Y-37649500D01*
X100831979Y-37649501D01*
X100597989Y-37680306D01*
X100370006Y-37741394D01*
X100151954Y-37831714D01*
X100151943Y-37831719D01*
X99947545Y-37949730D01*
X99760303Y-38093405D01*
X99700166Y-38153543D01*
X99640026Y-38213682D01*
X99578706Y-38247166D01*
X99552347Y-38250000D01*
X99250000Y-38250000D01*
X99250000Y-38824564D01*
X99241789Y-38865848D01*
X99242700Y-38866158D01*
X99241397Y-38869996D01*
X99180306Y-39097989D01*
X99174178Y-39144537D01*
X99149500Y-39331989D01*
X99149500Y-39968011D01*
X99180306Y-40202010D01*
X99180307Y-40202013D01*
X99180307Y-40202014D01*
X99189489Y-40236283D01*
X99187826Y-40306133D01*
X99148663Y-40363995D01*
X99084434Y-40391498D01*
X99015532Y-40379911D01*
X98982033Y-40356056D01*
X98403019Y-39777042D01*
X98388315Y-39750114D01*
X98371723Y-39724296D01*
X98370831Y-39718095D01*
X98369534Y-39715719D01*
X98366700Y-39689361D01*
X98366700Y-39679010D01*
X98386385Y-39611971D01*
X98403016Y-39591331D01*
X98415672Y-39578676D01*
X98503824Y-39446747D01*
X98564545Y-39300156D01*
X98595500Y-39144535D01*
X98595500Y-38985865D01*
X98595500Y-38985862D01*
X98595499Y-38985860D01*
X98572452Y-38869996D01*
X98564545Y-38830244D01*
X98503824Y-38683653D01*
X98503822Y-38683650D01*
X98503820Y-38683646D01*
X98415672Y-38551724D01*
X98415669Y-38551720D01*
X98303479Y-38439530D01*
X98303475Y-38439527D01*
X98171553Y-38351379D01*
X98171543Y-38351374D01*
X98024956Y-38290655D01*
X98024948Y-38290653D01*
X97869338Y-38259700D01*
X97869335Y-38259700D01*
X97710665Y-38259700D01*
X97710662Y-38259700D01*
X97555051Y-38290653D01*
X97555043Y-38290655D01*
X97408456Y-38351374D01*
X97408446Y-38351379D01*
X97276524Y-38439527D01*
X97276520Y-38439530D01*
X97164330Y-38551720D01*
X97164327Y-38551724D01*
X97076179Y-38683646D01*
X97076174Y-38683656D01*
X97015455Y-38830243D01*
X97015453Y-38830251D01*
X96984500Y-38985860D01*
X96984500Y-39144539D01*
X97015453Y-39300148D01*
X97015455Y-39300156D01*
X97076174Y-39446743D01*
X97076179Y-39446753D01*
X97164326Y-39578674D01*
X97164327Y-39578675D01*
X97164328Y-39578676D01*
X97176980Y-39591328D01*
X97210465Y-39652648D01*
X97213300Y-39679010D01*
X97213300Y-39903676D01*
X97213300Y-40055524D01*
X97252551Y-40202013D01*
X97252602Y-40202200D01*
X97252602Y-40202201D01*
X97328522Y-40333698D01*
X97328527Y-40333704D01*
X99216986Y-42222163D01*
X99250471Y-42283486D01*
X99253091Y-42302562D01*
X99492053Y-46364903D01*
X99476339Y-46432983D01*
X99426313Y-46481760D01*
X99364726Y-46496134D01*
X99097235Y-46488492D01*
X99030785Y-46466901D01*
X98990290Y-46420836D01*
X98987812Y-46415973D01*
X98858247Y-46237641D01*
X98858243Y-46237636D01*
X98702363Y-46081756D01*
X98702358Y-46081752D01*
X98524025Y-45952187D01*
X98524024Y-45952186D01*
X98524022Y-45952185D01*
X98456389Y-45917724D01*
X98327606Y-45852104D01*
X98327603Y-45852103D01*
X98117952Y-45783985D01*
X98009086Y-45766742D01*
X97900222Y-45749500D01*
X97679778Y-45749500D01*
X97607201Y-45760995D01*
X97462047Y-45783985D01*
X97252396Y-45852103D01*
X97252393Y-45852104D01*
X97055974Y-45952187D01*
X96877641Y-46081752D01*
X96877636Y-46081756D01*
X96721756Y-46237636D01*
X96721752Y-46237641D01*
X96629972Y-46363967D01*
X96624217Y-46368404D01*
X96621011Y-46374926D01*
X96596921Y-46389453D01*
X96574643Y-46406633D01*
X96565934Y-46408139D01*
X96561179Y-46411008D01*
X96526115Y-46415031D01*
X96506397Y-46414468D01*
X96439947Y-46392879D01*
X96409620Y-46363407D01*
X96318242Y-46237635D01*
X96162365Y-46081758D01*
X96162363Y-46081756D01*
X96162358Y-46081752D01*
X95984025Y-45952187D01*
X95984024Y-45952186D01*
X95984022Y-45952185D01*
X95916389Y-45917724D01*
X95787606Y-45852104D01*
X95787603Y-45852103D01*
X95577952Y-45783985D01*
X95469086Y-45766742D01*
X95360222Y-45749500D01*
X95139778Y-45749500D01*
X95067201Y-45760995D01*
X94922047Y-45783985D01*
X94712396Y-45852103D01*
X94712393Y-45852104D01*
X94515974Y-45952187D01*
X94337641Y-46081752D01*
X94337636Y-46081756D01*
X94181757Y-46237635D01*
X94141624Y-46292873D01*
X94135869Y-46297310D01*
X94132663Y-46303832D01*
X94108570Y-46318359D01*
X94086293Y-46335538D01*
X94077584Y-46337044D01*
X94072830Y-46339912D01*
X94037766Y-46343935D01*
X93912551Y-46340358D01*
X93846101Y-46318768D01*
X93815774Y-46289294D01*
X93778242Y-46237635D01*
X93622365Y-46081758D01*
X93622363Y-46081756D01*
X93622358Y-46081752D01*
X93444025Y-45952187D01*
X93444024Y-45952186D01*
X93444022Y-45952185D01*
X93376389Y-45917724D01*
X93247606Y-45852104D01*
X93247603Y-45852103D01*
X93037952Y-45783985D01*
X92929086Y-45766742D01*
X92820222Y-45749500D01*
X92599778Y-45749500D01*
X92527201Y-45760995D01*
X92382047Y-45783985D01*
X92172396Y-45852103D01*
X92172393Y-45852104D01*
X91975974Y-45952187D01*
X91797642Y-46081751D01*
X91642760Y-46236633D01*
X91581437Y-46270117D01*
X91551538Y-46272900D01*
X90750014Y-46249999D01*
X86863286Y-46332695D01*
X86813195Y-46323284D01*
X86798157Y-46317055D01*
X86798153Y-46317053D01*
X86642538Y-46286100D01*
X86642535Y-46286100D01*
X86483865Y-46286100D01*
X86483862Y-46286100D01*
X86328251Y-46317053D01*
X86328243Y-46317055D01*
X86280989Y-46336628D01*
X86236176Y-46346038D01*
X79126638Y-46497305D01*
X79059195Y-46479051D01*
X79012327Y-46427232D01*
X79000000Y-46373333D01*
X79000000Y-39331995D01*
X87749500Y-39331995D01*
X87749500Y-39968004D01*
X87749501Y-39968020D01*
X87780306Y-40202010D01*
X87841394Y-40429993D01*
X87931714Y-40648045D01*
X87931719Y-40648056D01*
X88002677Y-40770957D01*
X88049727Y-40852450D01*
X88049729Y-40852453D01*
X88049730Y-40852454D01*
X88193406Y-41039697D01*
X88193412Y-41039704D01*
X88360295Y-41206587D01*
X88360301Y-41206592D01*
X88547550Y-41350273D01*
X88678918Y-41426118D01*
X88751943Y-41468280D01*
X88751948Y-41468282D01*
X88751951Y-41468284D01*
X88970007Y-41558606D01*
X89197986Y-41619693D01*
X89431989Y-41650500D01*
X89431996Y-41650500D01*
X89668004Y-41650500D01*
X89668011Y-41650500D01*
X89902014Y-41619693D01*
X90129993Y-41558606D01*
X90348049Y-41468284D01*
X90552450Y-41350273D01*
X90739699Y-41206592D01*
X90906592Y-41039699D01*
X91050273Y-40852450D01*
X91168284Y-40648049D01*
X91258606Y-40429993D01*
X91319693Y-40202014D01*
X91350500Y-39968011D01*
X91350500Y-39331989D01*
X91319693Y-39097986D01*
X91258606Y-38870007D01*
X91168284Y-38651951D01*
X91168282Y-38651948D01*
X91168280Y-38651943D01*
X91110418Y-38551724D01*
X91050273Y-38447550D01*
X90906592Y-38260301D01*
X90906589Y-38260297D01*
X90739704Y-38093412D01*
X90739697Y-38093406D01*
X90552454Y-37949730D01*
X90552453Y-37949729D01*
X90552450Y-37949727D01*
X90470957Y-37902677D01*
X90348056Y-37831719D01*
X90348045Y-37831714D01*
X90129993Y-37741394D01*
X89902010Y-37680306D01*
X89668020Y-37649501D01*
X89668017Y-37649500D01*
X89668011Y-37649500D01*
X89431989Y-37649500D01*
X89431983Y-37649500D01*
X89431979Y-37649501D01*
X89197989Y-37680306D01*
X88970006Y-37741394D01*
X88751954Y-37831714D01*
X88751943Y-37831719D01*
X88547545Y-37949730D01*
X88360302Y-38093406D01*
X88360295Y-38093412D01*
X88193412Y-38260295D01*
X88193411Y-38260297D01*
X88049730Y-38447545D01*
X87931719Y-38651943D01*
X87931714Y-38651954D01*
X87841394Y-38870006D01*
X87780306Y-39097989D01*
X87749501Y-39331979D01*
X87749500Y-39331995D01*
X79000000Y-39331995D01*
X79000000Y-35582260D01*
X80068100Y-35582260D01*
X80068100Y-35740939D01*
X80099053Y-35896548D01*
X80099055Y-35896556D01*
X80159774Y-36043143D01*
X80159779Y-36043153D01*
X80247927Y-36175075D01*
X80247930Y-36175079D01*
X80360120Y-36287269D01*
X80360124Y-36287272D01*
X80492046Y-36375420D01*
X80492050Y-36375422D01*
X80492053Y-36375424D01*
X80638644Y-36436145D01*
X80794260Y-36467099D01*
X80794263Y-36467100D01*
X80794265Y-36467100D01*
X80952937Y-36467100D01*
X80952938Y-36467099D01*
X81108556Y-36436145D01*
X81255147Y-36375424D01*
X81387076Y-36287272D01*
X81499272Y-36175076D01*
X81587424Y-36043147D01*
X81648145Y-35896556D01*
X81679100Y-35740935D01*
X81679100Y-35582265D01*
X81679100Y-35582262D01*
X81679099Y-35582260D01*
X86113300Y-35582260D01*
X86113300Y-35740939D01*
X86144253Y-35896548D01*
X86144255Y-35896556D01*
X86204974Y-36043143D01*
X86204979Y-36043153D01*
X86293127Y-36175075D01*
X86293130Y-36175079D01*
X86405320Y-36287269D01*
X86405324Y-36287272D01*
X86537246Y-36375420D01*
X86537250Y-36375422D01*
X86537253Y-36375424D01*
X86683844Y-36436145D01*
X86839460Y-36467099D01*
X86839463Y-36467100D01*
X86839465Y-36467100D01*
X86998137Y-36467100D01*
X86998138Y-36467099D01*
X87153756Y-36436145D01*
X87300347Y-36375424D01*
X87432276Y-36287272D01*
X87544472Y-36175076D01*
X87632624Y-36043147D01*
X87693345Y-35896556D01*
X87724300Y-35740935D01*
X87724300Y-35582265D01*
X87724300Y-35582262D01*
X87724299Y-35582260D01*
X87693345Y-35426644D01*
X87632624Y-35280053D01*
X87632622Y-35280050D01*
X87632620Y-35280046D01*
X87544472Y-35148124D01*
X87544469Y-35148120D01*
X87432279Y-35035930D01*
X87432275Y-35035927D01*
X87300353Y-34947779D01*
X87300343Y-34947774D01*
X87153756Y-34887055D01*
X87153748Y-34887053D01*
X86998138Y-34856100D01*
X86998135Y-34856100D01*
X86839465Y-34856100D01*
X86839462Y-34856100D01*
X86683851Y-34887053D01*
X86683843Y-34887055D01*
X86537256Y-34947774D01*
X86537246Y-34947779D01*
X86405324Y-35035927D01*
X86405320Y-35035930D01*
X86293130Y-35148120D01*
X86293127Y-35148124D01*
X86204979Y-35280046D01*
X86204974Y-35280056D01*
X86144255Y-35426643D01*
X86144253Y-35426651D01*
X86113300Y-35582260D01*
X81679099Y-35582260D01*
X81648145Y-35426644D01*
X81587424Y-35280053D01*
X81587422Y-35280050D01*
X81587420Y-35280046D01*
X81499272Y-35148124D01*
X81499269Y-35148120D01*
X81387079Y-35035930D01*
X81387075Y-35035927D01*
X81255153Y-34947779D01*
X81255143Y-34947774D01*
X81108556Y-34887055D01*
X81108548Y-34887053D01*
X80952938Y-34856100D01*
X80952935Y-34856100D01*
X80794265Y-34856100D01*
X80794262Y-34856100D01*
X80638651Y-34887053D01*
X80638643Y-34887055D01*
X80492056Y-34947774D01*
X80492046Y-34947779D01*
X80360124Y-35035927D01*
X80360120Y-35035930D01*
X80247930Y-35148120D01*
X80247927Y-35148124D01*
X80159779Y-35280046D01*
X80159774Y-35280056D01*
X80099055Y-35426643D01*
X80099053Y-35426651D01*
X80068100Y-35582260D01*
X79000000Y-35582260D01*
X79000000Y-30048027D01*
X79019685Y-29980988D01*
X79072489Y-29935233D01*
X79124301Y-29924027D01*
X81524672Y-29929934D01*
G37*
G04 #@! TD.AperFunction*
G04 #@! TD*
G04 #@! TA.AperFunction,Conductor*
G04 #@! TO.N,+3V3*
G36*
X114527917Y-37223185D02*
G01*
X114538340Y-37230672D01*
X118192467Y-40153974D01*
X118232519Y-40211224D01*
X118234780Y-40218707D01*
X118291394Y-40429993D01*
X118381714Y-40648045D01*
X118381719Y-40648056D01*
X118452677Y-40770957D01*
X118499727Y-40852450D01*
X118499729Y-40852453D01*
X118499730Y-40852454D01*
X118643406Y-41039697D01*
X118643412Y-41039704D01*
X118810295Y-41206587D01*
X118810301Y-41206592D01*
X118997550Y-41350273D01*
X119128918Y-41426118D01*
X119201943Y-41468280D01*
X119201948Y-41468282D01*
X119201951Y-41468284D01*
X119420007Y-41558606D01*
X119647986Y-41619693D01*
X119881989Y-41650500D01*
X119881996Y-41650500D01*
X120019628Y-41650500D01*
X120086667Y-41670185D01*
X120097090Y-41677672D01*
X120500000Y-42000000D01*
X120500000Y-46499184D01*
X120490077Y-46498380D01*
X119740500Y-46376000D01*
X117727552Y-46047355D01*
X117674648Y-46025294D01*
X117574022Y-45952185D01*
X117377606Y-45852104D01*
X117377603Y-45852103D01*
X117167952Y-45783985D01*
X117059086Y-45766742D01*
X116950222Y-45749500D01*
X116729778Y-45749500D01*
X116657201Y-45760995D01*
X116512047Y-45783985D01*
X116407673Y-45817898D01*
X116349375Y-45822347D01*
X110865920Y-44927088D01*
X110802928Y-44896858D01*
X110766279Y-44837372D01*
X110761900Y-44804708D01*
X110761900Y-37327500D01*
X110781585Y-37260461D01*
X110834389Y-37214706D01*
X110885900Y-37203500D01*
X114460878Y-37203500D01*
X114527917Y-37223185D01*
G37*
G04 #@! TD.AperFunction*
G04 #@! TA.AperFunction,Conductor*
G36*
X108684049Y-33473925D02*
G01*
X108763076Y-33495100D01*
X108914924Y-33495100D01*
X109799961Y-33495100D01*
X109867000Y-33514785D01*
X109912755Y-33567589D01*
X109922699Y-33636747D01*
X109893674Y-33700303D01*
X109887642Y-33706781D01*
X109723727Y-33870695D01*
X109723722Y-33870701D01*
X109647802Y-34002198D01*
X109647802Y-34002199D01*
X109608500Y-34148876D01*
X109608500Y-37738445D01*
X109588815Y-37805484D01*
X109536011Y-37851239D01*
X109466853Y-37861183D01*
X109422501Y-37845832D01*
X109398063Y-37831723D01*
X109398045Y-37831714D01*
X109179993Y-37741394D01*
X108952010Y-37680306D01*
X108718020Y-37649501D01*
X108718017Y-37649500D01*
X108718011Y-37649500D01*
X108481989Y-37649500D01*
X108481983Y-37649500D01*
X108481979Y-37649501D01*
X108247989Y-37680306D01*
X108020006Y-37741394D01*
X107801954Y-37831714D01*
X107801943Y-37831719D01*
X107597545Y-37949730D01*
X107410302Y-38093406D01*
X107410295Y-38093412D01*
X107243412Y-38260295D01*
X107243406Y-38260302D01*
X107099730Y-38447545D01*
X106981719Y-38651943D01*
X106981714Y-38651954D01*
X106891394Y-38870006D01*
X106830306Y-39097989D01*
X106799501Y-39331979D01*
X106799500Y-39331995D01*
X106799500Y-39968004D01*
X106799501Y-39968020D01*
X106830306Y-40202010D01*
X106891394Y-40429993D01*
X106981714Y-40648045D01*
X106981719Y-40648056D01*
X107052677Y-40770957D01*
X107099727Y-40852450D01*
X107099729Y-40852453D01*
X107099730Y-40852454D01*
X107243406Y-41039697D01*
X107243412Y-41039704D01*
X107410295Y-41206587D01*
X107410301Y-41206592D01*
X107597550Y-41350273D01*
X107728918Y-41426118D01*
X107801943Y-41468280D01*
X107801948Y-41468282D01*
X107801951Y-41468284D01*
X108020007Y-41558606D01*
X108247986Y-41619693D01*
X108481989Y-41650500D01*
X108481996Y-41650500D01*
X108718004Y-41650500D01*
X108718011Y-41650500D01*
X108952014Y-41619693D01*
X109179993Y-41558606D01*
X109398049Y-41468284D01*
X109422499Y-41454167D01*
X109490397Y-41437694D01*
X109556425Y-41460545D01*
X109599617Y-41515465D01*
X109608500Y-41561554D01*
X109608500Y-44575908D01*
X109588815Y-44642947D01*
X109536011Y-44688702D01*
X109466853Y-44698646D01*
X109464520Y-44698288D01*
X108508816Y-44542255D01*
X108250000Y-44500000D01*
X108249991Y-44499998D01*
X108249980Y-44499997D01*
X104576760Y-44010234D01*
X104512910Y-43981862D01*
X104475511Y-43926534D01*
X103756363Y-41769089D01*
X103750000Y-41729877D01*
X103750000Y-41499985D01*
X103654413Y-38250000D01*
X103654412Y-38250000D01*
X103513814Y-33469700D01*
X108651956Y-33469700D01*
X108684049Y-33473925D01*
G37*
G04 #@! TD.AperFunction*
G04 #@! TA.AperFunction,Conductor*
G36*
X108395375Y-32316300D02*
G01*
X103479890Y-32316300D01*
X103471512Y-32031432D01*
X108000000Y-32000000D01*
X108395375Y-32316300D01*
G37*
G04 #@! TD.AperFunction*
G04 #@! TD*
M02*
